<svg width="30" height="30" viewBox="0 0 30 30" fill="none" xmlns="http://www.w3.org/2000/svg">
<g clip-path="url(#clip0_34_4972)">
<path d="M15 30C23.2843 30 30 23.2843 30 15C30 6.71573 23.2843 0 15 0C6.71573 0 0 6.71573 0 15C0 23.2843 6.71573 30 15 30Z" fill="#1E6DFF"/>
<path d="M13.3594 14.7656C13.3594 14.7656 14.7656 14.243 14.7656 12.4219C14.7656 10.6008 13.5609 9.84375 11.9531 9.84375H6.5625V20.1562H11.9531C11.9531 20.1562 15 20.1562 15 17.1094C15 17.1094 15 14.7656 13.3594 14.7656ZM8.90625 11.7188H11.9531C11.9531 11.7188 12.6562 11.7188 12.6562 12.6562C12.6562 13.7156 12.1875 13.8281 11.7188 13.8281H8.90625V11.7188ZM11.7188 18.2812H8.90625V15.7031L11.857 15.6867C11.857 15.6867 12.8906 15.7031 12.8906 17.1094C12.8906 18.2812 12.143 18.2695 11.7188 18.2812ZM19.868 12.3938C15.9562 12.3938 15.9586 16.3031 15.9586 16.3031C15.9586 16.3031 15.743 20.1562 19.9219 20.1562C19.9219 20.1562 23.4375 20.482 23.4375 17.5781H21.5625C21.5625 17.5781 21.6187 18.5812 19.9219 18.5812C19.9219 18.5812 18.0469 18.7664 18.0469 16.875H23.4375C23.4375 16.875 23.9859 12.3938 19.868 12.3938ZM21.5625 15.4688H18.0469C18.0469 15.4688 18.3375 13.8844 19.9078 13.8844C21.4781 13.8844 21.5625 15.4688 21.5625 15.4688ZM17.5781 10.3125H22.0312V11.7188H17.5781V10.3125Z" fill="white"/>
</g>
<defs>
<clipPath id="clip0_34_4972">
<rect width="30" height="30" fill="white"/>
</clipPath>
</defs>
</svg>
