<svg width="1440" height="300" viewBox="0 0 1440 300" fill="none" xmlns="http://www.w3.org/2000/svg">
<rect width="822" height="300" fill="#1336AE"/>
<rect x="820" width="620" height="300" fill="#FB9C2D"/>
<rect x="393" y="176" width="427" height="124" fill="#1887FF"/>
<rect x="820" y="115" width="191" height="185" fill="#FDD139"/>
<path d="M279.227 146H260.392V87.8182H279.824C285.525 87.8182 290.42 88.983 294.511 91.3125C298.602 93.6231 301.737 96.947 303.915 101.284C306.112 105.602 307.21 110.782 307.21 116.824C307.21 122.884 306.102 128.093 303.886 132.449C301.689 136.805 298.508 140.157 294.341 142.506C290.174 144.835 285.136 146 279.227 146ZM269.17 138.33H278.744C283.176 138.33 286.86 137.496 289.795 135.83C292.731 134.144 294.928 131.71 296.386 128.528C297.845 125.328 298.574 121.426 298.574 116.824C298.574 112.259 297.845 108.386 296.386 105.205C294.947 102.023 292.797 99.608 289.938 97.9602C287.078 96.3125 283.527 95.4886 279.284 95.4886H269.17V138.33ZM334.251 146.881C329.952 146.881 326.25 145.962 323.143 144.125C320.056 142.269 317.67 139.665 315.984 136.312C314.318 132.941 313.484 128.992 313.484 124.466C313.484 119.996 314.318 116.057 315.984 112.648C317.67 109.239 320.018 106.578 323.03 104.665C326.06 102.752 329.602 101.795 333.655 101.795C336.117 101.795 338.503 102.203 340.814 103.017C343.125 103.831 345.198 105.11 347.036 106.852C348.873 108.595 350.321 110.858 351.382 113.642C352.443 116.407 352.973 119.769 352.973 123.727V126.739H318.286V120.375H344.649C344.649 118.14 344.195 116.161 343.286 114.438C342.376 112.695 341.098 111.322 339.45 110.318C337.821 109.314 335.909 108.812 333.712 108.812C331.325 108.812 329.242 109.4 327.462 110.574C325.7 111.729 324.337 113.244 323.371 115.119C322.424 116.975 321.95 118.992 321.95 121.17V126.142C321.95 129.059 322.462 131.54 323.484 133.585C324.526 135.631 325.975 137.193 327.831 138.273C329.687 139.333 331.856 139.864 334.337 139.864C335.946 139.864 337.414 139.636 338.74 139.182C340.066 138.708 341.212 138.008 342.178 137.08C343.143 136.152 343.882 135.006 344.393 133.642L352.433 135.091C351.789 137.458 350.634 139.532 348.967 141.312C347.32 143.074 345.246 144.447 342.746 145.432C340.265 146.398 337.433 146.881 334.251 146.881ZM393.097 113.017L385.398 114.381C385.076 113.396 384.564 112.458 383.864 111.568C383.182 110.678 382.254 109.949 381.08 109.381C379.905 108.812 378.438 108.528 376.676 108.528C374.271 108.528 372.263 109.068 370.653 110.148C369.044 111.208 368.239 112.581 368.239 114.267C368.239 115.725 368.778 116.9 369.858 117.79C370.938 118.68 372.68 119.409 375.085 119.977L382.017 121.568C386.032 122.496 389.025 123.926 390.994 125.858C392.964 127.79 393.949 130.299 393.949 133.386C393.949 136 393.191 138.33 391.676 140.375C390.18 142.402 388.087 143.992 385.398 145.148C382.727 146.303 379.631 146.881 376.108 146.881C371.222 146.881 367.235 145.839 364.148 143.756C361.061 141.653 359.167 138.67 358.466 134.807L366.676 133.557C367.188 135.697 368.239 137.316 369.83 138.415C371.42 139.494 373.494 140.034 376.051 140.034C378.835 140.034 381.061 139.456 382.727 138.301C384.394 137.127 385.227 135.697 385.227 134.011C385.227 132.648 384.716 131.502 383.693 130.574C382.689 129.646 381.146 128.945 379.062 128.472L371.676 126.852C367.604 125.924 364.593 124.447 362.642 122.42C360.71 120.394 359.744 117.828 359.744 114.722C359.744 112.146 360.464 109.892 361.903 107.96C363.343 106.028 365.331 104.523 367.869 103.443C370.407 102.345 373.314 101.795 376.591 101.795C381.307 101.795 385.019 102.818 387.727 104.864C390.436 106.89 392.225 109.608 393.097 113.017ZM401.288 146V102.364H409.783V146H401.288ZM405.578 95.6307C404.101 95.6307 402.832 95.1383 401.771 94.1534C400.73 93.1496 400.209 91.9564 400.209 90.5739C400.209 89.1723 400.73 87.9792 401.771 86.9943C402.832 85.9905 404.101 85.4886 405.578 85.4886C407.055 85.4886 408.315 85.9905 409.357 86.9943C410.417 87.9792 410.947 89.1723 410.947 90.5739C410.947 91.9564 410.417 93.1496 409.357 94.1534C408.315 95.1383 407.055 95.6307 405.578 95.6307ZM437.506 163.273C434.04 163.273 431.057 162.818 428.557 161.909C426.076 161 424.049 159.797 422.477 158.301C420.905 156.805 419.731 155.167 418.955 153.386L426.256 150.375C426.767 151.208 427.449 152.089 428.301 153.017C429.172 153.964 430.347 154.769 431.824 155.432C433.32 156.095 435.242 156.426 437.591 156.426C440.811 156.426 443.472 155.64 445.574 154.068C447.676 152.515 448.727 150.034 448.727 146.625V138.045H448.188C447.676 138.973 446.938 140.006 445.972 141.142C445.025 142.278 443.718 143.263 442.051 144.097C440.384 144.93 438.216 145.347 435.545 145.347C432.098 145.347 428.992 144.542 426.227 142.932C423.481 141.303 421.303 138.907 419.693 135.744C418.102 132.562 417.307 128.652 417.307 124.011C417.307 119.371 418.093 115.394 419.665 112.08C421.256 108.765 423.434 106.227 426.199 104.466C428.964 102.686 432.098 101.795 435.602 101.795C438.311 101.795 440.498 102.25 442.165 103.159C443.831 104.049 445.129 105.091 446.057 106.284C447.004 107.477 447.733 108.528 448.244 109.438H448.869V102.364H457.193V146.966C457.193 150.716 456.322 153.794 454.58 156.199C452.837 158.604 450.479 160.384 447.506 161.54C444.551 162.695 441.218 163.273 437.506 163.273ZM437.42 138.301C439.864 138.301 441.928 137.733 443.614 136.597C445.318 135.441 446.606 133.794 447.477 131.653C448.367 129.494 448.812 126.909 448.812 123.898C448.812 120.962 448.377 118.377 447.506 116.142C446.634 113.907 445.356 112.165 443.67 110.915C441.985 109.646 439.902 109.011 437.42 109.011C434.864 109.011 432.733 109.674 431.028 111C429.324 112.307 428.036 114.087 427.165 116.341C426.313 118.595 425.886 121.114 425.886 123.898C425.886 126.758 426.322 129.267 427.193 131.426C428.064 133.585 429.352 135.271 431.057 136.483C432.78 137.695 434.902 138.301 437.42 138.301ZM475.08 120.091V146H466.585V102.364H474.739V109.466H475.278C476.282 107.155 477.854 105.299 479.994 103.898C482.153 102.496 484.871 101.795 488.148 101.795C491.121 101.795 493.725 102.42 495.96 103.67C498.195 104.902 499.928 106.739 501.159 109.182C502.39 111.625 503.006 114.646 503.006 118.244V146H494.511V119.267C494.511 116.104 493.688 113.633 492.04 111.852C490.392 110.053 488.129 109.153 485.25 109.153C483.28 109.153 481.528 109.58 479.994 110.432C478.479 111.284 477.277 112.534 476.386 114.182C475.515 115.811 475.08 117.78 475.08 120.091ZM260.392 239V180.818H281.131C285.657 180.818 289.407 181.642 292.381 183.29C295.354 184.937 297.58 187.191 299.057 190.051C300.534 192.892 301.273 196.093 301.273 199.653C301.273 203.233 300.525 206.453 299.028 209.312C297.551 212.153 295.316 214.407 292.324 216.074C289.35 217.722 285.61 218.545 281.102 218.545H266.841V211.102H280.307C283.167 211.102 285.487 210.61 287.267 209.625C289.047 208.621 290.354 207.258 291.188 205.534C292.021 203.811 292.438 201.85 292.438 199.653C292.438 197.456 292.021 195.506 291.188 193.801C290.354 192.097 289.038 190.761 287.239 189.795C285.458 188.83 283.11 188.347 280.193 188.347H269.17V239H260.392ZM308.882 239V195.364H317.092V202.295H317.547C318.342 199.947 319.744 198.1 321.751 196.756C323.778 195.392 326.07 194.71 328.626 194.71C329.157 194.71 329.782 194.729 330.501 194.767C331.24 194.805 331.818 194.852 332.234 194.909V203.034C331.893 202.939 331.287 202.835 330.416 202.722C329.545 202.589 328.674 202.523 327.803 202.523C325.795 202.523 324.005 202.949 322.433 203.801C320.88 204.634 319.649 205.799 318.74 207.295C317.831 208.773 317.376 210.458 317.376 212.352V239H308.882ZM354.403 239.881C350.313 239.881 346.742 238.943 343.693 237.068C340.644 235.193 338.277 232.57 336.591 229.199C334.905 225.828 334.062 221.888 334.062 217.381C334.062 212.854 334.905 208.896 336.591 205.506C338.277 202.116 340.644 199.483 343.693 197.608C346.742 195.733 350.313 194.795 354.403 194.795C358.494 194.795 362.064 195.733 365.114 197.608C368.163 199.483 370.53 202.116 372.216 205.506C373.902 208.896 374.744 212.854 374.744 217.381C374.744 221.888 373.902 225.828 372.216 229.199C370.53 232.57 368.163 235.193 365.114 237.068C362.064 238.943 358.494 239.881 354.403 239.881ZM354.432 232.75C357.083 232.75 359.28 232.049 361.023 230.648C362.765 229.246 364.053 227.381 364.886 225.051C365.739 222.722 366.165 220.155 366.165 217.352C366.165 214.568 365.739 212.011 364.886 209.682C364.053 207.333 362.765 205.449 361.023 204.028C359.28 202.608 357.083 201.898 354.432 201.898C351.761 201.898 349.545 202.608 347.784 204.028C346.042 205.449 344.744 207.333 343.892 209.682C343.059 212.011 342.642 214.568 342.642 217.352C342.642 220.155 343.059 222.722 343.892 225.051C344.744 227.381 346.042 229.246 347.784 230.648C349.545 232.049 351.761 232.75 354.432 232.75ZM400.607 239.881C396.383 239.881 392.747 238.924 389.697 237.011C386.667 235.08 384.338 232.419 382.709 229.028C381.08 225.638 380.266 221.756 380.266 217.381C380.266 212.949 381.099 209.038 382.766 205.648C384.432 202.239 386.781 199.578 389.811 197.665C392.841 195.752 396.411 194.795 400.521 194.795C403.836 194.795 406.79 195.411 409.385 196.642C411.98 197.854 414.072 199.559 415.663 201.756C417.273 203.953 418.23 206.519 418.533 209.455H410.266C409.811 207.409 408.769 205.648 407.141 204.17C405.531 202.693 403.372 201.955 400.663 201.955C398.296 201.955 396.222 202.58 394.442 203.83C392.68 205.061 391.307 206.822 390.322 209.114C389.338 211.386 388.845 214.076 388.845 217.182C388.845 220.364 389.328 223.11 390.294 225.42C391.26 227.731 392.624 229.521 394.385 230.79C396.165 232.059 398.258 232.693 400.663 232.693C402.273 232.693 403.732 232.4 405.038 231.812C406.364 231.206 407.472 230.345 408.362 229.227C409.271 228.11 409.906 226.765 410.266 225.193H418.533C418.23 228.015 417.311 230.534 415.777 232.75C414.243 234.966 412.188 236.708 409.612 237.977C407.055 239.246 404.054 239.881 400.607 239.881ZM444.423 239.881C440.124 239.881 436.421 238.962 433.315 237.125C430.228 235.269 427.842 232.665 426.156 229.312C424.49 225.941 423.656 221.992 423.656 217.466C423.656 212.996 424.49 209.057 426.156 205.648C427.842 202.239 430.19 199.578 433.202 197.665C436.232 195.752 439.774 194.795 443.827 194.795C446.289 194.795 448.675 195.203 450.986 196.017C453.296 196.831 455.37 198.11 457.207 199.852C459.045 201.595 460.493 203.858 461.554 206.642C462.615 209.407 463.145 212.769 463.145 216.727V219.739H428.457V213.375H454.821C454.821 211.14 454.366 209.161 453.457 207.438C452.548 205.695 451.27 204.322 449.622 203.318C447.993 202.314 446.08 201.812 443.884 201.812C441.497 201.812 439.414 202.4 437.634 203.574C435.872 204.729 434.509 206.244 433.543 208.119C432.596 209.975 432.122 211.992 432.122 214.17V219.142C432.122 222.059 432.634 224.54 433.656 226.585C434.698 228.631 436.147 230.193 438.003 231.273C439.859 232.333 442.027 232.864 444.509 232.864C446.118 232.864 447.586 232.636 448.912 232.182C450.238 231.708 451.384 231.008 452.349 230.08C453.315 229.152 454.054 228.006 454.565 226.642L462.605 228.091C461.961 230.458 460.806 232.532 459.139 234.312C457.491 236.074 455.418 237.447 452.918 238.432C450.437 239.398 447.605 239.881 444.423 239.881ZM503.268 206.017L495.57 207.381C495.248 206.396 494.736 205.458 494.036 204.568C493.354 203.678 492.426 202.949 491.251 202.381C490.077 201.812 488.609 201.528 486.848 201.528C484.443 201.528 482.435 202.068 480.825 203.148C479.215 204.208 478.411 205.581 478.411 207.267C478.411 208.725 478.95 209.9 480.03 210.79C481.109 211.68 482.852 212.409 485.257 212.977L492.189 214.568C496.204 215.496 499.196 216.926 501.166 218.858C503.136 220.79 504.121 223.299 504.121 226.386C504.121 229 503.363 231.33 501.848 233.375C500.352 235.402 498.259 236.992 495.57 238.148C492.899 239.303 489.803 239.881 486.28 239.881C481.393 239.881 477.407 238.839 474.32 236.756C471.232 234.653 469.339 231.67 468.638 227.807L476.848 226.557C477.359 228.697 478.411 230.316 480.001 231.415C481.592 232.494 483.666 233.034 486.223 233.034C489.007 233.034 491.232 232.456 492.899 231.301C494.566 230.127 495.399 228.697 495.399 227.011C495.399 225.648 494.888 224.502 493.865 223.574C492.861 222.646 491.318 221.945 489.234 221.472L481.848 219.852C477.776 218.924 474.765 217.447 472.814 215.42C470.882 213.394 469.916 210.828 469.916 207.722C469.916 205.146 470.636 202.892 472.075 200.96C473.515 199.028 475.503 197.523 478.041 196.443C480.579 195.345 483.486 194.795 486.763 194.795C491.479 194.795 495.191 195.818 497.899 197.864C500.607 199.89 502.397 202.608 503.268 206.017ZM544.159 206.017L536.46 207.381C536.138 206.396 535.627 205.458 534.926 204.568C534.244 203.678 533.316 202.949 532.142 202.381C530.968 201.812 529.5 201.528 527.739 201.528C525.333 201.528 523.326 202.068 521.716 203.148C520.106 204.208 519.301 205.581 519.301 207.267C519.301 208.725 519.841 209.9 520.92 210.79C522 211.68 523.742 212.409 526.148 212.977L533.08 214.568C537.095 215.496 540.087 216.926 542.057 218.858C544.027 220.79 545.011 223.299 545.011 226.386C545.011 229 544.254 231.33 542.739 233.375C541.242 235.402 539.15 236.992 536.46 238.148C533.79 239.303 530.693 239.881 527.17 239.881C522.284 239.881 518.297 238.839 515.21 236.756C512.123 234.653 510.229 231.67 509.528 227.807L517.739 226.557C518.25 228.697 519.301 230.316 520.892 231.415C522.483 232.494 524.557 233.034 527.114 233.034C529.898 233.034 532.123 232.456 533.79 231.301C535.456 230.127 536.29 228.697 536.29 227.011C536.29 225.648 535.778 224.502 534.756 223.574C533.752 222.646 532.208 221.945 530.125 221.472L522.739 219.852C518.667 218.924 515.655 217.447 513.705 215.42C511.773 213.394 510.807 210.828 510.807 207.722C510.807 205.146 511.527 202.892 512.966 200.96C514.405 199.028 516.394 197.523 518.932 196.443C521.47 195.345 524.377 194.795 527.653 194.795C532.369 194.795 536.081 195.818 538.79 197.864C541.498 199.89 543.288 202.608 544.159 206.017Z" fill="white"/>
</svg>
