<svg width="30" height="30" viewBox="0 0 30 30" fill="none" xmlns="http://www.w3.org/2000/svg">
<g clip-path="url(#clip0_34_4981)">
<path fill-rule="evenodd" clip-rule="evenodd" d="M15 0C23.2846 0 30 6.71543 30 15C30 23.2846 23.2846 30 15 30C6.71543 30 0 23.2846 0 15C0 6.71543 6.71543 0 15 0Z" fill="url(#paint0_linear_34_4981)"/>
<path fill-rule="evenodd" clip-rule="evenodd" d="M17.2804 14.482C17.0806 14.0209 16.8726 13.5609 16.6511 13.1056C18.5437 12.2859 20.0648 11.1726 21.198 9.76108C22.3037 11.0671 22.9974 12.7259 23.1 14.5423C20.99 14.1966 19.0494 14.1773 17.2804 14.482ZM19.5087 21.7517C19.1496 19.824 18.6234 17.9396 17.9355 16.1009C19.4724 15.8835 21.164 15.9398 23.0144 16.2615C22.657 18.5449 21.3539 20.5166 19.5087 21.7517ZM10.0148 21.4001C11.6285 18.8689 13.688 17.2218 16.2404 16.4613C17.0003 18.4441 17.5593 20.4843 17.915 22.5738C15.256 23.6015 12.2689 23.1597 10.0148 21.4001ZM6.88823 14.7908C10.0412 14.7861 12.7617 14.424 15.0404 13.7068C15.2314 14.0958 15.4142 14.4867 15.5894 14.8804C12.8208 15.7453 10.5386 17.5195 8.75854 20.1902C7.4771 18.6521 6.8396 16.7871 6.88823 14.7908ZM11.3355 7.76011C12.4265 9.18804 13.3927 10.6599 14.2335 12.1699C12.2414 12.7564 9.86538 13.0576 7.11675 13.0763C7.68452 10.7531 9.24897 8.82124 11.3355 7.76011ZM19.9517 8.57515C18.965 9.84839 17.6021 10.855 15.8654 11.5904C15.0333 10.0658 14.0824 8.57866 13.0078 7.13491C15.4406 6.51499 17.956 7.03413 19.9517 8.57515ZM15 5.16675C9.56948 5.16675 5.16675 9.56948 5.16675 15C5.16675 20.4304 9.56948 24.8332 15 24.8332C20.4304 24.8332 24.8332 20.4304 24.8332 15C24.8332 9.56948 20.4304 5.16675 15 5.16675Z" fill="white"/>
</g>
<defs>
<linearGradient id="paint0_linear_34_4981" x1="3.97441" y1="4.8293" x2="27.7846" y2="22.8504" gradientUnits="userSpaceOnUse">
<stop stop-color="#D31F61"/>
<stop offset="1" stop-color="#E9568C"/>
</linearGradient>
<clipPath id="clip0_34_4981">
<rect width="30" height="30" fill="white"/>
</clipPath>
</defs>
</svg>
