<svg width="511" height="179" viewBox="0 0 511 179" fill="none" xmlns="http://www.w3.org/2000/svg">
<rect y="100" width="139" height="19" fill="#FFE605"/>
<path d="M10.4815 13.6364V50H4.99503V13.6364H10.4815ZM21.8587 13.6364V17.0455C21.8587 18.0516 21.6693 19.111 21.2905 20.2237C20.9235 21.3246 20.4027 22.384 19.728 23.402C19.0533 24.42 18.2602 25.2959 17.3487 26.0298L14.7209 24.1477C15.4193 23.1297 16.023 22.0466 16.532 20.8984C17.0528 19.7502 17.3132 18.4837 17.3132 17.0987V13.6364H21.8587ZM25.4322 50V22.7273H30.5281V27.1662H30.8654C31.4336 25.6629 32.3628 24.491 33.6531 23.6506C34.9433 22.7983 36.488 22.3722 38.2873 22.3722C40.1102 22.3722 41.6372 22.7983 42.8683 23.6506C44.1112 24.5028 45.0285 25.6747 45.6204 27.1662H45.9045C46.5555 25.7102 47.5913 24.5502 49.0117 23.6861C50.4322 22.8101 52.1249 22.3722 54.0898 22.3722C56.5638 22.3722 58.582 23.1475 60.1445 24.6982C61.7189 26.2488 62.506 28.5866 62.506 31.7116V50H57.1971V32.2088C57.1971 30.3622 56.694 29.0246 55.6879 28.196C54.6817 27.3674 53.4802 26.9531 52.0835 26.9531C50.3552 26.9531 49.0117 27.4858 48.0529 28.5511C47.0941 29.6046 46.6147 30.96 46.6147 32.6172V50H41.3235V31.8714C41.3235 30.3918 40.8619 29.2022 39.9386 28.3026C39.0153 27.4029 37.8138 26.9531 36.3342 26.9531C35.328 26.9531 34.3988 27.2195 33.5465 27.7521C32.7061 28.273 32.0255 29.0009 31.5046 29.9361C30.9956 30.8712 30.7411 31.9543 30.7411 33.1854V50H25.4322ZM111.13 13.6364V50H106.088L87.604 23.331H87.2667V50H81.7802V13.6364H86.8583L105.36 40.3409H105.697V13.6364H111.13ZM117.958 50V22.7273H123.267V50H117.958ZM120.639 18.5192C119.715 18.5192 118.922 18.2114 118.259 17.5959C117.608 16.9685 117.283 16.2228 117.283 15.3587C117.283 14.4827 117.608 13.737 118.259 13.1214C118.922 12.4941 119.715 12.1804 120.639 12.1804C121.562 12.1804 122.349 12.4941 123 13.1214C123.663 13.737 123.994 14.4827 123.994 15.3587C123.994 16.2228 123.663 16.9685 123 17.5959C122.349 18.2114 121.562 18.5192 120.639 18.5192ZM129.091 50V46.3601L143.863 27.5923V27.3438H129.57V22.7273H150.486V26.598L136.282 45.1349V45.3835H150.983V50H129.091ZM161.806 33.8068V50H156.497V13.6364H161.735V27.1662H162.072C162.711 25.6984 163.688 24.5324 165.002 23.6683C166.316 22.8042 168.032 22.3722 170.151 22.3722C172.021 22.3722 173.655 22.7569 175.051 23.5263C176.46 24.2957 177.549 25.4439 178.318 26.9709C179.1 28.486 179.49 30.38 179.49 32.6527V50H174.181V33.2919C174.181 31.2914 173.666 29.7408 172.637 28.6399C171.607 27.5272 170.174 26.9709 168.34 26.9709C167.085 26.9709 165.96 27.2372 164.966 27.7699C163.984 28.3026 163.208 29.0838 162.64 30.1136C162.084 31.1316 161.806 32.3627 161.806 33.8068ZM193.762 50.6037C192.033 50.6037 190.471 50.2841 189.074 49.6449C187.677 48.9938 186.57 48.0528 185.754 46.8217C184.949 45.5907 184.546 44.0814 184.546 42.294C184.546 40.7552 184.842 39.4886 185.434 38.4943C186.026 37.5 186.825 36.7128 187.831 36.1328C188.837 35.5528 189.962 35.1148 191.205 34.8189C192.448 34.523 193.714 34.2981 195.004 34.1442C196.638 33.9548 197.964 33.8009 198.982 33.6825C200 33.5523 200.74 33.3452 201.201 33.0611C201.663 32.777 201.894 32.3153 201.894 31.6761V31.5518C201.894 30.0012 201.456 28.7997 200.58 27.9474C199.716 27.0952 198.425 26.669 196.709 26.669C194.922 26.669 193.513 27.0656 192.483 27.8587C191.465 28.6399 190.761 29.5099 190.37 30.4688L185.381 29.3324C185.973 27.6752 186.837 26.3376 187.973 25.3196C189.121 24.2898 190.441 23.544 191.933 23.0824C193.424 22.6089 194.993 22.3722 196.638 22.3722C197.727 22.3722 198.881 22.5024 200.1 22.7628C201.331 23.0114 202.48 23.473 203.545 24.1477C204.622 24.8224 205.504 25.7872 206.191 27.0419C206.877 28.2848 207.22 29.9006 207.22 31.8892V50H202.036V46.2713H201.823C201.479 46.9579 200.964 47.6326 200.278 48.2955C199.591 48.9583 198.709 49.5088 197.632 49.9467C196.555 50.3847 195.265 50.6037 193.762 50.6037ZM194.916 46.3423C196.383 46.3423 197.638 46.0523 198.68 45.4723C199.733 44.8923 200.532 44.1347 201.077 43.1996C201.633 42.2526 201.911 41.2405 201.911 40.1634V36.6477C201.722 36.8371 201.355 37.0147 200.811 37.1804C200.278 37.3343 199.668 37.4704 198.982 37.5888C198.295 37.6953 197.626 37.7959 196.975 37.8906C196.324 37.9735 195.78 38.0445 195.342 38.1037C194.312 38.2339 193.371 38.4529 192.519 38.7607C191.678 39.0684 191.003 39.5123 190.494 40.0923C189.997 40.6605 189.749 41.4181 189.749 42.3651C189.749 43.679 190.234 44.6733 191.205 45.348C192.175 46.0109 193.412 46.3423 194.916 46.3423ZM213.542 50V22.7273H218.673V27.0597H218.957C219.454 25.5919 220.33 24.4377 221.585 23.5973C222.851 22.745 224.284 22.3189 225.882 22.3189C226.213 22.3189 226.604 22.3307 227.054 22.3544C227.515 22.3781 227.876 22.4077 228.137 22.4432V27.5213C227.924 27.4621 227.545 27.397 227 27.326C226.456 27.2431 225.911 27.2017 225.367 27.2017C224.112 27.2017 222.993 27.468 222.011 28.0007C221.04 28.5215 220.271 29.2495 219.703 30.1847C219.135 31.108 218.85 32.1615 218.85 33.3452V50H213.542ZM247.961 50H242.137L255.223 13.6364H261.562L274.648 50H268.824L258.544 20.2415H258.26L247.961 50ZM248.938 35.7599H267.83V40.3764H248.938V35.7599ZM284.032 33.8068V50H278.723V13.6364H283.961V27.1662H284.298C284.938 25.6984 285.914 24.5324 287.228 23.6683C288.542 22.8042 290.258 22.3722 292.377 22.3722C294.248 22.3722 295.881 22.7569 297.278 23.5263C298.686 24.2957 299.776 25.4439 300.545 26.9709C301.326 28.486 301.717 30.38 301.717 32.6527V50H296.408V33.2919C296.408 31.2914 295.893 29.7408 294.863 28.6399C293.833 27.5272 292.401 26.9709 290.566 26.9709C289.311 26.9709 288.187 27.2372 287.193 27.7699C286.21 28.3026 285.435 29.0838 284.867 30.1136C284.31 31.1316 284.032 32.3627 284.032 33.8068ZM315.988 50.6037C314.26 50.6037 312.697 50.2841 311.301 49.6449C309.904 48.9938 308.797 48.0528 307.98 46.8217C307.175 45.5907 306.773 44.0814 306.773 42.294C306.773 40.7552 307.069 39.4886 307.661 38.4943C308.253 37.5 309.052 36.7128 310.058 36.1328C311.064 35.5528 312.188 35.1148 313.431 34.8189C314.674 34.523 315.941 34.2981 317.231 34.1442C318.865 33.9548 320.19 33.8009 321.208 33.6825C322.226 33.5523 322.966 33.3452 323.428 33.0611C323.889 32.777 324.12 32.3153 324.12 31.6761V31.5518C324.12 30.0012 323.682 28.7997 322.806 27.9474C321.942 27.0952 320.652 26.669 318.936 26.669C317.148 26.669 315.74 27.0656 314.71 27.8587C313.692 28.6399 312.987 29.5099 312.597 30.4688L307.607 29.3324C308.199 27.6752 309.063 26.3376 310.2 25.3196C311.348 24.2898 312.668 23.544 314.159 23.0824C315.651 22.6089 317.219 22.3722 318.865 22.3722C319.954 22.3722 321.108 22.5024 322.327 22.7628C323.558 23.0114 324.706 23.473 325.771 24.1477C326.849 24.8224 327.731 25.7872 328.417 27.0419C329.104 28.2848 329.447 29.9006 329.447 31.8892V50H324.262V46.2713H324.049C323.706 46.9579 323.191 47.6326 322.504 48.2955C321.818 48.9583 320.936 49.5088 319.859 49.9467C318.782 50.3847 317.491 50.6037 315.988 50.6037ZM317.142 46.3423C318.61 46.3423 319.865 46.0523 320.906 45.4723C321.96 44.8923 322.759 44.1347 323.303 43.1996C323.86 42.2526 324.138 41.2405 324.138 40.1634V36.6477C323.949 36.8371 323.582 37.0147 323.037 37.1804C322.504 37.3343 321.895 37.4704 321.208 37.5888C320.522 37.6953 319.853 37.7959 319.202 37.8906C318.551 37.9735 318.006 38.0445 317.568 38.1037C316.539 38.2339 315.597 38.4529 314.745 38.7607C313.905 39.0684 313.23 39.5123 312.721 40.0923C312.224 40.6605 311.975 41.4181 311.975 42.3651C311.975 43.679 312.461 44.6733 313.431 45.348C314.402 46.0109 315.639 46.3423 317.142 46.3423ZM335.768 50V22.7273H340.864V27.1662H341.201C341.77 25.6629 342.699 24.491 343.989 23.6506C345.279 22.7983 346.824 22.3722 348.623 22.3722C350.446 22.3722 351.973 22.7983 353.204 23.6506C354.447 24.5028 355.364 25.6747 355.956 27.1662H356.24C356.891 25.7102 357.927 24.5502 359.348 23.6861C360.768 22.8101 362.461 22.3722 364.426 22.3722C366.9 22.3722 368.918 23.1475 370.48 24.6982C372.055 26.2488 372.842 28.5866 372.842 31.7116V50H367.533V32.2088C367.533 30.3622 367.03 29.0246 366.024 28.196C365.018 27.3674 363.816 26.9531 362.419 26.9531C360.691 26.9531 359.348 27.4858 358.389 28.5511C357.43 29.6046 356.951 30.96 356.951 32.6172V50H351.659V31.8714C351.659 30.3918 351.198 29.2022 350.275 28.3026C349.351 27.4029 348.15 26.9531 346.67 26.9531C345.664 26.9531 344.735 27.2195 343.882 27.7521C343.042 28.273 342.361 29.0009 341.841 29.9361C341.332 30.8712 341.077 31.9543 341.077 33.1854V50H335.768ZM390.962 50.5504C388.275 50.5504 385.961 49.9763 384.019 48.8281C382.09 47.6681 380.598 46.0405 379.545 43.9453C378.503 41.8383 377.982 39.3703 377.982 36.5412C377.982 33.7476 378.503 31.2855 379.545 29.1548C380.598 27.0241 382.066 25.361 383.948 24.1655C385.842 22.9699 388.056 22.3722 390.589 22.3722C392.128 22.3722 393.619 22.6267 395.063 23.1357C396.508 23.6446 397.804 24.4437 398.952 25.5327C400.1 26.6217 401.006 28.0362 401.669 29.7763C402.331 31.5045 402.663 33.6056 402.663 36.0795V37.9616H380.983V33.9844H397.46C397.46 32.5876 397.176 31.3506 396.608 30.2734C396.04 29.1844 395.241 28.3262 394.211 27.6989C393.193 27.0715 391.998 26.7578 390.624 26.7578C389.133 26.7578 387.831 27.1248 386.718 27.8587C385.617 28.5807 384.765 29.5277 384.161 30.6996C383.57 31.8596 383.274 33.1203 383.274 34.4815V37.5888C383.274 39.4117 383.593 40.9624 384.232 42.2408C384.883 43.5192 385.789 44.4957 386.949 45.1705C388.109 45.8333 389.464 46.1648 391.015 46.1648C392.021 46.1648 392.939 46.0227 393.767 45.7386C394.596 45.4427 395.312 45.0047 395.916 44.4247C396.519 43.8447 396.981 43.1286 397.301 42.2763L402.325 43.1818C401.923 44.6615 401.201 45.9576 400.159 47.0703C399.129 48.1712 397.833 49.0294 396.271 49.6449C394.72 50.2486 392.95 50.5504 390.962 50.5504ZM418.013 50.5327C415.811 50.5327 413.846 49.9704 412.118 48.8459C410.402 47.7095 409.052 46.0937 408.07 43.9986C407.099 41.8916 406.614 39.3643 406.614 36.4169C406.614 33.4695 407.105 30.9482 408.087 28.853C409.082 26.7578 410.443 25.1539 412.171 24.0412C413.899 22.9285 415.858 22.3722 418.048 22.3722C419.741 22.3722 421.102 22.6562 422.132 23.2244C423.174 23.7808 423.979 24.4318 424.547 25.1776C425.127 25.9233 425.577 26.5803 425.896 27.1484H426.216V13.6364H431.525V50H426.34V45.7564H425.896C425.577 46.3364 425.115 46.9993 424.511 47.745C423.92 48.4908 423.103 49.1418 422.061 49.6982C421.019 50.2545 419.67 50.5327 418.013 50.5327ZM419.185 46.005C420.712 46.005 422.002 45.6025 423.055 44.7976C424.121 43.9808 424.926 42.8504 425.47 41.4062C426.027 39.9621 426.305 38.2812 426.305 36.3636C426.305 34.4697 426.032 32.8125 425.488 31.392C424.943 29.9716 424.144 28.8648 423.091 28.0717C422.037 27.2786 420.735 26.8821 419.185 26.8821C417.587 26.8821 416.255 27.2964 415.19 28.125C414.124 28.9536 413.319 30.084 412.775 31.5163C412.242 32.9486 411.976 34.5644 411.976 36.3636C411.976 38.1866 412.248 39.826 412.793 41.282C413.337 42.7379 414.142 43.892 415.207 44.7443C416.285 45.5848 417.61 46.005 419.185 46.005ZM28.3793 77.6364H33.8835V101.553C33.8835 104.098 33.2857 106.353 32.0902 108.318C30.8946 110.271 29.2138 111.81 27.0476 112.935C24.8814 114.047 22.3423 114.604 19.4304 114.604C16.5303 114.604 13.9972 114.047 11.831 112.935C9.66477 111.81 7.9839 110.271 6.78835 108.318C5.5928 106.353 4.99503 104.098 4.99503 101.553V77.6364H10.4815V101.109C10.4815 102.755 10.8426 104.217 11.5646 105.495C12.2985 106.773 13.3343 107.78 14.6719 108.513C16.0095 109.236 17.5956 109.597 19.4304 109.597C21.277 109.597 22.8691 109.236 24.2067 108.513C25.5561 107.78 26.5859 106.773 27.2962 105.495C28.0182 104.217 28.3793 102.755 28.3793 101.109V77.6364ZM46.5968 77.6364V114H41.1103V77.6364H46.5968ZM67.2601 75.9318L55.5414 119.469H50.8006L62.5194 75.9318H67.2601ZM94.8304 77.6364H100.335V101.553C100.335 104.098 99.7369 106.353 98.5414 108.318C97.3458 110.271 95.665 111.81 93.4988 112.935C91.3326 114.047 88.7935 114.604 85.8816 114.604C82.9815 114.604 80.4483 114.047 78.2821 112.935C76.1159 111.81 74.4351 110.271 73.2395 108.318C72.044 106.353 71.4462 104.098 71.4462 101.553V77.6364H76.9327V101.109C76.9327 102.755 77.2937 104.217 78.0158 105.495C78.7497 106.773 79.7855 107.78 81.123 108.513C82.4606 109.236 84.0468 109.597 85.8816 109.597C87.7282 109.597 89.3203 109.236 90.6578 108.513C92.0073 107.78 93.0371 106.773 93.7473 105.495C94.4694 104.217 94.8304 102.755 94.8304 101.109V77.6364ZM111.379 77.6364L120.079 91.8587H120.363L129.064 77.6364H135.42L124.092 95.8182L135.491 114H129.099L120.363 99.973H120.079L111.343 114H104.951L116.546 95.8182L105.022 77.6364H111.379ZM155.773 77.6364L165.894 107.253H166.302L176.423 77.6364H182.353L169.267 114H162.928L149.843 77.6364H155.773ZM186.428 114V86.7273H191.737V114H186.428ZM189.109 82.5192C188.186 82.5192 187.393 82.2114 186.73 81.5959C186.079 80.9685 185.754 80.2228 185.754 79.3587C185.754 78.4827 186.079 77.737 186.73 77.1214C187.393 76.4941 188.186 76.1804 189.109 76.1804C190.033 76.1804 190.82 76.4941 191.471 77.1214C192.134 77.737 192.465 78.4827 192.465 79.3587C192.465 80.2228 192.134 80.9685 191.471 81.5959C190.82 82.2114 190.033 82.5192 189.109 82.5192ZM218.566 93.3857L213.754 94.2379C213.553 93.6224 213.234 93.0365 212.796 92.4801C212.369 91.9238 211.789 91.468 211.056 91.1129C210.322 90.7578 209.404 90.5803 208.303 90.5803C206.8 90.5803 205.545 90.9176 204.539 91.5923C203.533 92.2552 203.03 93.1134 203.03 94.1669C203.03 95.0784 203.367 95.8123 204.042 96.3686C204.717 96.925 205.806 97.3807 207.309 97.7358L211.642 98.7301C214.151 99.3101 216.021 100.204 217.252 101.411C218.483 102.619 219.099 104.187 219.099 106.116C219.099 107.75 218.625 109.206 217.678 110.484C216.743 111.751 215.435 112.745 213.754 113.467C212.085 114.189 210.15 114.55 207.948 114.55C204.894 114.55 202.403 113.899 200.473 112.597C198.544 111.283 197.36 109.419 196.922 107.004L202.053 106.223C202.373 107.561 203.03 108.573 204.024 109.259C205.019 109.934 206.315 110.271 207.913 110.271C209.653 110.271 211.044 109.91 212.085 109.188C213.127 108.454 213.648 107.561 213.648 106.507C213.648 105.655 213.328 104.939 212.689 104.359C212.062 103.779 211.097 103.341 209.795 103.045L205.178 102.033C202.633 101.453 200.751 100.529 199.532 99.2628C198.325 97.9962 197.721 96.3923 197.721 94.451C197.721 92.8411 198.171 91.4325 199.07 90.2251C199.97 89.0178 201.213 88.0767 202.799 87.402C204.385 86.7154 206.202 86.3722 208.25 86.3722C211.198 86.3722 213.518 87.0114 215.21 88.2898C216.903 89.5563 218.022 91.255 218.566 93.3857ZM241.462 102.69V86.7273H246.789V114H241.569V109.277H241.285C240.657 110.733 239.651 111.946 238.266 112.917C236.893 113.876 235.183 114.355 233.135 114.355C231.383 114.355 229.832 113.97 228.483 113.201C227.145 112.42 226.092 111.266 225.322 109.739C224.565 108.212 224.186 106.324 224.186 104.075V86.7273H229.495V103.435C229.495 105.294 230.01 106.773 231.04 107.874C232.07 108.975 233.407 109.526 235.053 109.526C236.047 109.526 237.035 109.277 238.018 108.78C239.012 108.283 239.835 107.531 240.486 106.525C241.149 105.519 241.474 104.24 241.462 102.69ZM261.109 114.604C259.381 114.604 257.818 114.284 256.422 113.645C255.025 112.994 253.918 112.053 253.101 110.822C252.296 109.591 251.894 108.081 251.894 106.294C251.894 104.755 252.19 103.489 252.782 102.494C253.374 101.5 254.173 100.713 255.179 100.133C256.185 99.5528 257.309 99.1148 258.552 98.8189C259.795 98.523 261.062 98.2981 262.352 98.1442C263.986 97.9548 265.311 97.8009 266.329 97.6825C267.347 97.5523 268.087 97.3452 268.549 97.0611C269.01 96.777 269.241 96.3153 269.241 95.6761V95.5518C269.241 94.0012 268.803 92.7997 267.927 91.9474C267.063 91.0952 265.773 90.669 264.057 90.669C262.269 90.669 260.861 91.0656 259.831 91.8587C258.813 92.6399 258.108 93.5099 257.718 94.4688L252.729 93.3324C253.32 91.6752 254.184 90.3376 255.321 89.3196C256.469 88.2898 257.789 87.544 259.28 87.0824C260.772 86.6089 262.34 86.3722 263.986 86.3722C265.075 86.3722 266.229 86.5024 267.448 86.7628C268.679 87.0114 269.827 87.473 270.893 88.1477C271.97 88.8224 272.852 89.7872 273.538 91.0419C274.225 92.2848 274.568 93.9006 274.568 95.8892V114H269.383V110.271H269.17C268.827 110.958 268.312 111.633 267.626 112.295C266.939 112.958 266.057 113.509 264.98 113.947C263.903 114.385 262.613 114.604 261.109 114.604ZM262.263 110.342C263.731 110.342 264.986 110.052 266.028 109.472C267.081 108.892 267.88 108.135 268.425 107.2C268.981 106.253 269.259 105.241 269.259 104.163V100.648C269.07 100.837 268.703 101.015 268.158 101.18C267.626 101.334 267.016 101.47 266.329 101.589C265.643 101.695 264.974 101.796 264.323 101.891C263.672 101.973 263.127 102.045 262.689 102.104C261.66 102.234 260.719 102.453 259.866 102.761C259.026 103.068 258.351 103.512 257.842 104.092C257.345 104.661 257.096 105.418 257.096 106.365C257.096 107.679 257.582 108.673 258.552 109.348C259.523 110.011 260.76 110.342 262.263 110.342ZM286.198 77.6364V114H280.889V77.6364H286.198ZM317.271 114H305.499V77.6364H317.644C321.207 77.6364 324.267 78.3643 326.824 79.8203C329.38 81.2644 331.339 83.3419 332.701 86.0526C334.074 88.7514 334.76 91.9889 334.76 95.7649C334.76 99.5528 334.068 102.808 332.683 105.531C331.31 108.253 329.321 110.348 326.717 111.816C324.113 113.272 320.964 114 317.271 114ZM310.985 109.206H316.969C319.739 109.206 322.041 108.685 323.876 107.643C325.711 106.59 327.084 105.069 327.995 103.08C328.907 101.08 329.363 98.6413 329.363 95.7649C329.363 92.9122 328.907 90.4915 327.995 88.5028C327.096 86.5142 325.752 85.005 323.965 83.9751C322.177 82.9453 319.958 82.4304 317.306 82.4304H310.985V109.206ZM352.161 114.55C349.474 114.55 347.16 113.976 345.219 112.828C343.289 111.668 341.798 110.04 340.744 107.945C339.702 105.838 339.182 103.37 339.182 100.541C339.182 97.7476 339.702 95.2855 340.744 93.1548C341.798 91.0241 343.265 89.361 345.148 88.1655C347.041 86.9699 349.255 86.3722 351.788 86.3722C353.327 86.3722 354.818 86.6267 356.263 87.1357C357.707 87.6446 359.003 88.4437 360.151 89.5327C361.299 90.6217 362.205 92.0362 362.868 93.7763C363.531 95.5045 363.862 97.6056 363.862 100.08V101.962H342.182V97.9844H358.66C358.66 96.5876 358.376 95.3506 357.807 94.2734C357.239 93.1844 356.44 92.3262 355.41 91.6989C354.392 91.0715 353.197 90.7578 351.824 90.7578C350.332 90.7578 349.03 91.1248 347.917 91.8587C346.817 92.5807 345.964 93.5277 345.361 94.6996C344.769 95.8596 344.473 97.1203 344.473 98.4815V101.589C344.473 103.412 344.792 104.962 345.432 106.241C346.083 107.519 346.988 108.496 348.148 109.17C349.308 109.833 350.664 110.165 352.214 110.165C353.22 110.165 354.138 110.023 354.966 109.739C355.795 109.443 356.511 109.005 357.115 108.425C357.719 107.845 358.18 107.129 358.5 106.276L363.525 107.182C363.122 108.661 362.4 109.958 361.358 111.07C360.329 112.171 359.032 113.029 357.47 113.645C355.919 114.249 354.15 114.55 352.161 114.55ZM389.439 93.3857L384.627 94.2379C384.426 93.6224 384.107 93.0365 383.669 92.4801C383.243 91.9238 382.663 91.468 381.929 91.1129C381.195 90.7578 380.277 90.5803 379.176 90.5803C377.673 90.5803 376.418 90.9176 375.412 91.5923C374.406 92.2552 373.903 93.1134 373.903 94.1669C373.903 95.0784 374.24 95.8123 374.915 96.3686C375.59 96.925 376.679 97.3807 378.182 97.7358L382.515 98.7301C385.024 99.3101 386.894 100.204 388.125 101.411C389.356 102.619 389.972 104.187 389.972 106.116C389.972 107.75 389.498 109.206 388.551 110.484C387.616 111.751 386.308 112.745 384.627 113.467C382.958 114.189 381.023 114.55 378.821 114.55C375.767 114.55 373.276 113.899 371.346 112.597C369.417 111.283 368.233 109.419 367.795 107.004L372.926 106.223C373.246 107.561 373.903 108.573 374.897 109.259C375.892 109.934 377.188 110.271 378.786 110.271C380.526 110.271 381.917 109.91 382.958 109.188C384 108.454 384.521 107.561 384.521 106.507C384.521 105.655 384.201 104.939 383.562 104.359C382.935 103.779 381.97 103.341 380.668 103.045L376.051 102.033C373.507 101.453 371.624 100.529 370.405 99.2628C369.198 97.9962 368.594 96.3923 368.594 94.451C368.594 92.8411 369.044 91.4325 369.944 90.2251C370.843 89.0178 372.086 88.0767 373.672 87.402C375.258 86.7154 377.075 86.3722 379.123 86.3722C382.071 86.3722 384.391 87.0114 386.083 88.2898C387.776 89.5563 388.895 91.255 389.439 93.3857ZM395.059 114V86.7273H400.368V114H395.059ZM397.74 82.5192C396.817 82.5192 396.024 82.2114 395.361 81.5959C394.71 80.9685 394.384 80.2228 394.384 79.3587C394.384 78.4827 394.71 77.737 395.361 77.1214C396.024 76.4941 396.817 76.1804 397.74 76.1804C398.664 76.1804 399.451 76.4941 400.102 77.1214C400.765 77.737 401.096 78.4827 401.096 79.3587C401.096 80.2228 400.765 80.9685 400.102 81.5959C399.451 82.2114 398.664 82.5192 397.74 82.5192ZM418.195 124.795C416.029 124.795 414.164 124.511 412.602 123.943C411.051 123.375 409.785 122.623 408.802 121.688C407.82 120.753 407.086 119.729 406.6 118.616L411.164 116.734C411.483 117.255 411.909 117.806 412.442 118.386C412.987 118.978 413.721 119.481 414.644 119.895C415.579 120.309 416.78 120.516 418.248 120.516C420.261 120.516 421.924 120.025 423.238 119.043C424.551 118.072 425.208 116.521 425.208 114.391V109.028H424.871C424.551 109.608 424.09 110.254 423.486 110.964C422.894 111.674 422.078 112.29 421.036 112.81C419.994 113.331 418.639 113.592 416.97 113.592C414.815 113.592 412.874 113.089 411.146 112.082C409.43 111.064 408.068 109.567 407.062 107.59C406.068 105.602 405.571 103.157 405.571 100.257C405.571 97.357 406.062 94.8712 407.044 92.7997C408.039 90.7282 409.4 89.142 411.128 88.0412C412.856 86.9285 414.815 86.3722 417.005 86.3722C418.698 86.3722 420.065 86.6562 421.107 87.2244C422.149 87.7808 422.959 88.4318 423.539 89.1776C424.131 89.9233 424.587 90.5803 424.907 91.1484H425.297V86.7273H430.5V114.604C430.5 116.947 429.955 118.871 428.866 120.374C427.777 121.878 426.303 122.99 424.445 123.712C422.598 124.434 420.515 124.795 418.195 124.795ZM418.142 109.188C419.669 109.188 420.959 108.833 422.012 108.123C423.078 107.401 423.883 106.371 424.427 105.033C424.984 103.684 425.262 102.068 425.262 100.186C425.262 98.3513 424.989 96.7356 424.445 95.3388C423.9 93.942 423.101 92.853 422.048 92.0717C420.994 91.2786 419.692 90.8821 418.142 90.8821C416.544 90.8821 415.212 91.2964 414.147 92.125C413.081 92.9418 412.276 94.0544 411.732 95.4631C411.199 96.8717 410.933 98.446 410.933 100.186C410.933 101.973 411.205 103.542 411.75 104.891C412.294 106.241 413.099 107.294 414.164 108.052C415.242 108.809 416.567 109.188 418.142 109.188ZM442.179 97.8068V114H436.87V86.7273H441.966V91.1662H442.303C442.93 89.7221 443.913 88.562 445.25 87.6861C446.6 86.8101 448.298 86.3722 450.346 86.3722C452.205 86.3722 453.832 86.7628 455.229 87.544C456.626 88.3134 457.709 89.4616 458.478 90.9886C459.248 92.5156 459.632 94.4036 459.632 96.6527V114H454.324V97.2919C454.324 95.3151 453.809 93.7704 452.779 92.6577C451.749 91.5331 450.334 90.9709 448.535 90.9709C447.304 90.9709 446.209 91.2372 445.25 91.7699C444.303 92.3026 443.552 93.0838 442.995 94.1136C442.451 95.1316 442.179 96.3627 442.179 97.8068ZM477.757 114.55C475.07 114.55 472.756 113.976 470.814 112.828C468.885 111.668 467.393 110.04 466.34 107.945C465.298 105.838 464.777 103.37 464.777 100.541C464.777 97.7476 465.298 95.2855 466.34 93.1548C467.393 91.0241 468.861 89.361 470.743 88.1655C472.637 86.9699 474.851 86.3722 477.384 86.3722C478.923 86.3722 480.414 86.6267 481.858 87.1357C483.302 87.6446 484.599 88.4437 485.747 89.5327C486.895 90.6217 487.801 92.0362 488.463 93.7763C489.126 95.5045 489.458 97.6056 489.458 100.08V101.962H467.778V97.9844H484.255C484.255 96.5876 483.971 95.3506 483.403 94.2734C482.835 93.1844 482.036 92.3262 481.006 91.6989C479.988 91.0715 478.792 90.7578 477.419 90.7578C475.928 90.7578 474.626 91.1248 473.513 91.8587C472.412 92.5807 471.56 93.5277 470.956 94.6996C470.364 95.8596 470.069 97.1203 470.069 98.4815V101.589C470.069 103.412 470.388 104.962 471.027 106.241C471.678 107.519 472.584 108.496 473.744 109.17C474.904 109.833 476.259 110.165 477.81 110.165C478.816 110.165 479.734 110.023 480.562 109.739C481.391 109.443 482.107 109.005 482.711 108.425C483.314 107.845 483.776 107.129 484.096 106.276L489.12 107.182C488.718 108.661 487.996 109.958 486.954 111.07C485.924 112.171 484.628 113.029 483.066 113.645C481.515 114.249 479.745 114.55 477.757 114.55ZM494.598 114V86.7273H499.73V91.0597H500.014C500.511 89.5919 501.387 88.4377 502.642 87.5973C503.908 86.745 505.34 86.3189 506.938 86.3189C507.27 86.3189 507.66 86.3307 508.11 86.3544C508.572 86.3781 508.933 86.4077 509.193 86.4432V91.5213C508.98 91.4621 508.602 91.397 508.057 91.326C507.512 91.2431 506.968 91.2017 506.423 91.2017C505.169 91.2017 504.05 91.468 503.068 92.0007C502.097 92.5215 501.328 93.2495 500.759 94.1847C500.191 95.108 499.907 96.1615 499.907 97.3452V114H494.598ZM4.99503 178V141.636H18.3118C20.8923 141.636 23.0289 142.062 24.7216 142.915C26.4143 143.755 27.6809 144.897 28.5213 146.342C29.3617 147.774 29.782 149.39 29.782 151.189C29.782 152.704 29.5038 153.982 28.9474 155.024C28.3911 156.054 27.6454 156.883 26.7102 157.51C25.7869 158.125 24.7689 158.575 23.6562 158.859V159.214C24.8636 159.274 26.0414 159.664 27.1896 160.386C28.3497 161.097 29.3085 162.109 30.0661 163.423C30.8236 164.737 31.2024 166.335 31.2024 168.217C31.2024 170.075 30.7644 171.744 29.8885 173.224C29.0244 174.692 27.6868 175.857 25.8757 176.722C24.0646 177.574 21.7505 178 18.9332 178H4.99503ZM10.4815 173.295H18.4006C21.0284 173.295 22.9105 172.786 24.0469 171.768C25.1832 170.75 25.7514 169.477 25.7514 167.95C25.7514 166.802 25.4614 165.749 24.8814 164.79C24.3014 163.831 23.4728 163.067 22.3956 162.499C21.3303 161.931 20.0637 161.647 18.5959 161.647H10.4815V173.295ZM10.4815 157.368H17.8324C19.0634 157.368 20.1702 157.131 21.1527 156.658C22.147 156.184 22.9342 155.521 23.5142 154.669C24.1061 153.805 24.402 152.787 24.402 151.615C24.402 150.112 23.8752 148.851 22.8217 147.833C21.7682 146.815 20.1525 146.306 17.9744 146.306H10.4815V157.368ZM44.4705 178.604C42.7423 178.604 41.1798 178.284 39.783 177.645C38.3862 176.994 37.2795 176.053 36.4627 174.822C35.6578 173.591 35.2553 172.081 35.2553 170.294C35.2553 168.755 35.5513 167.489 36.1431 166.494C36.735 165.5 37.534 164.713 38.5401 164.133C39.5463 163.553 40.6708 163.115 41.9137 162.819C43.1566 162.523 44.4232 162.298 45.7134 162.144C47.3469 161.955 48.6727 161.801 49.6907 161.683C50.7087 161.552 51.4485 161.345 51.9102 161.061C52.3718 160.777 52.6026 160.315 52.6026 159.676V159.552C52.6026 158.001 52.1647 156.8 51.2887 155.947C50.4246 155.095 49.1344 154.669 47.418 154.669C45.6306 154.669 44.2219 155.066 43.1921 155.859C42.1741 156.64 41.4698 157.51 41.0792 158.469L36.0898 157.332C36.6817 155.675 37.5458 154.338 38.6822 153.32C39.8304 152.29 41.1502 151.544 42.6417 151.082C44.1332 150.609 45.7016 150.372 47.3469 150.372C48.436 150.372 49.5901 150.502 50.8093 150.763C52.0404 151.011 53.1886 151.473 54.2539 152.148C55.3311 152.822 56.2129 153.787 56.8995 155.042C57.5861 156.285 57.9293 157.901 57.9293 159.889V178H52.7447V174.271H52.5316C52.1883 174.958 51.6734 175.633 50.9869 176.295C50.3003 176.958 49.4184 177.509 48.3413 177.947C47.2641 178.385 45.9738 178.604 44.4705 178.604ZM45.6246 174.342C47.0924 174.342 48.3472 174.052 49.3888 173.472C50.4424 172.892 51.2414 172.135 51.7859 171.2C52.3422 170.253 52.6204 169.241 52.6204 168.163V164.648C52.431 164.837 52.064 165.015 51.5195 165.18C50.9869 165.334 50.3772 165.47 49.6907 165.589C49.0041 165.695 48.3353 165.796 47.6843 165.891C47.0333 165.973 46.4888 166.045 46.0508 166.104C45.021 166.234 44.0799 166.453 43.2276 166.761C42.3872 167.068 41.7125 167.512 41.2035 168.092C40.7063 168.661 40.4577 169.418 40.4577 170.365C40.4577 171.679 40.9431 172.673 41.9137 173.348C42.8844 174.011 44.1213 174.342 45.6246 174.342ZM84.6873 157.386L79.8755 158.238C79.6743 157.622 79.3547 157.036 78.9167 156.48C78.4906 155.924 77.9106 155.468 77.1767 155.113C76.4428 154.758 75.5254 154.58 74.4245 154.58C72.9212 154.58 71.6665 154.918 70.6603 155.592C69.6542 156.255 69.1511 157.113 69.1511 158.167C69.1511 159.078 69.4885 159.812 70.1632 160.369C70.8379 160.925 71.9269 161.381 73.4302 161.736L77.7626 162.73C80.2721 163.31 82.1423 164.204 83.3734 165.411C84.6045 166.619 85.22 168.187 85.22 170.116C85.22 171.75 84.7465 173.206 83.7995 174.484C82.8644 175.751 81.5564 176.745 79.8755 177.467C78.2065 178.189 76.2711 178.55 74.0694 178.55C71.0154 178.55 68.5237 177.899 66.5943 176.597C64.6648 175.283 63.4811 173.419 63.0431 171.004L68.1745 170.223C68.4941 171.561 69.1511 172.573 70.1454 173.259C71.1397 173.934 72.4359 174.271 74.0339 174.271C75.774 174.271 77.1648 173.91 78.2065 173.188C79.2482 172.454 79.769 171.561 79.769 170.507C79.769 169.655 79.4494 168.939 78.8102 168.359C78.1828 167.779 77.2181 167.341 75.916 167.045L71.2995 166.033C68.7546 165.453 66.8725 164.529 65.6532 163.263C64.4458 161.996 63.8422 160.392 63.8422 158.451C63.8422 156.841 64.292 155.433 65.1916 154.225C66.0912 153.018 67.3341 152.077 68.9203 151.402C70.5065 150.715 72.3234 150.372 74.3713 150.372C77.3187 150.372 79.6388 151.011 81.3315 152.29C83.0242 153.556 84.1428 155.255 84.6873 157.386ZM102.061 178.55C99.3744 178.55 97.0603 177.976 95.119 176.828C93.1895 175.668 91.698 174.04 90.6445 171.945C89.6029 169.838 89.082 167.37 89.082 164.541C89.082 161.748 89.6029 159.286 90.6445 157.155C91.698 155.024 93.1658 153.361 95.0479 152.165C96.9419 150.97 99.1554 150.372 101.689 150.372C103.227 150.372 104.719 150.627 106.163 151.136C107.607 151.645 108.903 152.444 110.051 153.533C111.2 154.622 112.105 156.036 112.768 157.776C113.431 159.504 113.762 161.606 113.762 164.08V165.962H92.0827V161.984H108.56C108.56 160.588 108.276 159.351 107.708 158.273C107.14 157.184 106.341 156.326 105.311 155.699C104.293 155.071 103.097 154.758 101.724 154.758C100.233 154.758 98.9305 155.125 97.8178 155.859C96.717 156.581 95.8647 157.528 95.261 158.7C94.6692 159.86 94.3732 161.12 94.3732 162.482V165.589C94.3732 167.412 94.6928 168.962 95.332 170.241C95.9831 171.519 96.8886 172.496 98.0487 173.17C99.2087 173.833 100.564 174.165 102.115 174.165C103.121 174.165 104.038 174.023 104.867 173.739C105.695 173.443 106.412 173.005 107.015 172.425C107.619 171.845 108.081 171.129 108.4 170.276L113.425 171.182C113.023 172.661 112.301 173.958 111.259 175.07C110.229 176.171 108.933 177.029 107.37 177.645C105.82 178.249 104.05 178.55 102.061 178.55ZM129.112 178.533C126.911 178.533 124.946 177.97 123.218 176.846C121.501 175.71 120.152 174.094 119.169 171.999C118.199 169.892 117.713 167.364 117.713 164.417C117.713 161.469 118.204 158.948 119.187 156.853C120.181 154.758 121.543 153.154 123.271 152.041C124.999 150.929 126.958 150.372 129.148 150.372C130.841 150.372 132.202 150.656 133.232 151.224C134.273 151.781 135.078 152.432 135.646 153.178C136.227 153.923 136.676 154.58 136.996 155.148H137.316V141.636H142.624V178H137.44V173.756H136.996C136.676 174.336 136.215 174.999 135.611 175.745C135.019 176.491 134.202 177.142 133.161 177.698C132.119 178.254 130.77 178.533 129.112 178.533ZM130.284 174.005C131.811 174.005 133.102 173.603 134.155 172.798C135.22 171.981 136.025 170.85 136.57 169.406C137.126 167.962 137.404 166.281 137.404 164.364C137.404 162.47 137.132 160.812 136.588 159.392C136.043 157.972 135.244 156.865 134.191 156.072C133.137 155.279 131.835 154.882 130.284 154.882C128.686 154.882 127.355 155.296 126.289 156.125C125.224 156.954 124.419 158.084 123.874 159.516C123.342 160.949 123.075 162.564 123.075 164.364C123.075 166.187 123.348 167.826 123.892 169.282C124.437 170.738 125.242 171.892 126.307 172.744C127.384 173.585 128.71 174.005 130.284 174.005ZM161.934 178V150.727H167.243V178H161.934ZM164.615 146.519C163.692 146.519 162.899 146.211 162.236 145.596C161.585 144.969 161.259 144.223 161.259 143.359C161.259 142.483 161.585 141.737 162.236 141.121C162.899 140.494 163.692 140.18 164.615 140.18C165.539 140.18 166.326 140.494 166.977 141.121C167.64 141.737 167.971 142.483 167.971 143.359C167.971 144.223 167.64 144.969 166.977 145.596C166.326 146.211 165.539 146.519 164.615 146.519ZM178.944 161.807V178H173.635V150.727H178.731V155.166H179.069C179.696 153.722 180.678 152.562 182.016 151.686C183.365 150.81 185.064 150.372 187.112 150.372C188.97 150.372 190.598 150.763 191.995 151.544C193.391 152.313 194.475 153.462 195.244 154.989C196.013 156.516 196.398 158.404 196.398 160.653V178H191.089V161.292C191.089 159.315 190.574 157.77 189.544 156.658C188.515 155.533 187.1 154.971 185.301 154.971C184.07 154.971 182.975 155.237 182.016 155.77C181.069 156.303 180.317 157.084 179.761 158.114C179.217 159.132 178.944 160.363 178.944 161.807ZM221.163 141.636V178H215.677V141.636H221.163ZM233.286 161.807V178H227.977V150.727H233.073V155.166H233.41C234.038 153.722 235.02 152.562 236.358 151.686C237.707 150.81 239.406 150.372 241.454 150.372C243.312 150.372 244.94 150.763 246.336 151.544C247.733 152.313 248.816 153.462 249.586 154.989C250.355 156.516 250.74 158.404 250.74 160.653V178H245.431V161.292C245.431 159.315 244.916 157.77 243.886 156.658C242.856 155.533 241.442 154.971 239.643 154.971C238.412 154.971 237.317 155.237 236.358 155.77C235.411 156.303 234.659 157.084 234.103 158.114C233.558 159.132 233.286 160.363 233.286 161.807ZM267.319 178.533C265.118 178.533 263.153 177.97 261.425 176.846C259.708 175.71 258.359 174.094 257.376 171.999C256.406 169.892 255.92 167.364 255.92 164.417C255.92 161.469 256.412 158.948 257.394 156.853C258.388 154.758 259.75 153.154 261.478 152.041C263.206 150.929 265.165 150.372 267.355 150.372C269.048 150.372 270.409 150.656 271.439 151.224C272.48 151.781 273.285 152.432 273.854 153.178C274.434 153.923 274.883 154.58 275.203 155.148H275.523V141.636H280.831V178H275.647V173.756H275.203C274.883 174.336 274.422 174.999 273.818 175.745C273.226 176.491 272.409 177.142 271.368 177.698C270.326 178.254 268.977 178.533 267.319 178.533ZM268.491 174.005C270.018 174.005 271.309 173.603 272.362 172.798C273.427 171.981 274.232 170.85 274.777 169.406C275.333 167.962 275.611 166.281 275.611 164.364C275.611 162.47 275.339 160.812 274.795 159.392C274.25 157.972 273.451 156.865 272.398 156.072C271.344 155.279 270.042 154.882 268.491 154.882C266.893 154.882 265.562 155.296 264.496 156.125C263.431 156.954 262.626 158.084 262.081 159.516C261.549 160.949 261.282 162.564 261.282 164.364C261.282 166.187 261.555 167.826 262.099 169.282C262.644 170.738 263.449 171.892 264.514 172.744C265.591 173.585 266.917 174.005 268.491 174.005ZM287.659 178V150.727H292.968V178H287.659ZM290.34 146.519C289.417 146.519 288.623 146.211 287.961 145.596C287.31 144.969 286.984 144.223 286.984 143.359C286.984 142.483 287.31 141.737 287.961 141.121C288.623 140.494 289.417 140.18 290.34 140.18C291.263 140.18 292.05 140.494 292.701 141.121C293.364 141.737 293.696 142.483 293.696 143.359C293.696 144.223 293.364 144.969 292.701 145.596C292.05 146.211 291.263 146.519 290.34 146.519ZM307.297 178.604C305.568 178.604 304.006 178.284 302.609 177.645C301.212 176.994 300.106 176.053 299.289 174.822C298.484 173.591 298.081 172.081 298.081 170.294C298.081 168.755 298.377 167.489 298.969 166.494C299.561 165.5 300.36 164.713 301.366 164.133C302.372 163.553 303.497 163.115 304.74 162.819C305.983 162.523 307.249 162.298 308.54 162.144C310.173 161.955 311.499 161.801 312.517 161.683C313.535 161.552 314.275 161.345 314.736 161.061C315.198 160.777 315.429 160.315 315.429 159.676V159.552C315.429 158.001 314.991 156.8 314.115 155.947C313.251 155.095 311.961 154.669 310.244 154.669C308.457 154.669 307.048 155.066 306.018 155.859C305 156.64 304.296 157.51 303.905 158.469L298.916 157.332C299.508 155.675 300.372 154.338 301.508 153.32C302.657 152.29 303.976 151.544 305.468 151.082C306.959 150.609 308.528 150.372 310.173 150.372C311.262 150.372 312.416 150.502 313.635 150.763C314.867 151.011 316.015 151.473 317.08 152.148C318.157 152.822 319.039 153.787 319.726 155.042C320.412 156.285 320.756 157.901 320.756 159.889V178H315.571V174.271H315.358C315.015 174.958 314.5 175.633 313.813 176.295C313.126 176.958 312.245 177.509 311.167 177.947C310.09 178.385 308.8 178.604 307.297 178.604ZM308.451 174.342C309.919 174.342 311.173 174.052 312.215 173.472C313.269 172.892 314.068 172.135 314.612 171.2C315.168 170.253 315.447 169.241 315.447 168.163V164.648C315.257 164.837 314.89 165.015 314.346 165.18C313.813 165.334 313.203 165.47 312.517 165.589C311.83 165.695 311.162 165.796 310.51 165.891C309.859 165.973 309.315 166.045 308.877 166.104C307.847 166.234 306.906 166.453 306.054 166.761C305.213 167.068 304.539 167.512 304.03 168.092C303.532 168.661 303.284 169.418 303.284 170.365C303.284 171.679 303.769 172.673 304.74 173.348C305.711 174.011 306.948 174.342 308.451 174.342Z" fill="#333333"/>
</svg>
