<svg width="30" height="30" viewBox="0 0 30 30" fill="none" xmlns="http://www.w3.org/2000/svg">
<g clip-path="url(#clip0_34_4975)">
<path d="M0.462891 15C0.462891 6.97266 6.97266 0.462891 15 0.462891C23.0273 0.462891 29.5371 6.97266 29.5371 15C29.5371 23.0273 23.0273 29.5371 15 29.5371C6.97266 29.5371 0.462891 23.0273 0.462891 15Z" fill="#4A86C5"/>
<path d="M25.2773 4.72266C30.9551 10.4004 30.9551 19.6055 25.2773 25.2773C19.5996 30.9551 10.3945 30.9551 4.72266 25.2773L25.2773 4.72266Z" fill="#3D80B2"/>
<path d="M28.8457 19.4355C28.8984 19.2715 28.9453 19.1016 28.9922 18.9316C28.9453 19.1016 28.8984 19.2715 28.8457 19.4355Z" fill="#4A86C5"/>
<path d="M28.9922 18.9316L21.1172 11.0566L19.3242 12.8496L18.082 11.6016L17.0449 12.6387L10.957 6.55078L10.582 6.4043L8.24414 8.74219L11.0625 11.5605L8.30273 14.3203L10.998 17.0156L8.05078 19.9629L17.4258 29.3262C22.8223 28.418 27.2109 24.5449 28.8457 19.4297C28.8984 19.2715 28.9453 19.1016 28.9922 18.9316Z" fill="#377CA5"/>
<path d="M22.459 14.6016V19.9922H19.3359V14.9648C19.3359 13.6992 18.8848 12.8379 17.7539 12.8379C16.8926 12.8379 16.377 13.418 16.1484 13.9805C16.0664 14.1797 16.043 14.4609 16.043 14.7422V19.9922H12.9199C12.9199 19.9922 12.9609 11.4727 12.9199 10.5938H16.043V11.9238C16.0371 11.9355 16.0312 11.9473 16.0254 11.9531H16.043V11.9238C16.459 11.2852 17.1973 10.3711 18.8613 10.3711C20.918 10.3711 22.459 11.7129 22.459 14.6016ZM9.65039 6.05859C8.58398 6.05859 7.88086 6.76172 7.88086 7.68164C7.88086 8.58398 8.56055 9.30469 9.60938 9.30469H9.63281C10.7227 9.30469 11.4023 8.58398 11.4023 7.68164C11.373 6.76172 10.7168 6.05859 9.65039 6.05859ZM8.0625 19.9922H11.1914V10.5938H8.06836V19.9922H8.0625Z" fill="white"/>
</g>
<defs>
<clipPath id="clip0_34_4975">
<rect width="30" height="30" fill="white"/>
</clipPath>
</defs>
</svg>
