<svg width="440" height="337" viewBox="0 0 440 337" fill="none" xmlns="http://www.w3.org/2000/svg">
<path fill-rule="evenodd" clip-rule="evenodd" d="M198.164 15.0383C226.743 1.4693 260.023 -4.8597 290.299 4.3193C327.179 15.5013 353.593 47.1103 377.525 77.3173C394.468 98.7033 411.589 120.692 420.598 146.446C429.608 172.2 429.226 202.827 412.864 224.661C400.831 240.718 382.084 249.964 365.371 261.068C336.594 280.187 312.295 306.155 281.228 321.272C251.725 335.63 217.086 339.13 185.307 330.966C156.053 323.451 130.174 306.768 103.651 292.32C79.3874 279.103 53.7574 267.286 33.9144 248.059C14.2744 229.029 1.26442 202.786 0.0844179 175.464C-1.09658 148.143 10.1554 120.117 31.2344 102.693C40.7464 94.8303 51.9824 88.6413 63.6194 84.5413C74.6134 80.6663 169.562 28.6193 198.164 15.0383Z" fill="#F6F6F6"/>
<path fill-rule="evenodd" clip-rule="evenodd" d="M47.7684 90.2182C48.6994 89.9052 53.8064 83.3382 55.8374 81.0392C56.4084 80.3922 56.9854 79.7202 57.2844 78.9102C57.5834 78.1012 57.5534 77.1142 56.9874 76.4612C56.2874 75.6512 55.2974 74.9232 53.4554 75.4412C50.2494 76.3432 49.4304 77.7082 48.3204 79.7572C44.6514 86.5312 47.7684 90.2182 47.7684 90.2182Z" fill="#494D8F"/>
<path fill-rule="evenodd" clip-rule="evenodd" d="M82.0044 101.394C85.1594 101.872 88.5054 102.291 91.4454 101.05C92.5854 100.569 93.7255 99.6713 93.8055 98.4363C93.8735 97.3813 93.1015 96.4083 92.1505 95.9453C91.1995 95.4833 90.1034 95.4363 89.0464 95.4713C85.0594 95.6023 79.9624 97.5693 76.5594 99.6503C76.5594 99.6503 80.1214 101.11 82.0044 101.394Z" fill="#494D8F"/>
<path fill-rule="evenodd" clip-rule="evenodd" d="M88.9084 54.8335C87.4374 54.3935 85.7604 53.7225 85.3494 52.2435C84.9364 50.7595 86.1674 49.1975 87.6484 48.7765C89.1294 48.3545 90.7324 48.7795 92.1194 49.4465C97.9924 52.2705 98.7224 57.1575 98.7224 57.1575C98.7224 57.1575 90.5464 55.3245 88.9084 54.8335Z" fill="#494D8F"/>
<path fill-rule="evenodd" clip-rule="evenodd" d="M89.1014 41.1633C87.8724 40.9983 86.5814 40.7453 85.6564 39.9193C85.2064 39.5173 84.8554 38.9473 84.8954 38.3443C84.9634 37.3363 85.3074 36.3513 87.7374 36.1253C95.4304 35.4103 98.4254 39.9793 98.4254 39.9793C98.4254 39.9793 91.2784 41.4563 89.1014 41.1633Z" fill="#494D8F"/>
<path fill-rule="evenodd" clip-rule="evenodd" d="M113.65 46.2661C116.516 45.1931 119.14 42.8831 120.351 40.0721C120.808 39.0111 121.181 37.8771 121.111 36.7241C121.04 35.5711 120.443 34.3921 119.398 33.9011C118.122 33.3021 116.53 33.8991 115.607 34.9631C114.682 36.0271 114.296 37.4491 114.048 38.8361C113.717 40.6851 113.65 46.2661 113.65 46.2661Z" fill="#494D8F"/>
<path fill-rule="evenodd" clip-rule="evenodd" d="M91.3225 167.549C82.4605 163.265 73.5995 158.981 64.7375 154.698C60.0135 152.417 55.2435 150.075 51.6855 146.383C47.2155 141.75 45.1795 135.381 45.1785 128.846C45.1785 124.209 46.2065 119.496 48.1045 115.296C52.6845 105.153 61.4415 97.4332 70.6665 91.0132C79.8915 84.5892 89.8825 79.0912 98.3925 71.5802C101.024 69.2562 103.574 66.5692 105.476 63.5652C107.378 60.5622 108.634 57.2312 108.634 53.6482C108.634 53.5322 108.632 53.4162 108.63 53.2992C108.527 48.8912 106.383 44.5962 102.923 41.8652C100.275 39.7782 96.9195 38.6562 93.5595 38.6562C92.5245 38.6562 91.4875 38.7633 90.4725 38.9823C90.2025 39.0413 90.0305 39.3072 90.0895 39.5772C90.1475 39.8472 90.4135 40.0182 90.6835 39.9602C91.6275 39.7562 92.5925 39.6562 93.5595 39.6562C96.6965 39.6552 99.8445 40.7102 102.303 42.6502C105.523 45.1862 107.539 49.2242 107.63 53.3222C107.633 53.4312 107.634 53.5392 107.634 53.6482C107.634 56.9932 106.462 60.1382 104.631 63.0302C102.802 65.9212 100.316 68.5492 97.7305 70.8312C89.3345 78.2462 79.3805 83.7312 70.0955 90.1922C60.8115 96.6572 51.8995 104.475 47.1935 114.884C45.2365 119.217 44.1795 124.061 44.1785 128.846C44.1785 135.583 46.2795 142.217 50.9655 147.077C54.6915 150.937 59.5795 153.313 64.3025 155.598C73.1635 159.882 82.0255 164.165 90.8875 168.449C91.1355 168.569 91.4345 168.465 91.5545 168.217C91.6745 167.968 91.5705 167.669 91.3225 167.549Z" fill="#1E3F86"/>
<path fill-rule="evenodd" clip-rule="evenodd" d="M116.215 38.0414C116.089 41.1294 114.441 44.1264 112.521 47.1274C110.609 50.1294 108.44 53.1184 107.395 56.2914C107.309 56.5534 107.452 56.8364 107.714 56.9224C107.977 57.0084 108.259 56.8654 108.345 56.6034C109.312 53.6434 111.427 50.6944 113.364 47.6654C115.295 44.6334 117.063 41.5044 117.214 38.0834C117.226 37.8074 117.012 37.5744 116.736 37.5624C116.46 37.5514 116.227 37.7654 116.215 38.0414Z" fill="#1E3F86"/>
<path fill-rule="evenodd" clip-rule="evenodd" d="M91.1984 52.9404C93.1834 54.1264 95.3114 54.9254 97.0134 56.2394C99.3594 58.0374 100.956 61.0914 100.953 64.2514C100.952 65.9144 100.517 67.6074 99.5234 69.1904C99.3764 69.4244 99.4464 69.7334 99.6804 69.8804C99.9144 70.0274 100.222 69.9564 100.369 69.7234C101.467 67.9774 101.953 66.0894 101.953 64.2514C101.949 60.7564 100.218 57.4444 97.6224 55.4464C95.7564 54.0174 93.5874 53.2124 91.7134 52.0824C91.4764 51.9404 91.1694 52.0174 91.0274 52.2544C90.8854 52.4914 90.9624 52.7984 91.1984 52.9404Z" fill="#1E3F86"/>
<path fill-rule="evenodd" clip-rule="evenodd" d="M62.2984 97.0694C67.3054 99.0944 72.9484 100.195 78.5124 100.195C81.5274 100.195 84.5194 99.8714 87.3734 99.1934C87.6414 99.1294 87.8074 98.8594 87.7434 98.5914C87.6804 98.3224 87.4104 98.1564 87.1414 98.2204C84.3714 98.8794 81.4564 99.1954 78.5124 99.1954C73.0814 99.1964 67.5544 98.1173 62.6734 96.1423C62.4174 96.0393 62.1264 96.1624 62.0224 96.4184C61.9184 96.6744 62.0424 96.9664 62.2984 97.0694Z" fill="#1E3F86"/>
<path fill-rule="evenodd" clip-rule="evenodd" d="M50.9934 109.14C48.5434 105.554 47.3214 101.205 47.3224 96.8482C47.3214 92.0722 48.7904 87.2952 51.6844 83.5142C51.8524 83.2942 51.8104 82.9812 51.5914 82.8132C51.3724 82.6452 51.0584 82.6872 50.8904 82.9062C47.8484 86.8822 46.3224 91.8692 46.3224 96.8482C46.3224 101.39 47.5924 105.933 50.1674 109.704C50.3234 109.932 50.6344 109.991 50.8624 109.835C51.0904 109.679 51.1494 109.368 50.9934 109.14Z" fill="#1E3F86"/>
<path fill-rule="evenodd" clip-rule="evenodd" d="M214.276 336.104C192.49 336.104 170.695 331.079 151.223 321.293C140.879 316.094 131.307 309.686 122.147 302.645C142.424 314.048 162.874 325.203 185.307 330.966C196.567 333.858 208.185 335.287 219.807 335.287C225.619 335.287 231.429 334.93 237.199 334.22C229.628 335.48 221.952 336.104 214.276 336.104ZM296.946 312.453C297.253 312.259 297.559 312.064 297.864 311.869C297.942 311.873 298.02 311.878 298.098 311.882C297.713 312.073 297.331 312.263 296.946 312.453ZM309.484 306.191C309.466 305.441 309.448 304.692 309.43 303.942C319.004 296.985 328.205 289.419 337.489 281.96L345.94 281.943C346.783 284.247 347.624 286.552 348.455 288.859C346.299 289.645 344.155 290.445 342.031 291.274C330.935 295.606 320.183 300.848 309.484 306.191ZM362.456 283.811C362.372 283.177 362.289 282.543 362.208 281.909L367.485 281.898C367.487 281.898 367.489 281.898 367.491 281.898C365.823 282.552 364.142 283.187 362.456 283.811ZM373.42 279.461C373.341 279.371 373.264 279.28 373.187 279.189C374.093 278.082 374.685 276.707 374.824 275.201C378.559 274.834 381.479 271.686 381.479 267.857V267.838L381.445 250.889C390.155 245.401 398.683 239.687 405.874 232.612C407.357 232.853 408.834 233.125 410.304 233.428C412.315 233.842 414.336 234.314 416.363 234.692C414.041 241.627 410.844 248.188 406.705 254.093C404.803 255.012 403.1 256.386 401.724 257.969C400.047 259.9 398.794 262.113 397.732 264.405C397.224 264.876 396.705 265.341 396.178 265.797C389.411 271.654 381.627 275.903 373.42 279.461ZM399.964 262.233C400.694 260.947 401.517 259.731 402.479 258.625C403.285 257.696 404.208 256.849 405.214 256.137C403.596 258.269 401.848 260.305 399.964 262.233ZM2.04047 152.211C1.63147 144.784 2.02447 137.321 3.29447 129.967C7.94947 103.018 24.9035 78.0261 49.2035 65.4821C60.1705 59.8211 72.4655 56.1631 84.7085 54.6301C85.3015 54.5561 86.1365 54.4051 87.1925 54.1841C87.7385 54.4571 88.3385 54.6621 88.9085 54.8331C90.2155 55.2251 95.6905 56.4721 97.8455 56.9591C98.3195 57.4201 98.7525 57.9361 99.1335 58.4931L67.9395 58.5581C64.0975 58.5671 60.9465 61.5121 60.6005 65.2541C56.8555 65.6181 53.9315 68.7801 53.9395 72.6201L53.9455 75.3281C53.7895 75.3561 53.6265 75.3931 53.4555 75.4411C50.2495 76.3431 49.4305 77.7081 48.3205 79.7571C45.4715 85.0161 46.7135 88.4151 47.4115 89.6721C47.1595 90.4751 46.9515 91.2931 46.7865 92.1191C41.2775 95.1821 36.0355 98.7241 31.2345 102.693C16.1585 115.155 6.10947 133.039 2.04047 152.211ZM47.9495 91.4821C48.0955 90.8721 48.2655 90.2691 48.4615 89.6751C49.7025 88.4701 52.0825 85.5401 53.9615 83.2641L53.9725 88.4651C51.9365 89.4081 49.9275 90.4141 47.9495 91.4821ZM100.321 58.4911C99.8005 57.6271 99.1695 56.8391 98.4535 56.1581C98.1175 55.1831 97.3935 53.6291 95.8945 52.1041C99.0755 51.2941 102.778 50.3181 106.896 49.2121C107.345 50.5371 107.599 51.9261 107.63 53.3221C107.633 53.4311 107.634 53.5391 107.634 53.6481C107.634 54.5541 107.548 55.4461 107.386 56.3221C107.38 56.3451 107.376 56.3671 107.374 56.3891C107.24 57.0951 107.057 57.7921 106.83 58.4771L100.321 58.4911ZM107.88 58.4751C108.075 57.8481 108.236 57.2111 108.358 56.5641C109.331 53.6171 111.435 50.6811 113.364 47.6651C113.416 47.5831 113.469 47.5011 113.52 47.4191C126.971 43.7521 143.558 39.1001 160.228 34.4351C145.748 42.0421 129.658 50.5941 114.783 58.4611L107.88 58.4751ZM108.632 53.4211C108.632 53.3801 108.631 53.3401 108.63 53.2991C108.595 51.8191 108.331 50.3521 107.863 48.9521C109.229 48.5841 110.635 48.2041 112.082 47.8101C110.881 49.6641 109.623 51.5191 108.632 53.4211Z" fill="#FBFCFD"/>
<path fill-rule="evenodd" clip-rule="evenodd" d="M48.4615 89.6754C49.1895 87.4604 50.2665 85.3674 51.6845 83.5144C51.8525 83.2944 51.8105 82.9814 51.5915 82.8134C51.5015 82.7434 51.3945 82.7104 51.2885 82.7104C51.1375 82.7104 50.9895 82.7774 50.8905 82.9064C49.3335 84.9424 48.1735 87.2434 47.4115 89.6724C46.7135 88.4154 45.4715 85.0164 48.3205 79.7574C49.4305 77.7084 50.2495 76.3434 53.4555 75.4414C53.6265 75.3934 53.7895 75.3564 53.9455 75.3284L53.9615 83.2644C52.0825 85.5404 49.7025 88.4704 48.4615 89.6754Z" fill="#64649E"/>
<path fill-rule="evenodd" clip-rule="evenodd" d="M97.8454 56.9595C95.6904 56.4725 90.2154 55.2255 88.9084 54.8335C88.3384 54.6625 87.7384 54.4575 87.1924 54.1845C88.3884 53.9345 89.8714 53.5935 91.6014 53.1745C93.4674 54.2365 95.4254 55.0145 97.0134 56.2395C97.3024 56.4605 97.5804 56.7015 97.8454 56.9595ZM98.4534 56.1585C98.1874 55.9055 97.9104 55.6675 97.6224 55.4465C96.1854 54.3455 94.5674 53.6155 93.0444 52.8215C93.9394 52.5995 94.8904 52.3605 95.8944 52.1045C97.3934 53.6295 98.1174 55.1835 98.4534 56.1585Z" fill="#64649E"/>
<path fill-rule="evenodd" clip-rule="evenodd" d="M54.0985 149.822C52.9915 148.992 51.9385 148.085 50.9655 147.077C46.2795 142.217 44.1785 135.583 44.1785 128.846C44.1795 124.061 45.2365 119.217 47.1935 114.884C48.0295 113.035 48.9995 111.266 50.0795 109.574C50.1085 109.617 50.1385 109.661 50.1675 109.704C50.2645 109.846 50.4215 109.922 50.5815 109.922C50.6785 109.922 50.7765 109.894 50.8625 109.835C51.0905 109.679 51.1495 109.368 50.9935 109.14C50.8855 108.982 50.7795 108.823 50.6765 108.662C51.7015 107.137 52.8165 105.674 54.0045 104.267L54.0085 105.834C51.6615 108.742 49.6465 111.882 48.1045 115.296C46.2065 119.496 45.1785 124.209 45.1785 128.846C45.1795 135.381 47.2155 141.75 51.6855 146.383C52.4385 147.165 53.2465 147.886 54.0965 148.559L54.0985 149.822ZM106.83 58.4771C107.057 57.7921 107.24 57.0951 107.374 56.3891C107.346 56.6201 107.485 56.8461 107.714 56.9221C107.766 56.9391 107.819 56.9471 107.87 56.9471C108.081 56.9471 108.276 56.8131 108.345 56.6031C108.35 56.5901 108.354 56.5771 108.358 56.5641C108.236 57.2111 108.075 57.8481 107.88 58.4751L106.83 58.4771ZM107.386 56.3221C107.548 55.4461 107.634 54.5541 107.634 53.6481C107.634 53.5391 107.633 53.4311 107.63 53.3221C107.599 51.9261 107.345 50.5372 106.896 49.2122C107.213 49.1272 107.541 49.0391 107.863 48.9521C108.331 50.3521 108.595 51.8191 108.63 53.2991C108.631 53.3401 108.632 53.3802 108.632 53.4212C108.141 54.3642 107.715 55.3191 107.395 56.2911C107.392 56.3011 107.389 56.3121 107.386 56.3221Z" fill="#3F609D"/>
<path fill-rule="evenodd" clip-rule="evenodd" d="M107.87 56.9474C107.819 56.9474 107.766 56.9394 107.714 56.9224C107.485 56.8464 107.346 56.6204 107.374 56.3894C107.376 56.3674 107.38 56.3454 107.386 56.3224C107.389 56.3124 107.392 56.3014 107.395 56.2914C107.715 55.3194 108.141 54.3644 108.632 53.4214C109.623 51.5194 110.881 49.6644 112.082 47.8104C112.558 47.6814 113.036 47.5514 113.52 47.4194C113.469 47.5014 113.416 47.5834 113.364 47.6654C111.435 50.6814 109.331 53.6174 108.358 56.5644C108.354 56.5774 108.35 56.5904 108.345 56.6034C108.276 56.8134 108.081 56.9474 107.87 56.9474Z" fill="#3F609D"/>
<path fill-rule="evenodd" clip-rule="evenodd" d="M99.1334 58.4933C98.7524 57.9363 98.3194 57.4203 97.8454 56.9593C97.5804 56.7013 97.3024 56.4603 97.0134 56.2393C95.4254 55.0143 93.4674 54.2363 91.6014 53.1743C92.0644 53.0623 92.5454 52.9443 93.0444 52.8213C94.5674 53.6153 96.1854 54.3453 97.6224 55.4463C97.9104 55.6673 98.1874 55.9053 98.4534 56.1583C99.1694 56.8393 99.8004 57.6273 100.321 58.4913L99.1334 58.4933Z" fill="#3F609D"/>
<path fill-rule="evenodd" clip-rule="evenodd" d="M50.5814 109.922C50.4214 109.922 50.2644 109.846 50.1674 109.704C50.1384 109.661 50.1084 109.617 50.0794 109.574C47.5634 105.829 46.3224 101.338 46.3224 96.8482C46.3224 95.2622 46.4774 93.6742 46.7864 92.1192C46.9514 91.2932 47.1594 90.4752 47.4114 89.6722C48.1734 87.2432 49.3334 84.9422 50.8904 82.9062C50.9894 82.7772 51.1374 82.7102 51.2884 82.7102C51.3944 82.7102 51.5014 82.7432 51.5914 82.8132C51.8104 82.9812 51.8524 83.2942 51.6844 83.5142C50.2664 85.3672 49.1894 87.4602 48.4614 89.6752C48.2654 90.2692 48.0954 90.8722 47.9494 91.4822C47.5314 93.2352 47.3214 95.0422 47.3224 96.8482C47.3214 101.013 48.4374 105.17 50.6764 108.662C50.7794 108.823 50.8854 108.982 50.9934 109.14C51.1494 109.368 51.0904 109.679 50.8624 109.835C50.7764 109.894 50.6784 109.922 50.5814 109.922Z" fill="#3F609D"/>
<path fill-rule="evenodd" clip-rule="evenodd" d="M225.899 58.2324C229.052 52.4084 234.695 48.1024 241.369 46.7794C242.878 46.4794 244.369 46.3374 245.831 46.3374C254.305 46.3374 261.76 51.1424 265.593 58.1504L225.899 58.2324Z" fill="#E2EFF4"/>
<path fill-rule="evenodd" clip-rule="evenodd" d="M57.1645 202.174C51.6775 197.324 46.1245 192.399 42.0685 186.302C38.5375 180.99 36.2575 174.958 33.1755 169.373C31.1815 165.759 28.8275 162.277 27.6725 158.313C26.5175 154.35 26.7945 149.658 29.6105 146.639C32.5475 143.491 37.5995 143.008 41.5875 144.631C45.5755 146.253 48.6245 149.606 50.9525 153.227C54.0445 158.037 56.1095 163.503 56.9705 169.156C57.7515 174.278 57.5515 179.512 58.3475 184.632C59.0885 189.402 60.6925 193.982 62.7135 198.352C64.5465 202.316 69.1905 209.384 70.3745 213.447C67.0925 215.09 59.5045 204.242 57.1645 202.174Z" fill="#13A391"/>
<path fill-rule="evenodd" clip-rule="evenodd" d="M54.1884 193.581C52.6554 190.814 51.1724 187.982 49.7934 185.246C46.8064 179.295 47.1004 172.355 45.8674 166.073C45.3284 163.302 44.5444 160.389 43.2714 157.917C41.9954 155.44 40.2494 153.42 37.7754 152.337C37.5224 152.226 37.4074 151.931 37.5174 151.678C37.5994 151.491 37.7834 151.379 37.9764 151.379C38.0424 151.379 38.1104 151.392 38.1764 151.421C40.9204 152.622 42.8214 154.855 44.1604 157.459C45.5014 160.067 46.2984 163.062 46.8484 165.882C48.0924 172.326 47.8374 179.168 50.6864 184.795C51.7944 186.995 52.9704 189.256 54.1844 191.493L54.1884 193.581Z" fill="#146C5A"/>
<path fill-rule="evenodd" clip-rule="evenodd" d="M30.1554 187.254C25.6004 185.455 19.5194 184.717 16.5984 188.647C14.1544 191.937 15.4204 196.602 17.1084 200.338C18.5344 203.492 20.3454 206.698 23.3524 208.413C25.4054 209.584 27.8124 209.935 30.1604 210.215C36.7084 210.994 43.3034 211.376 49.8984 211.357C57.5414 211.335 66.7994 214.457 73.1234 219.223C65.0084 204.138 45.4834 193.307 30.1554 187.254Z" fill="#3A5796"/>
<path fill-rule="evenodd" clip-rule="evenodd" d="M22.1435 197.559C27.9325 197.805 33.7405 198.213 39.2335 199.839C42.0105 200.658 48.9175 203.591 55.5055 206.837C58.8015 208.461 62.0275 210.165 64.6315 211.724C65.9335 212.503 67.0795 213.246 67.9985 213.919C68.9165 214.591 69.6075 215.201 69.9845 215.675C70.1565 215.89 70.4715 215.925 70.6875 215.753C70.9025 215.58 70.9375 215.265 70.7655 215.05C70.2865 214.454 69.5455 213.815 68.5895 213.113C65.2515 210.667 59.2605 207.498 53.4565 204.735C47.6505 201.973 42.0695 199.636 39.5175 198.88C33.8825 197.214 27.9925 196.808 22.1855 196.56C21.9105 196.548 21.6765 196.762 21.665 197.038C21.6535 197.314 21.8675 197.547 22.1435 197.559Z" fill="#1E3F86"/>
<path fill-rule="evenodd" clip-rule="evenodd" d="M372.781 218.904C378.248 209.904 375.456 198.328 377.359 187.971C378.822 180.009 383.252 172.627 389.59 167.592C393.568 164.432 399.156 162.174 403.653 164.544C407.505 166.574 407.993 160.713 408.114 158.29C408.457 151.421 407.362 145.206 413.398 140.47C418.302 136.622 426.317 133.972 432.605 134.592C434.466 134.775 436.329 135.497 437.591 136.876C439.551 139.017 439.696 142.353 438.708 145.083C435.861 152.945 427.572 158.384 423.159 165.362C421.142 168.551 419.389 172.401 420.526 176.227C421.109 178.187 423.103 179.616 423.303 181.577C423.613 184.604 420.227 187.279 417.839 188.422C414.794 189.881 411.487 190.796 408.124 191.111C401.655 191.717 399.7 194.195 400.995 200.729C401.965 205.625 400.757 208.78 397.203 212.199C393.617 215.647 389.692 218.743 385.504 221.426C382.107 223.601 378.513 225.523 375.503 228.208C372.492 230.892 370.059 234.521 369.862 238.55C367.917 235.527 367.315 231.485 367.764 227.919C368.213 224.352 370.915 221.976 372.781 218.904Z" fill="#62BDA8"/>
<path fill-rule="evenodd" clip-rule="evenodd" d="M370.804 233.449C371.331 230.864 371.667 228.71 372.862 226.38C374.067 224.025 375.587 221.812 376.98 219.492C380.821 213.089 382.999 205.81 385.02 198.755C386.874 192.265 391.744 185.477 396.366 180.518C399.915 176.701 404.304 173.643 408.013 169.788C410.656 167.038 412.908 163.914 414.677 160.535C415.634 158.702 416.446 156.835 417.669 155.314C419.116 153.504 421.164 152.167 423.011 150.517C425.504 148.285 427.51 145.517 428.858 142.454C428.969 142.201 428.854 141.906 428.601 141.795C428.349 141.684 428.054 141.799 427.942 142.052C426.653 144.983 424.73 147.636 422.344 149.773C420.58 151.358 418.477 152.716 416.889 154.688C415.556 156.353 414.728 158.286 413.791 160.071C412.066 163.366 409.869 166.414 407.292 169.095C403.678 172.859 399.285 175.92 395.634 179.837C390.947 184.876 385.996 191.733 384.059 198.479C382.042 205.528 379.878 212.721 376.123 218.977C374.752 221.262 373.217 223.493 371.972 225.924C370.695 228.418 370.346 230.702 369.824 233.248C369.769 233.519 369.943 233.783 370.214 233.838C370.485 233.894 370.749 233.719 370.804 233.449Z" fill="#13A391"/>
<path fill-rule="evenodd" clip-rule="evenodd" d="M433.013 216.396C432.507 215.917 431.966 215.477 431.398 215.086C428.326 212.969 424.622 212.03 420.893 211.582C420.926 211.125 420.956 210.665 420.983 210.208C421.316 209.385 421.632 208.558 421.934 207.723C425.309 208.218 428.613 209.168 431.396 211.088C432.946 212.158 434.306 213.588 435.266 215.208C434.531 215.629 433.777 216.024 433.013 216.396Z" fill="#D9E1E5"/>
<path fill-rule="evenodd" clip-rule="evenodd" d="M420.983 210.208C421.034 209.341 421.074 208.477 421.103 207.61C421.38 207.644 421.657 207.682 421.934 207.723C421.632 208.558 421.316 209.385 420.983 210.208Z" fill="#C0D2E1"/>
<path fill-rule="evenodd" clip-rule="evenodd" d="M420.893 211.582C420.739 211.564 420.585 211.546 420.431 211.529C420.619 211.091 420.804 210.649 420.983 210.208C420.956 210.665 420.926 211.125 420.893 211.582Z" fill="#D4DEE4"/>
<path fill-rule="evenodd" clip-rule="evenodd" d="M394.728 214.476C395.57 213.735 396.395 212.976 397.203 212.199C398.33 211.115 399.222 210.057 399.882 208.962C404.589 207.802 409.436 207.203 414.281 207.203C415.828 207.203 417.373 207.264 418.916 207.388C419.643 207.446 420.374 207.518 421.103 207.61C421.074 208.477 421.034 209.341 420.983 210.208C420.804 210.649 420.619 211.091 420.431 211.529C419.926 211.474 419.42 211.427 418.916 211.387C417.377 211.264 415.834 211.203 414.29 211.203C407.652 211.203 401.01 212.327 394.728 214.476Z" fill="#C0D2E1"/>
<path fill-rule="evenodd" clip-rule="evenodd" d="M381.385 220.803L381.377 216.807C384.692 214.839 387.818 213.29 389.566 212.508C392.886 211.02 396.345 209.833 399.882 208.962C399.222 210.057 398.33 211.115 397.203 212.199C396.395 212.976 395.57 213.735 394.728 214.476C392.978 215.074 391.256 215.752 389.57 216.508C387.824 217.29 384.699 218.837 381.385 220.803Z" fill="#49B4A1"/>
<path fill-rule="evenodd" clip-rule="evenodd" d="M418.916 211.387C423.293 211.735 427.783 212.595 431.398 215.086C435.014 217.578 437.557 222.027 436.714 226.336C435.732 231.356 430.542 234.621 425.464 235.239C420.387 235.856 415.314 234.459 410.304 233.428C399.219 231.145 387.773 230.622 376.526 231.884C373.72 232.198 371.058 232.755 368.602 234.189C367.813 227.496 384.501 218.779 389.57 216.508C398.718 212.409 408.917 210.589 418.916 211.387Z" fill="#768CBA"/>
<path fill-rule="evenodd" clip-rule="evenodd" d="M373.274 230.346C376.788 227.252 382.828 224.526 389.747 222.604C396.667 220.678 404.47 219.54 411.536 219.541C413.592 219.541 415.586 219.637 417.476 219.837C421.946 220.309 426.418 221.644 429.789 224.49C430 224.668 430.315 224.642 430.493 224.431C430.671 224.22 430.644 223.904 430.433 223.726C426.841 220.698 422.172 219.329 417.582 218.843C415.651 218.638 413.623 218.541 411.536 218.541C404.364 218.541 396.488 219.69 389.479 221.64C382.469 223.594 376.332 226.333 372.614 229.595C372.407 229.777 372.386 230.093 372.568 230.301C372.751 230.508 373.067 230.528 373.274 230.346Z" fill="#1E3F86"/>
<path fill-rule="evenodd" clip-rule="evenodd" d="M413.41 251.417C413.989 251.418 414.63 251.636 414.895 252.15C415.106 252.559 415.078 253.119 414.772 253.462C412.4 256.12 407.671 254.212 407.671 254.212C407.671 254.212 409.051 251.408 413.41 251.417Z" fill="#494D8F"/>
<path fill-rule="evenodd" clip-rule="evenodd" d="M404.371 248.395C401.396 245.21 399.355 252.432 400.655 255.697C400.655 255.697 406.93 251.138 404.371 248.395Z" fill="#494D8F"/>
<path fill-rule="evenodd" clip-rule="evenodd" d="M410.228 260.268C411.049 260 412.093 260.149 412.552 260.881C412.894 261.427 412.816 262.157 412.506 262.72C412.194 263.283 411.346 264.003 410.745 264.231C407.062 265.629 404.563 263.598 404.563 263.598C404.563 263.598 408.883 260.708 410.228 260.268Z" fill="#494D8F"/>
<path fill-rule="evenodd" clip-rule="evenodd" d="M392.045 285.67C392.666 285.68 393.341 285.945 393.594 286.513C393.754 286.871 393.716 287.294 393.567 287.657C393.419 288.019 393.168 288.331 392.902 288.62C392.333 289.239 391.569 289.616 390.736 289.731C388.632 290.023 386.579 288.693 386.579 288.693C386.579 288.693 390.497 285.644 392.045 285.67Z" fill="#494D8F"/>
<path fill-rule="evenodd" clip-rule="evenodd" d="M388.286 274.599C389.803 273.697 390.758 271.873 390.584 270.117C390.54 269.671 390.419 269.222 390.154 268.859C389.557 268.043 388.354 267.87 387.401 268.206C386.448 268.543 385.696 269.278 385.014 270.024C383.778 271.378 382.833 273.794 381.853 275.343C381.853 275.343 385.209 276.426 388.286 274.599Z" fill="#494D8F"/>
<path fill-rule="evenodd" clip-rule="evenodd" d="M411.918 252.887L411.734 252.885C407.829 252.89 404.233 255.083 401.724 257.969C399.182 260.896 397.613 264.473 396.21 267.991C394.811 271.51 393.524 275.064 391.499 278.158C390.517 279.659 389.295 281.073 387.891 282.152C386.487 283.232 384.907 283.975 383.187 284.17C382.883 284.205 382.579 284.221 382.278 284.221C380.359 284.222 378.5 283.543 376.81 282.444C375.121 281.346 373.61 279.831 372.408 278.202C369.794 274.671 368.086 270.424 365.289 266.807C364 265.147 362.336 263.51 360.124 263.054C359.716 262.971 359.308 262.932 358.905 262.933C356.414 262.942 354.14 264.35 352.151 265.638C351.919 265.788 351.854 266.098 352.004 266.329C352.155 266.561 352.465 266.626 352.696 266.476C354.662 265.188 356.815 263.923 358.905 263.932C359.245 263.933 359.585 263.965 359.925 264.034C361.745 264.396 363.271 265.828 364.499 267.419C367.189 270.883 368.897 275.122 371.603 278.796C372.867 280.508 374.454 282.104 376.265 283.282C378.075 284.459 380.119 285.221 382.278 285.221C382.616 285.221 382.957 285.203 383.3 285.164C385.237 284.944 386.987 284.109 388.501 282.945C390.016 281.779 391.303 280.283 392.336 278.705C394.444 275.479 395.746 271.857 397.139 268.361C398.531 264.863 400.068 261.397 402.479 258.625C404.846 255.897 408.22 253.88 411.734 253.885L411.9 253.887C412.176 253.892 412.404 253.672 412.41 253.396C412.414 253.12 412.194 252.892 411.918 252.887Z" fill="#1E3F86"/>
<path fill-rule="evenodd" clip-rule="evenodd" d="M410.28 261.599C407.925 262.655 404.858 263.245 402.005 263.244C400.881 263.244 399.79 263.153 398.79 262.967C398.519 262.917 398.258 263.096 398.207 263.368C398.157 263.639 398.336 263.9 398.608 263.951C399.678 264.149 400.827 264.244 402.005 264.244C404.994 264.242 408.168 263.638 410.688 262.512C410.94 262.399 411.053 262.103 410.94 261.851C410.828 261.599 410.532 261.486 410.28 261.599Z" fill="#1E3F86"/>
<path fill-rule="evenodd" clip-rule="evenodd" d="M402.513 250.501C401.713 251.743 400.874 253.034 400.386 254.519C400.204 255.074 400.126 255.676 400.125 256.286C400.127 257.412 400.392 258.566 400.849 259.506C400.97 259.754 401.27 259.857 401.518 259.735C401.766 259.614 401.869 259.315 401.748 259.067C401.364 258.285 401.124 257.251 401.125 256.286C401.125 255.763 401.195 255.261 401.336 254.83C401.768 253.509 402.55 252.284 403.353 251.044C403.503 250.812 403.437 250.502 403.205 250.352C402.973 250.203 402.663 250.269 402.513 250.501Z" fill="#1E3F86"/>
<path fill-rule="evenodd" clip-rule="evenodd" d="M390.842 287.482C389.865 288.002 388.749 288.271 387.637 288.271C387.015 288.271 386.395 288.187 385.8 288.018C384.196 287.575 382.411 285.959 381.546 284.456C381.407 284.217 381.1 284.137 380.862 284.276C380.623 284.415 380.543 284.721 380.682 284.96C381.692 286.67 383.553 288.405 385.527 288.98C386.214 289.175 386.926 289.271 387.637 289.271C388.909 289.27 390.181 288.965 391.31 288.365C391.554 288.236 391.647 287.933 391.517 287.689C391.388 287.445 391.086 287.353 390.842 287.482Z" fill="#1E3F86"/>
<path fill-rule="evenodd" clip-rule="evenodd" d="M387.137 271.572C383.964 273.356 381.328 274.968 378.403 277.163C377.698 277.694 376.851 278.505 376.149 279.363C375.799 279.792 375.486 280.232 375.248 280.662C375.011 281.094 374.841 281.512 374.813 281.945C374.797 282.221 375.008 282.457 375.284 282.473C375.559 282.488 375.796 282.278 375.811 282.002C375.818 281.819 375.924 281.501 376.123 281.146C376.712 280.067 378.069 278.658 379.003 277.963C381.886 275.801 384.471 274.218 387.627 272.444C387.868 272.308 387.954 272.003 387.818 271.763C387.683 271.522 387.378 271.437 387.137 271.572Z" fill="#1E3F86"/>
<path fill-rule="evenodd" clip-rule="evenodd" d="M61.7435 282.529C57.6705 282.529 54.3654 279.233 54.3574 275.159L54.3354 264.413C56.5204 265.891 58.7394 267.326 60.9834 268.727C61.1144 272.693 64.3754 275.867 68.3694 275.867C68.3764 275.867 68.3825 275.867 68.3895 275.867L73.0675 275.857C77.0815 278.114 81.1424 280.309 85.2124 282.481L61.7575 282.529C61.7535 282.529 61.7485 282.529 61.7435 282.529Z" fill="#D9E1E5"/>
<path fill-rule="evenodd" clip-rule="evenodd" d="M85.2125 282.481C81.1425 280.309 77.0815 278.114 73.0675 275.857L90.6165 275.821C93.1025 278.032 95.5875 280.247 98.0795 282.454L85.2125 282.481ZM60.9835 268.727C58.7395 267.326 56.5205 265.891 54.3355 264.413L54.2935 244.492C56.4925 246.433 58.7115 248.354 60.9425 250.263L60.9795 268.498C60.9795 268.575 60.9815 268.651 60.9835 268.727Z" fill="#C0D2E1"/>
<path fill-rule="evenodd" clip-rule="evenodd" d="M98.0794 282.454C95.5874 280.247 93.1024 278.032 90.6164 275.821L155.689 275.685C155.828 276.227 155.979 276.765 156.141 277.296L156.142 277.299L150.383 280.623C149.766 280.979 149.48 281.688 149.632 282.348L98.0794 282.454ZM179.813 282.286C177.752 280.408 176.035 278.157 174.776 275.645L178.479 275.638L215.218 275.562C213.967 278.082 212.257 280.339 210.2 282.223L179.813 282.286ZM60.9424 250.263C58.7114 248.354 56.4924 246.433 54.2934 244.492L54.2734 234.535H60.9104L60.9424 250.263Z" fill="#C0D2E1"/>
<path fill-rule="evenodd" clip-rule="evenodd" d="M367.491 281.898C369.16 281.245 370.815 280.573 372.457 279.875C372.471 279.891 372.484 279.906 372.498 279.923C371.184 281.144 369.426 281.893 367.491 281.898Z" fill="#D9E1E5"/>
<path fill-rule="evenodd" clip-rule="evenodd" d="M240.375 282.161C240.439 281.558 240.151 280.945 239.592 280.623L233.835 277.299L233.836 277.296C234.014 276.712 234.179 276.12 234.329 275.523L298.59 275.392C298.428 277.607 298.298 279.823 298.199 282.041L240.375 282.161ZM299.035 282.01C299.674 279.787 300.332 277.568 301.035 275.359L343.264 275.3C343.521 275.781 343.778 276.262 344.035 276.744C340.837 278.47 337.652 280.213 334.475 281.96L299.035 282.01Z" fill="#C0D2E1"/>
<path fill-rule="evenodd" clip-rule="evenodd" d="M149.632 282.348C149.48 281.688 149.766 280.979 150.383 280.623L156.142 277.299L156.141 277.296C155.979 276.765 155.828 276.227 155.689 275.685L174.776 275.645C176.035 278.157 177.752 280.408 179.813 282.286L149.632 282.348ZM210.2 282.223C212.257 280.339 213.967 278.082 215.218 275.562L234.329 275.523C234.179 276.12 234.014 276.712 233.836 277.296L233.835 277.299L239.592 280.623C240.151 280.945 240.439 281.558 240.375 282.161L210.2 282.223Z" fill="#B4C9DB"/>
<path fill-rule="evenodd" clip-rule="evenodd" d="M373.187 279.189C372.915 278.867 372.655 278.537 372.408 278.202C371.71 277.259 371.076 276.265 370.469 275.245L374.109 275.237C374.35 275.237 374.589 275.224 374.824 275.201C374.685 276.707 374.093 278.082 373.187 279.189Z" fill="#D4DEE4"/>
<path fill-rule="evenodd" clip-rule="evenodd" d="M372.498 279.923C372.484 279.906 372.471 279.891 372.457 279.875C372.158 279.522 371.873 279.162 371.603 278.796C370.762 277.654 370.018 276.458 369.31 275.247L370.469 275.245C371.076 276.265 371.71 277.259 372.408 278.202C372.655 278.537 372.915 278.867 373.187 279.189C372.974 279.449 372.744 279.694 372.498 279.923Z" fill="#25397B"/>
<path fill-rule="evenodd" clip-rule="evenodd" d="M55.2634 200.489C54.9114 200.241 54.5574 199.997 54.2014 199.754V199.539C54.5544 199.856 54.9084 200.173 55.2634 200.489Z" fill="#C0D2E1"/>
<path fill-rule="evenodd" clip-rule="evenodd" d="M53.9724 88.4654L53.9614 83.2644C54.6954 82.3754 55.3534 81.5864 55.8374 81.0394C56.4084 80.3924 56.9854 79.7204 57.2844 78.9104C57.5834 78.1014 57.5534 77.1144 56.9874 76.4614C56.4514 75.8404 55.7434 75.2674 54.6124 75.2674C54.4054 75.2674 54.1834 75.2864 53.9454 75.3284L53.9393 72.6204C53.9314 68.7804 56.8554 65.6184 60.6004 65.2544C60.5794 65.4864 60.5684 65.7204 60.5694 65.9574L60.6094 85.6524C58.3744 86.5144 56.1594 87.4534 53.9724 88.4654Z" fill="#D4DEE4"/>
<path fill-rule="evenodd" clip-rule="evenodd" d="M60.8284 193.862C59.7084 190.873 58.8384 187.794 58.3474 184.632C57.5514 179.512 57.7514 174.278 56.9704 169.156C56.4484 165.731 55.4844 162.374 54.1184 159.19L54.0984 149.822C56.1724 151.376 58.4394 152.663 60.7474 153.844L60.8284 193.862ZM60.7454 152.718C58.3954 151.496 56.1244 150.165 54.0964 148.559L54.0084 105.834C56.0054 103.358 58.2444 101.05 60.6364 98.8843L60.7454 152.718ZM54.0044 104.267L53.9724 88.4653C56.1594 87.4533 58.3744 86.5143 60.6094 85.6523L60.6334 97.5443C58.2654 99.6393 56.0284 101.872 54.0044 104.267Z" fill="#C0D2E1"/>
<path fill-rule="evenodd" clip-rule="evenodd" d="M53.9614 83.2643L53.9454 75.3283C54.1834 75.2863 54.4054 75.2673 54.6124 75.2673C55.7434 75.2673 56.4514 75.8403 56.9874 76.4613C57.5534 77.1143 57.5834 78.1013 57.2844 78.9103C56.9854 79.7203 56.4084 80.3923 55.8374 81.0393C55.3534 81.5863 54.6954 82.3753 53.9614 83.2643Z" fill="#5A5B98"/>
<path fill-rule="evenodd" clip-rule="evenodd" d="M60.7474 153.844C58.4394 152.663 56.1724 151.376 54.0984 149.822L54.0964 148.559C56.1244 150.165 58.3954 151.496 60.7454 152.718L60.7474 153.844ZM54.0084 105.834L54.0044 104.267C56.0284 101.872 58.2654 99.6392 60.6334 97.5442L60.6364 98.8842C58.2444 101.05 56.0054 103.358 54.0084 105.834Z" fill="#325594"/>
<path fill-rule="evenodd" clip-rule="evenodd" d="M60.8504 204.777C59.0694 203.278 57.1964 201.848 55.2634 200.489C54.9084 200.173 54.5544 199.856 54.2014 199.539L54.1884 193.581C55.7164 196.338 57.2944 199.031 58.8684 201.503C59.5314 202.543 60.1934 203.543 60.8504 204.493V204.777ZM60.8464 202.71C60.4684 202.143 60.0904 201.561 59.7124 200.966C57.8484 198.041 55.9754 194.793 54.1844 191.493L54.1184 159.19C55.4844 162.374 56.4484 165.731 56.9704 169.156C57.7514 174.278 57.5514 179.512 58.3474 184.632C58.8384 187.794 59.7084 190.873 60.8284 193.862L60.8464 202.71Z" fill="#169186"/>
<path fill-rule="evenodd" clip-rule="evenodd" d="M60.8504 204.493C60.1934 203.543 59.5315 202.543 58.8685 201.503C57.2945 199.031 55.7164 196.338 54.1884 193.581L54.1844 191.493C55.9754 194.793 57.8484 198.041 59.7124 200.966C60.0904 201.561 60.4684 202.143 60.8464 202.71L60.8504 204.493Z" fill="#135F52"/>
<path fill-rule="evenodd" clip-rule="evenodd" d="M60.8544 206.48H57.0354C56.1004 206.013 55.1564 205.55 54.2124 205.096L54.2014 199.754C54.5574 199.997 54.9114 200.241 55.2634 200.489C57.1964 201.848 59.0694 203.278 60.8504 204.777L60.8544 206.48ZM54.7774 206.48H54.2154V206.207C54.4024 206.298 54.5904 206.389 54.7774 206.48Z" fill="#335091"/>
<path fill-rule="evenodd" clip-rule="evenodd" d="M57.0354 206.48H54.7774C54.5904 206.389 54.4024 206.298 54.2154 206.207L54.2124 205.096C55.1564 205.55 56.1004 206.013 57.0354 206.48Z" fill="#25397B"/>
<path fill-rule="evenodd" clip-rule="evenodd" d="M381.479 271.857C381.479 275.928 378.179 279.227 374.109 279.237L178.479 279.638L68.3894 279.867C64.3094 279.878 60.9894 276.577 60.9794 272.498L60.5694 69.9573C60.5594 65.8883 63.8594 62.5673 67.9394 62.5583L373.659 61.9282C377.739 61.9173 381.059 65.2173 381.069 69.2973L381.089 77.1873L381.479 271.838V271.857Z" fill="#FFFFFE" stroke="#D7D7D7"/>
<path fill-rule="evenodd" clip-rule="evenodd" d="M373.167 59.6895L68.7464 60.3185C64.3064 60.3275 60.7144 63.9345 60.7244 68.3745L60.7384 75.3655L381.237 74.7035L381.222 67.7125C381.214 63.2725 377.606 59.6815 373.167 59.6895Z" fill="#CAD1D9"/>
<path fill-rule="evenodd" clip-rule="evenodd" d="M107.566 262.165L71.6904 262.239C70.2444 262.242 69.0714 261.073 69.0684 259.628L69.0664 258.848C69.0634 257.402 70.2324 256.228 71.6784 256.226L107.552 256.151C108.998 256.148 110.172 257.317 110.175 258.763L110.177 259.543C110.181 260.988 109.011 262.162 107.566 262.165Z" fill="#FFFFFE"/>
<path fill-rule="evenodd" clip-rule="evenodd" d="M161.9 212.409H68.5904C66.8734 212.409 65.4814 211.016 65.4814 209.3V185.978C65.4814 184.261 66.8734 182.87 68.5904 182.87H161.9C163.617 182.87 165.009 184.261 165.009 185.978V209.3C165.009 211.016 163.617 212.409 161.9 212.409Z" fill="#D1E9F1"/>
<path fill-rule="evenodd" clip-rule="evenodd" d="M167.775 204.539H165.009V185.978C165.009 184.261 163.617 182.87 161.9 182.87H71.3555V178.109C71.3555 176.392 72.7475 175 74.4645 175H167.775C169.491 175 170.883 176.392 170.883 178.109V201.43C170.883 203.147 169.491 204.539 167.775 204.539Z" fill="#F3F9FB"/>
<path fill-rule="evenodd" clip-rule="evenodd" d="M165.009 204.539H160.15C160.023 202.938 158.684 201.679 157.051 201.679H71.3655C71.3595 201.597 71.3555 201.514 71.3555 201.43V182.87H161.9C163.617 182.87 165.009 184.261 165.009 185.978V204.539Z" fill="#D1E9F1"/>
<path fill-rule="evenodd" clip-rule="evenodd" d="M378.787 126.531C366.228 126.531 356.047 116.35 356.047 103.79C356.047 91.2313 366.228 81.0503 378.787 81.0503C391.346 81.0503 401.527 91.2313 401.527 103.79C401.527 116.35 391.346 126.531 378.787 126.531Z" fill="#4DB9B4"/>
<path fill-rule="evenodd" clip-rule="evenodd" d="M378.787 126.531C366.228 126.531 356.047 116.35 356.047 103.79C356.047 91.2313 366.228 81.0503 378.787 81.0503C391.346 81.0503 401.527 91.2313 401.527 103.79C401.527 116.35 391.346 126.531 378.787 126.531Z" fill="#4DB9B4"/>
<path d="M100 87H75C73.8954 87 73 87.8954 73 89V96C73 97.1046 73.8954 98 75 98H100C101.105 98 102 97.1046 102 96V89C102 87.8954 101.105 87 100 87Z" fill="#4DB9B4"/>
<path fill-rule="evenodd" clip-rule="evenodd" d="M78.3034 67.6812C78.3064 69.1112 77.1494 70.2732 75.7184 70.2762C74.2884 70.2792 73.1264 69.1222 73.1234 67.6922C73.1204 66.2612 74.2774 65.0992 75.7084 65.0962C77.1384 65.0932 78.3004 66.2502 78.3034 67.6812Z" fill="#FFFFFE"/>
<path fill-rule="evenodd" clip-rule="evenodd" d="M89.2684 67.6592C89.2714 69.0892 88.1134 70.2512 86.6834 70.2542C85.2534 70.2572 84.0914 69.1002 84.0884 67.6692C84.0854 66.2392 85.2424 65.0772 86.6734 65.0742C88.1034 65.0712 89.2654 66.2282 89.2684 67.6592Z" fill="#FFFFFE"/>
<path fill-rule="evenodd" clip-rule="evenodd" d="M100.233 67.6363C100.236 69.0663 99.0784 70.2283 97.6484 70.2313C96.2174 70.2343 95.0554 69.0773 95.0524 67.6463C95.0494 66.2163 96.2074 65.0543 97.6374 65.0513C99.0684 65.0483 100.23 66.2053 100.233 67.6363Z" fill="#FFFFFE"/>
<path fill-rule="evenodd" clip-rule="evenodd" d="M43.4535 234.511C42.0665 234.337 40.9625 233.248 40.7675 231.867C41.6545 232.754 42.5515 233.637 43.4535 234.511Z" fill="#C0D2E1"/>
<path fill-rule="evenodd" clip-rule="evenodd" d="M54.2735 234.535H43.8445C43.7125 234.535 43.5815 234.527 43.4535 234.511C42.5515 233.637 41.6545 232.754 40.7675 231.867C40.7465 231.723 40.7355 231.576 40.7355 231.427V211.126C43.6335 211.28 46.5355 211.358 49.4375 211.358C49.5915 211.358 49.7445 211.358 49.8985 211.357C49.9255 211.357 49.9525 211.357 49.9795 211.357C51.3525 211.357 52.7765 211.458 54.2265 211.651L54.2735 234.535Z" fill="#C0D2E1"/>
<path fill-rule="evenodd" clip-rule="evenodd" d="M54.2265 211.651C52.7765 211.458 51.3525 211.357 49.9795 211.357C49.9525 211.357 49.9255 211.357 49.8985 211.357C49.7445 211.358 49.5915 211.358 49.4375 211.358C46.5355 211.358 43.6335 211.28 40.7355 211.126V209.59C40.7355 207.872 42.1275 206.48 43.8445 206.48H54.2155L54.2265 211.651Z" fill="#335091"/>
<path fill-rule="evenodd" clip-rule="evenodd" d="M60.9104 234.535H54.2734L54.2264 211.651C56.4124 211.943 58.6564 212.444 60.8674 213.126L60.9104 234.535Z" fill="#A4B7CD"/>
<path fill-rule="evenodd" clip-rule="evenodd" d="M60.8675 213.126C58.6565 212.444 56.4125 211.943 54.2265 211.651L54.2155 206.48H54.7775C55.0205 206.599 55.2635 206.718 55.5055 206.837C57.3445 207.743 59.1615 208.674 60.8605 209.59L60.8675 213.126ZM60.8585 208.454C59.6265 207.796 58.3415 207.134 57.0355 206.48H60.8545L60.8585 208.454Z" fill="#2E4A8D"/>
<path fill-rule="evenodd" clip-rule="evenodd" d="M60.8605 209.59C59.1615 208.674 57.3445 207.743 55.5055 206.837C55.2635 206.718 55.0205 206.599 54.7775 206.48H57.0355C58.3415 207.134 59.6265 207.796 60.8585 208.454L60.8605 209.59Z" fill="#273670"/>
<path fill-rule="evenodd" clip-rule="evenodd" d="M157.051 234.535H60.9104L60.8544 206.48H65.4814V214.101C65.4814 215.817 66.8734 217.21 68.5904 217.21H160.16V231.427C160.16 233.143 158.768 234.535 157.051 234.535Z" fill="#D9E1E5"/>
<path fill-rule="evenodd" clip-rule="evenodd" d="M160.16 217.21H68.5904C66.8734 217.21 65.4814 215.817 65.4814 214.101V206.48H71.3654C71.4924 208.081 72.8314 209.34 74.4644 209.34H160.15C160.157 209.422 160.16 209.506 160.16 209.59V217.21Z" fill="#B3CDDF"/>
<path fill-rule="evenodd" clip-rule="evenodd" d="M160.15 209.34H74.4645C72.8315 209.34 71.4925 208.081 71.3655 206.48H157.051C158.684 206.48 160.023 207.739 160.15 209.34Z" fill="#B3CDDF"/>
<path fill-rule="evenodd" clip-rule="evenodd" d="M344.7 187H185.449C183.035 187 181.075 185.092 181.075 182.738V92.2636C181.075 89.9097 183.035 88 185.449 88H344.7C347.117 88 349.075 89.9097 349.075 92.2636V182.738C349.075 185.092 347.117 187 344.7 187Z" fill="#CAD8E8"/>
<path fill-rule="evenodd" clip-rule="evenodd" d="M102.548 113.68L75.3234 113.736C74.1084 113.739 73.1214 112.756 73.1184 111.541L73.1174 110.885C73.1144 109.67 74.0974 108.683 75.3134 108.681L102.537 108.624C103.753 108.622 104.74 109.605 104.742 110.82L104.744 111.476C104.746 112.69 103.763 113.678 102.548 113.68Z" fill="#668CBB"/>
<path fill-rule="evenodd" clip-rule="evenodd" d="M90.8684 158.845L75.3234 158.877C74.1084 158.88 73.1214 157.897 73.1184 156.682L73.1174 156.026C73.1144 154.811 74.0974 153.824 75.3134 153.821L90.8585 153.789C92.0735 153.787 93.0604 154.77 93.0624 155.985L93.0645 156.641C93.0665 157.855 92.0834 158.843 90.8684 158.845Z" fill="#E15A4B"/>
<path fill-rule="evenodd" clip-rule="evenodd" d="M137.578 122.501L75.3234 122.629C74.1084 122.632 73.1214 121.649 73.1184 120.434L73.1174 119.778C73.1144 118.563 74.0974 117.576 75.3134 117.574L137.568 117.445C138.783 117.442 139.77 118.426 139.772 119.641L139.774 120.296C139.776 121.511 138.793 122.498 137.578 122.501Z" fill="#668CBB"/>
<path fill-rule="evenodd" clip-rule="evenodd" d="M157.312 135.294L73.9224 135.466C73.4794 135.467 73.1204 135.109 73.1194 134.666L73.1184 134.427C73.1174 133.984 73.4764 133.625 73.9194 133.624L157.308 133.452C157.751 133.451 158.111 133.809 158.111 134.252L158.112 134.491C158.113 134.934 157.755 135.293 157.312 135.294Z" fill="#DDE1DE"/>
<path fill-rule="evenodd" clip-rule="evenodd" d="M157.312 131.247L73.9224 131.42C73.4794 131.421 73.1204 131.062 73.1194 130.62L73.1184 130.381C73.1174 129.938 73.4764 129.579 73.9194 129.578L157.308 129.406C157.751 129.405 158.111 129.763 158.111 130.205L158.112 130.444C158.113 130.887 157.755 131.247 157.312 131.247Z" fill="#DDE1DE"/>
<path fill-rule="evenodd" clip-rule="evenodd" d="M157.315 139.34L73.9245 139.513C73.4825 139.513 73.1225 139.155 73.1215 138.712V138.474C73.1205 138.031 73.4785 137.671 73.9215 137.67L157.311 137.498C157.754 137.497 158.113 137.855 158.114 138.298V138.537C158.115 138.979 157.757 139.339 157.315 139.34Z" fill="#DDE1DE"/>
<path fill-rule="evenodd" clip-rule="evenodd" d="M157.317 143.387L73.9274 143.559C73.4844 143.56 73.1254 143.202 73.1244 142.759L73.1234 142.52C73.1224 142.077 73.4804 141.717 73.9234 141.717L157.313 141.544C157.756 141.543 158.115 141.902 158.116 142.344L158.117 142.583C158.118 143.026 157.759 143.386 157.317 143.387Z" fill="#DDE1DE"/>
<path fill-rule="evenodd" clip-rule="evenodd" d="M137.896 147.453L73.9294 147.585C73.4864 147.586 73.1274 147.227 73.1264 146.785L73.1254 146.546C73.1254 146.103 73.4834 145.744 73.9254 145.743L137.892 145.611C138.335 145.61 138.695 145.968 138.695 146.411L138.696 146.649C138.696 147.092 138.339 147.452 137.896 147.453Z" fill="#DDE1DE"/>
<path fill-rule="evenodd" clip-rule="evenodd" d="M236.17 255.778L182.634 255.889C182.192 255.89 181.832 255.531 181.831 255.089V254.85C181.83 254.407 182.188 254.047 182.631 254.046L236.166 253.935C236.608 253.935 236.967 254.293 236.968 254.735L236.969 254.975C236.97 255.417 236.612 255.777 236.17 255.778Z" fill="#DDE1DE"/>
<path fill-rule="evenodd" clip-rule="evenodd" d="M236.167 251.731L182.632 251.842C182.189 251.843 181.829 251.485 181.828 251.042V250.804C181.827 250.36 182.185 250.001 182.628 250L236.163 249.89C236.605 249.889 236.965 250.247 236.966 250.689V250.929C236.967 251.371 236.609 251.73 236.167 251.731Z" fill="#DDE1DE"/>
<path fill-rule="evenodd" clip-rule="evenodd" d="M236.174 259.824L182.639 259.935C182.196 259.935 181.837 259.577 181.836 259.135L181.835 258.895C181.834 258.453 182.192 258.094 182.635 258.093L236.17 257.982C236.613 257.981 236.972 258.339 236.973 258.782V259.02C236.974 259.464 236.617 259.823 236.174 259.824Z" fill="#DDE1DE"/>
<path fill-rule="evenodd" clip-rule="evenodd" d="M236.178 263.87L182.643 263.981C182.2 263.982 181.841 263.624 181.84 263.181V262.942C181.839 262.499 182.196 262.14 182.639 262.139L236.174 262.028C236.617 262.027 236.977 262.386 236.977 262.828L236.978 263.067C236.979 263.51 236.621 263.869 236.178 263.87Z" fill="#DDE1DE"/>
<path fill-rule="evenodd" clip-rule="evenodd" d="M223.582 267.923L182.648 268.007C182.205 268.008 181.845 267.65 181.844 267.207V266.969C181.843 266.525 182.201 266.166 182.644 266.165L223.578 266.081C224.021 266.08 224.381 266.437 224.382 266.881V267.119C224.382 267.562 224.025 267.922 223.582 267.923Z" fill="#DDE1DE"/>
<path fill-rule="evenodd" clip-rule="evenodd" d="M297.758 255.807L244.223 255.917C243.78 255.918 243.421 255.56 243.42 255.117V254.878C243.419 254.435 243.777 254.076 244.219 254.075L297.755 253.964C298.197 253.963 298.556 254.321 298.557 254.765L298.558 255.003C298.559 255.446 298.201 255.806 297.758 255.807Z" fill="#DDE1DE"/>
<path fill-rule="evenodd" clip-rule="evenodd" d="M297.756 251.76L244.22 251.871C243.777 251.872 243.418 251.514 243.417 251.07V250.832C243.416 250.39 243.773 250.029 244.216 250.028L297.752 249.918C298.194 249.917 298.553 250.275 298.554 250.718L298.555 250.957C298.556 251.399 298.198 251.759 297.756 251.76Z" fill="#DDE1DE"/>
<path fill-rule="evenodd" clip-rule="evenodd" d="M297.762 259.852L244.227 259.963C243.785 259.964 243.425 259.606 243.424 259.163V258.925C243.423 258.481 243.781 258.122 244.223 258.121L297.758 258.011C298.202 258.01 298.561 258.368 298.562 258.81V259.05C298.563 259.492 298.205 259.851 297.762 259.852Z" fill="#DDE1DE"/>
<path fill-rule="evenodd" clip-rule="evenodd" d="M297.767 263.899L244.232 264.01C243.79 264.011 243.429 263.652 243.428 263.21V262.971C243.427 262.528 243.786 262.168 244.228 262.167L297.763 262.057C298.206 262.056 298.565 262.414 298.566 262.856L298.567 263.096C298.568 263.538 298.21 263.898 297.767 263.899Z" fill="#DDE1DE"/>
<path fill-rule="evenodd" clip-rule="evenodd" d="M285.171 267.951L244.236 268.036C243.794 268.037 243.434 267.679 243.433 267.235L243.432 266.997C243.431 266.554 243.79 266.194 244.233 266.193L285.167 266.109C285.61 266.108 285.969 266.467 285.97 266.909V267.148C285.971 267.591 285.614 267.95 285.171 267.951Z" fill="#DDE1DE"/>
<path fill-rule="evenodd" clip-rule="evenodd" d="M359.346 255.807L305.812 255.917C305.369 255.918 305.009 255.56 305.008 255.117V254.878C305.007 254.435 305.365 254.076 305.808 254.075L359.343 253.964C359.786 253.963 360.145 254.321 360.146 254.765L360.147 255.003C360.148 255.446 359.79 255.806 359.346 255.807Z" fill="#DDE1DE"/>
<path fill-rule="evenodd" clip-rule="evenodd" d="M359.343 251.76L305.809 251.871C305.366 251.872 305.006 251.514 305.006 251.07V250.832C305.005 250.39 305.362 250.029 305.805 250.028L359.341 249.918C359.783 249.917 360.142 250.275 360.143 250.718L360.144 250.957C360.145 251.399 359.787 251.759 359.343 251.76Z" fill="#DDE1DE"/>
<path fill-rule="evenodd" clip-rule="evenodd" d="M359.351 259.852L305.816 259.963C305.374 259.964 305.014 259.606 305.013 259.163L305.012 258.925C305.011 258.481 305.37 258.122 305.812 258.121L359.347 258.011C359.79 258.01 360.15 258.368 360.151 258.81V259.05C360.152 259.492 359.794 259.851 359.351 259.852Z" fill="#DDE1DE"/>
<path fill-rule="evenodd" clip-rule="evenodd" d="M359.356 263.899L305.821 264.01C305.378 264.011 305.018 263.652 305.017 263.21V262.971C305.016 262.528 305.375 262.168 305.817 262.167L359.352 262.057C359.795 262.056 360.154 262.414 360.155 262.856L360.156 263.096C360.157 263.538 359.799 263.898 359.356 263.899Z" fill="#DDE1DE"/>
<path fill-rule="evenodd" clip-rule="evenodd" d="M346.759 267.951L305.825 268.036C305.382 268.037 305.023 267.679 305.022 267.235L305.021 266.997C305.02 266.554 305.379 266.194 305.822 266.193L346.756 266.109C347.199 266.108 347.558 266.467 347.559 266.909V267.148C347.56 267.591 347.202 267.95 346.759 267.951Z" fill="#DDE1DE"/>
<path fill-rule="evenodd" clip-rule="evenodd" d="M91.0895 266.733L73.9295 266.768C73.4865 266.769 73.1275 266.411 73.1265 265.969V265.729C73.1255 265.287 73.4835 264.927 73.9255 264.927L91.0855 264.891C91.5285 264.89 91.8875 265.248 91.8885 265.69L91.8895 265.93C91.8905 266.372 91.5315 266.732 91.0895 266.733Z" fill="#DDE1DE"/>
<path fill-rule="evenodd" clip-rule="evenodd" d="M116.939 266.733L99.7794 266.768C99.3374 266.769 98.9774 266.411 98.9764 265.969V265.729C98.9754 265.287 99.3334 264.927 99.7764 264.927L116.935 264.891C117.378 264.89 117.737 265.248 117.738 265.69L117.739 265.93C117.74 266.372 117.382 266.732 116.939 266.733Z" fill="#DDE1DE"/>
<path fill-rule="evenodd" clip-rule="evenodd" d="M142.789 266.733L125.63 266.768C125.187 266.769 124.827 266.411 124.826 265.969V265.729C124.825 265.287 125.183 264.927 125.626 264.927L142.785 264.891C143.228 264.89 143.588 265.248 143.589 265.69L143.59 265.93C143.591 266.372 143.232 266.732 142.789 266.733Z" fill="#DDE1DE"/>
<path fill-rule="evenodd" clip-rule="evenodd" d="M168.64 266.733L151.48 266.768C151.037 266.769 150.678 266.411 150.677 265.969L150.676 265.729C150.675 265.287 151.033 264.927 151.476 264.927L168.636 264.891C169.079 264.89 169.438 265.248 169.439 265.69L169.44 265.93C169.441 266.372 169.082 266.732 168.64 266.733Z" fill="#DDE1DE"/>
<path fill-rule="evenodd" clip-rule="evenodd" d="M143.969 222.375H52.9265C50.2845 222.375 48.1425 220.232 48.1425 217.591C48.1425 214.948 50.2845 212.807 52.9265 212.807H143.969C146.611 212.807 148.753 214.948 148.753 217.591C148.753 220.232 146.611 222.375 143.969 222.375Z" fill="#FFFFFE"/>
<path fill-rule="evenodd" clip-rule="evenodd" d="M148.753 217.591C148.753 223.453 144.001 228.205 138.139 228.205C132.277 228.205 127.525 223.453 127.525 217.591C127.525 211.728 132.277 206.976 138.139 206.976C144.001 206.976 148.753 211.728 148.753 217.591Z" fill="#FFFFFE"/>
<path fill-rule="evenodd" clip-rule="evenodd" d="M53.2324 219.823H54.2324V215.394H53.2324V219.823Z" fill="#A0A19D"/>
<path fill-rule="evenodd" clip-rule="evenodd" d="M140.931 217.062H140.431C140.428 218.689 139.112 220.005 137.485 220.008C135.858 220.005 134.543 218.689 134.54 217.062C134.543 215.436 135.859 214.12 137.485 214.117C139.111 214.12 140.428 215.437 140.431 217.062H141.431C141.43 214.884 139.664 213.117 137.485 213.117C135.306 213.117 133.54 214.884 133.54 217.062C133.54 219.242 135.306 221.007 137.485 221.008C139.664 221.007 141.431 219.242 141.431 217.062H140.931Z" fill="#342B66"/>
<path fill-rule="evenodd" clip-rule="evenodd" d="M142.567 221.187L140.224 219.146C140.015 218.965 139.7 218.987 139.518 219.195C139.337 219.403 139.359 219.719 139.567 219.9L141.91 221.941C142.118 222.123 142.434 222.101 142.615 221.893C142.797 221.685 142.775 221.369 142.567 221.187Z" fill="#342B66"/>
<path fill-rule="evenodd" clip-rule="evenodd" d="M147 14L154.794 18.5V27.5L147 32L139.206 27.5V18.5L147 14Z" fill="#FFB461"/>
<path fill-rule="evenodd" clip-rule="evenodd" d="M296 303L303.794 307.5V316.5L296 321L288.206 316.5V307.5L296 303Z" fill="#91CFC0"/>
<path fill-rule="evenodd" clip-rule="evenodd" d="M332 18L339.794 22.5V31.5L332 36L324.206 31.5V22.5L332 18Z" fill="#00CAC5"/>
<path fill-rule="evenodd" clip-rule="evenodd" d="M199.241 137.127C199.241 137.608 198.852 137.998 198.371 137.998C197.89 137.998 197.501 137.608 197.501 137.127C197.501 136.647 197.89 136.257 198.371 136.257C198.852 136.257 199.241 136.647 199.241 137.127Z" fill="#FFFFFE"/>
<path fill-rule="evenodd" clip-rule="evenodd" d="M243.887 127.801C243.887 128.281 243.498 128.671 243.017 128.671C242.536 128.671 242.146 128.281 242.146 127.801C242.146 127.32 242.536 126.93 243.017 126.93C243.498 126.93 243.887 127.32 243.887 127.801Z" fill="#FFFFFE"/>
<path fill-rule="evenodd" clip-rule="evenodd" d="M241.579 137.545C241.579 138.026 241.189 138.415 240.709 138.415C240.227 138.415 239.839 138.026 239.839 137.545C239.839 137.065 240.227 136.675 240.709 136.675C241.189 136.675 241.579 137.065 241.579 137.545Z" fill="#FFFFFE"/>
<path fill-rule="evenodd" clip-rule="evenodd" d="M306.36 140.538C306.36 141.019 305.97 141.409 305.49 141.409C305.008 141.409 304.619 141.019 304.619 140.538C304.619 140.058 305.008 139.668 305.49 139.668C305.97 139.668 306.36 140.058 306.36 140.538Z" fill="#FFFFFE"/>
<path fill-rule="evenodd" clip-rule="evenodd" d="M300.233 147.538C300.233 148.019 299.843 148.409 299.363 148.409C298.882 148.409 298.492 148.019 298.492 147.538C298.492 147.058 298.882 146.668 299.363 146.668C299.843 146.668 300.233 147.058 300.233 147.538Z" fill="#FFFFFE"/>
<path fill-rule="evenodd" clip-rule="evenodd" d="M238.946 147.082C238.946 147.563 238.556 147.953 238.076 147.953C237.595 147.953 237.206 147.563 237.206 147.082C237.206 146.601 237.595 146.212 238.076 146.212C238.556 146.212 238.946 146.601 238.946 147.082Z" fill="#FFFFFE"/>
<path fill-rule="evenodd" clip-rule="evenodd" d="M271.779 139.286C271.779 139.767 271.389 140.156 270.909 140.156C270.428 140.156 270.039 139.767 270.039 139.286C270.039 138.805 270.428 138.415 270.909 138.415C271.389 138.415 271.779 138.805 271.779 139.286Z" fill="#FFFFFE"/>
<path fill-rule="evenodd" clip-rule="evenodd" d="M208 221.801C208 229.257 201.956 235.301 194.5 235.301C187.044 235.301 181 229.257 181 221.801C181 214.346 187.044 208.301 194.5 208.301C201.956 208.301 208 214.346 208 221.801Z" fill="#D1E9F1"/>
<path fill-rule="evenodd" clip-rule="evenodd" d="M274 221.801C274 229.257 267.956 235.301 260.5 235.301C253.044 235.301 247 229.257 247 221.801C247 214.346 253.044 208.301 260.5 208.301C267.956 208.301 274 214.346 274 221.801Z" fill="#D1E9F1"/>
<path fill-rule="evenodd" clip-rule="evenodd" d="M332 221.801C332 229.257 325.956 235.301 318.5 235.301C311.044 235.301 305 229.257 305 221.801C305 214.346 311.044 208.301 318.5 208.301C325.956 208.301 332 214.346 332 221.801Z" fill="#D1E9F1"/>
<path fill-rule="evenodd" clip-rule="evenodd" d="M354.477 258.021C354.371 257.286 354.262 256.551 354.15 255.817H354.424C354.537 256.551 354.647 257.285 354.754 258.02L354.477 258.021ZM353.862 253.975C353.745 253.248 353.624 252.521 353.499 251.795C353.497 251.787 353.496 251.779 353.495 251.772L353.76 251.771C353.782 251.898 353.803 252.025 353.825 252.152C353.93 252.759 354.032 253.367 354.131 253.975H353.862Z" fill="#D9E1E5"/>
<path fill-rule="evenodd" clip-rule="evenodd" d="M354.15 255.817C354.057 255.203 353.961 254.589 353.862 253.975H354.131C354.231 254.589 354.329 255.202 354.424 255.817H354.15Z" fill="#BBC3C8"/>
<path fill-rule="evenodd" clip-rule="evenodd" d="M316.955 251.848C317.232 251.231 317.518 250.615 317.813 250.003L318.323 250.002C318.024 250.614 317.733 251.23 317.452 251.847L316.955 251.848ZM353.495 251.772C353.39 251.158 353.284 250.545 353.178 249.931L353.444 249.93C353.55 250.543 353.655 251.158 353.76 251.771L353.495 251.772Z" fill="#BBC3C8"/>
<path fill-rule="evenodd" clip-rule="evenodd" d="M313.804 259.946C314.011 259.33 314.223 258.716 314.442 258.103L314.906 258.102C314.684 258.715 314.469 259.329 314.26 259.945L313.804 259.946ZM354.735 259.862C354.651 259.248 354.565 258.634 354.477 258.021L354.754 258.02C354.844 258.633 354.931 259.248 355.016 259.861L354.735 259.862Z" fill="#BBC3C8"/>
<path fill-rule="evenodd" clip-rule="evenodd" d="M312.534 263.996C312.715 263.379 312.9 262.766 313.091 262.152L313.538 262.151C313.345 262.764 313.157 263.378 312.975 263.995L312.534 263.996ZM355.267 263.908C355.19 263.293 355.111 262.68 355.03 262.065H355.315C355.396 262.679 355.475 263.293 355.554 263.907L355.267 263.908Z" fill="#BBC3C8"/>
<path fill-rule="evenodd" clip-rule="evenodd" d="M311.425 268.024C311.585 267.409 311.748 266.794 311.916 266.181L312.349 266.18C312.179 266.793 312.014 267.407 311.853 268.024H311.425Z" fill="#BBC3C8"/>
<path fill-rule="evenodd" clip-rule="evenodd" d="M309.039 302.367C309.051 302.307 309.063 302.252 309.075 302.202C310.678 295.533 311.893 288.751 313.22 282.01H313.223C311.895 288.75 310.681 295.53 309.08 302.198C309.068 302.248 309.056 302.303 309.043 302.362C309.042 302.363 309.04 302.365 309.039 302.367Z" fill="#C0D2E1"/>
<path fill-rule="evenodd" clip-rule="evenodd" d="M313.22 282.01C313.659 279.786 314.109 277.569 314.589 275.359H314.592C314.111 277.568 313.66 279.787 313.223 282.01H313.22Z" fill="#A4B7CD"/>
<path fill-rule="evenodd" clip-rule="evenodd" d="M314.589 275.359C315.125 272.896 315.699 270.445 316.335 268.014H316.337C315.701 270.445 315.127 272.896 314.592 275.359H314.589ZM316.831 266.171C317.034 265.44 317.242 264.712 317.457 263.986H317.459C317.244 264.712 317.036 265.44 316.833 266.171H316.831ZM318.021 262.142C318.253 261.404 318.494 260.669 318.743 259.936H318.744C318.496 260.668 318.255 261.405 318.023 262.142H318.021ZM319.39 258.093C319.657 257.355 319.935 256.619 320.222 255.887H320.223C319.936 256.619 319.659 257.355 319.391 258.093H319.39ZM320.971 254.044C321.281 253.305 321.603 252.569 321.936 251.837H321.937C321.604 252.569 321.282 253.305 320.972 254.044H320.971Z" fill="#D9E1E5"/>
<path fill-rule="evenodd" clip-rule="evenodd" d="M320.222 255.887C320.464 255.27 320.713 254.656 320.971 254.044H320.972C320.715 254.656 320.466 255.27 320.223 255.887H320.222Z" fill="#BBC3C8"/>
<path fill-rule="evenodd" clip-rule="evenodd" d="M322.807 249.993C323.17 249.252 323.546 248.515 323.935 247.782C324.18 247.322 324.454 246.807 324.756 246.25C324.479 246.763 324.206 247.274 323.937 247.779C323.547 248.513 323.171 249.251 322.808 249.993H322.807Z" fill="#D9E1E5"/>
<path fill-rule="evenodd" clip-rule="evenodd" d="M321.936 251.837C322.218 251.22 322.508 250.605 322.807 249.993H322.808C322.509 250.605 322.219 251.22 321.937 251.837H321.936Z" fill="#BBC3C8"/>
<path fill-rule="evenodd" clip-rule="evenodd" d="M318.743 259.936C318.952 259.32 319.167 258.706 319.39 258.093H319.391C319.169 258.706 318.954 259.32 318.744 259.936H318.743Z" fill="#BBC3C8"/>
<path fill-rule="evenodd" clip-rule="evenodd" d="M317.457 263.986C317.64 263.369 317.828 262.755 318.021 262.142H318.023C317.829 262.755 317.642 263.369 317.459 263.986H317.457Z" fill="#BBC3C8"/>
<path fill-rule="evenodd" clip-rule="evenodd" d="M316.335 268.014C316.496 267.399 316.662 266.783 316.831 266.171H316.833C316.664 266.784 316.499 267.398 316.337 268.014H316.335Z" fill="#BBC3C8"/>
<path fill-rule="evenodd" clip-rule="evenodd" d="M365.481 301.993C365.318 300.763 365.061 299.537 364.815 298.322C363.842 293.506 363.098 288.663 362.454 283.811C362.456 283.811 362.455 283.811 362.456 283.811C363.101 288.664 363.844 293.505 364.818 298.323C365.064 299.538 365.319 300.763 365.482 301.992C365.482 301.993 365.482 301.993 365.481 301.993Z" fill="#D9E1E5"/>
<path fill-rule="evenodd" clip-rule="evenodd" d="M362.454 283.811C362.37 283.177 362.288 282.544 362.207 281.909H362.208C362.289 282.543 362.372 283.177 362.456 283.811C362.455 283.811 362.456 283.811 362.454 283.811Z" fill="#D4DEE4"/>
<path fill-rule="evenodd" clip-rule="evenodd" d="M362.207 281.909C361.924 279.696 361.658 277.479 361.397 275.263C361.659 277.479 361.925 279.696 362.208 281.909H362.207Z" fill="#B4C1CD"/>
<path fill-rule="evenodd" clip-rule="evenodd" d="M361.397 275.263C361.324 274.645 361.252 274.03 361.18 273.412C361.252 274.029 361.325 274.646 361.397 275.263Z" fill="#D9E1E5"/>
<path fill-rule="evenodd" clip-rule="evenodd" d="M330.262 237.188C330.443 236.934 330.626 236.682 330.809 236.433C330.81 236.436 330.81 236.438 330.811 236.441C330.626 236.688 330.443 236.937 330.262 237.188ZM354.41 230.44C353.985 228.183 353.553 225.927 353.115 223.673C352.701 221.523 352.593 218.607 351.952 216.121C351.952 216.12 351.952 216.121 351.952 216.12C352.593 218.607 352.702 221.526 353.118 223.673C353.555 225.928 353.985 228.183 354.41 230.44Z" fill="#49B4A1"/>
<path fill-rule="evenodd" clip-rule="evenodd" d="M324.756 246.25C326.142 243.681 327.639 241.038 329.315 238.55H329.326C327.529 241.24 325.936 244.068 324.756 246.25Z" fill="#FAFBFB"/>
<path fill-rule="evenodd" clip-rule="evenodd" d="M329.326 238.55H329.315C329.625 238.09 329.94 237.636 330.262 237.188C329.945 237.636 329.632 238.09 329.326 238.55Z" fill="#5BBBA6"/>
<path fill-rule="evenodd" clip-rule="evenodd" d="M329.315 238.55H325.657C327.064 236.715 328.534 234.908 329.937 233.288C330.225 234.337 330.516 235.385 330.809 236.433C330.626 236.682 330.443 236.934 330.262 237.188C329.94 237.636 329.625 238.09 329.315 238.55Z" fill="#47B19F"/>
<path fill-rule="evenodd" clip-rule="evenodd" d="M312.975 263.995C313.157 263.378 313.345 262.764 313.538 262.151L318.021 262.142C317.828 262.755 317.64 263.369 317.457 263.986L312.975 263.995Z" fill="#B8C1C6"/>
<path fill-rule="evenodd" clip-rule="evenodd" d="M311.853 268.024C312.014 267.407 312.179 266.793 312.349 266.18L316.831 266.171C316.662 266.783 316.496 267.399 316.335 268.014L311.853 268.024Z" fill="#B8C1C6"/>
<path fill-rule="evenodd" clip-rule="evenodd" d="M361.18 273.412C360.795 270.133 360.414 266.856 359.994 263.58C359.995 263.579 359.995 263.579 359.996 263.578C360.415 266.853 360.796 270.133 361.18 273.412ZM359.818 262.205C359.817 262.204 359.816 262.204 359.816 262.203C359.712 261.415 359.606 260.626 359.497 259.839C359.497 259.839 359.498 259.839 359.499 259.839C359.608 260.627 359.714 261.416 359.818 262.205ZM359.237 258.011C359.13 257.276 359.021 256.542 358.907 255.807H358.91C359.024 256.542 359.133 257.276 359.24 258.011H359.237ZM358.615 253.965C358.517 253.36 358.415 252.753 358.311 252.148C358.289 252.02 358.267 251.891 358.245 251.762H358.248C358.27 251.892 358.293 252.022 358.315 252.152C358.419 252.756 358.52 253.361 358.619 253.965H358.615Z" fill="#FAFBFB"/>
<path fill-rule="evenodd" clip-rule="evenodd" d="M358.907 255.807C358.813 255.193 358.715 254.579 358.615 253.965H358.619C358.718 254.579 358.816 255.193 358.91 255.807H358.907Z" fill="#D5DAD9"/>
<path fill-rule="evenodd" clip-rule="evenodd" d="M357.928 249.921C357.272 246.128 356.6 242.337 355.911 238.55H355.913C356.602 242.337 357.274 246.128 357.931 249.921H357.928Z" fill="#FAFBFB"/>
<path fill-rule="evenodd" clip-rule="evenodd" d="M355.913 238.55H355.911C355.419 235.845 354.919 233.142 354.41 230.44C354.92 233.142 355.42 235.845 355.913 238.55Z" fill="#5BBBA6"/>
<path fill-rule="evenodd" clip-rule="evenodd" d="M358.245 251.762C358.14 251.149 358.034 250.534 357.928 249.921H357.931C358.037 250.535 358.143 251.148 358.248 251.762H358.245Z" fill="#D5DAD9"/>
<path fill-rule="evenodd" clip-rule="evenodd" d="M359.497 259.839C359.412 259.23 359.326 258.619 359.237 258.011H359.24C359.328 258.619 359.414 259.23 359.499 259.839C359.498 259.839 359.497 259.839 359.497 259.839Z" fill="#D5DAD9"/>
<path fill-rule="evenodd" clip-rule="evenodd" d="M359.994 263.58C359.936 263.121 359.876 262.662 359.816 262.203C359.816 262.204 359.817 262.204 359.818 262.205C359.878 262.663 359.937 263.12 359.996 263.578C359.995 263.579 359.995 263.579 359.994 263.58Z" fill="#D5DAD9"/>
<path fill-rule="evenodd" clip-rule="evenodd" d="M318.822 173.5C318.768 173.5 318.715 173.499 318.661 173.498C318.344 173.493 318.03 173.465 317.719 173.417L317.706 166.336H323.12C322.057 168.546 321.302 170.92 320.69 173.333C320.075 173.44 319.452 173.5 318.822 173.5Z" fill="#49B4A1"/>
<path fill-rule="evenodd" clip-rule="evenodd" d="M320.61 194.673C320.635 194.595 320.662 194.52 320.693 194.449C321.146 193.392 322.277 193.134 323.393 192.76C324.941 192.24 326.549 191.932 328.161 191.689C328.899 191.579 329.661 191.554 330.329 191.246C330.513 191.161 330.703 191.117 330.891 191.11C330.908 191.11 330.925 191.109 330.942 191.109C331.363 191.109 331.771 191.298 332.078 191.645C332.341 191.943 332.506 192.305 332.617 192.688C332.606 192.675 332.595 192.662 332.584 192.648C332.266 192.271 331.842 192.068 331.398 192.068C331.168 192.068 330.932 192.122 330.704 192.235C329.976 192.596 329.154 192.641 328.355 192.781C326.61 193.089 324.867 193.471 323.185 194.09C322.949 194.177 322.729 194.206 322.522 194.206C322.303 194.206 322.1 194.173 321.911 194.139C321.723 194.106 321.549 194.073 321.389 194.073C321.086 194.073 320.832 194.192 320.618 194.656C320.615 194.662 320.613 194.667 320.61 194.673Z" fill="#3D5C9A"/>
<path fill-rule="evenodd" clip-rule="evenodd" d="M357.798 197.852C357.565 197.852 357.331 197.819 357.097 197.744C355.82 197.339 354.832 196.026 354.416 194.749C354.008 193.496 353.634 190.858 354.666 188.605C354.669 188.599 354.671 188.594 354.674 188.588C354.888 188.124 355.142 188.005 355.445 188.005C355.605 188.005 355.779 188.038 355.967 188.071C356.156 188.105 356.359 188.138 356.578 188.138C356.785 188.138 357.005 188.109 357.241 188.022C358.923 187.403 360.666 187.021 362.411 186.713C363.21 186.573 364.032 186.528 364.76 186.167C364.988 186.054 365.224 186 365.454 186C365.898 186 366.322 186.203 366.64 186.58C366.651 186.594 366.662 186.607 366.673 186.62C366.88 186.879 367.025 187.182 367.129 187.505C367.249 187.875 367.315 188.272 367.361 188.662C367.44 189.333 367.469 190.042 367.204 190.673C366.923 191.345 366.352 191.834 365.81 192.306C365.43 192.637 365.055 192.974 364.68 193.312C363.535 194.344 362.393 195.381 361.142 196.263C360.129 196.978 358.986 197.852 357.798 197.852Z" fill="#3D5C9A"/>
<path fill-rule="evenodd" clip-rule="evenodd" d="M341.883 173.128C341.649 174.296 341.638 175.499 341.446 176.675C341.253 177.851 340.844 179.048 339.974 179.861C339.104 180.676 337.682 180.984 336.697 180.315C335.766 179.684 335.492 178.439 335.463 177.315C335.437 176.332 336.284 172.276 336.284 172.276C336.284 172.276 338.476 172.869 339.035 172.991C339.968 173.194 340.935 173.244 341.883 173.128Z" fill="#345293"/>
<path fill-rule="evenodd" clip-rule="evenodd" d="M380.058 110.124C375.538 111.034 371.543 107.039 372.452 102.518C372.964 99.9753 374.986 97.9553 377.531 97.4513C382.04 96.5563 386.02 100.537 385.126 105.046C384.621 107.591 382.602 109.613 380.058 110.124ZM390.098 106.451H392.003C392.253 106.451 392.455 106.248 392.455 105.998V101.582C392.455 101.332 392.253 101.129 392.003 101.129H390.098C390.045 100.897 389.982 100.664 389.914 100.438L391.562 99.4873C391.779 99.3623 391.853 99.0843 391.728 98.8683L389.52 95.0443C389.395 94.8283 389.118 94.7533 388.901 94.8783L387.251 95.8313C387.087 95.6593 386.919 95.4913 386.747 95.3283L386.746 95.3273L387.699 93.6763C387.824 93.4593 387.75 93.1823 387.533 93.0573L383.71 90.8503C383.493 90.7253 383.216 90.7983 383.091 91.0153L382.137 92.6653C381.912 92.5963 381.681 92.5343 381.448 92.4803V90.5753C381.448 90.3253 381.245 90.1223 380.995 90.1223H376.58C376.33 90.1223 376.127 90.3253 376.127 90.5753V92.4803C375.893 92.5343 375.663 92.5963 375.436 92.6653L374.484 91.0153C374.359 90.7983 374.082 90.7253 373.865 90.8503L370.042 93.0573C369.825 93.1823 369.751 93.4593 369.876 93.6763L370.829 95.3273L370.828 95.3283C370.656 95.4913 370.488 95.6593 370.324 95.8313L368.673 94.8783C368.456 94.7533 368.179 94.8283 368.054 95.0443L365.846 98.8683C365.721 99.0843 365.796 99.3623 366.012 99.4873L367.661 100.439C367.592 100.664 367.53 100.897 367.476 101.129H365.572C365.322 101.129 365.119 101.332 365.119 101.582V105.998C365.119 106.248 365.322 106.451 365.572 106.451H367.475C367.53 106.684 367.592 106.914 367.661 107.141L367.662 107.142L366.012 108.094C365.796 108.219 365.721 108.496 365.846 108.712L368.054 112.536C368.179 112.753 368.456 112.827 368.673 112.702L370.324 111.749C370.487 111.921 370.656 112.089 370.828 112.253L370.829 112.254L369.876 113.905C369.751 114.121 369.825 114.398 370.042 114.523L373.865 116.731C374.082 116.856 374.359 116.782 374.484 116.565L375.436 114.915C375.663 114.984 375.893 115.047 376.127 115.101V117.005C376.127 117.255 376.33 117.458 376.58 117.458H380.995C381.245 117.458 381.448 117.255 381.448 117.005V115.101C381.681 115.047 381.912 114.984 382.138 114.915L383.091 116.565C383.216 116.782 383.493 116.856 383.71 116.731L387.533 114.523C387.75 114.398 387.824 114.121 387.699 113.905L386.746 112.254L386.747 112.253C386.919 112.089 387.087 111.921 387.251 111.749L388.901 112.702C389.118 112.827 389.395 112.753 389.52 112.536L391.728 108.712C391.853 108.496 391.779 108.219 391.562 108.094L389.913 107.142V107.141C389.982 106.914 390.045 106.684 390.098 106.451Z" fill="#13A391"/>
<path d="M208 303H265V235L208 303ZM256.231 295.609H225.538L256.231 258.652V295.609Z" fill="#F3AF3E"/>
<path d="M208 303H262V239L208 303ZM256.162 295.667H222.595L256.162 254.605V295.667Z" fill="#FBB540"/>
<path d="M260 251H265V253H260V251Z" fill="#EA9D2D"/>
<path d="M260 244H265V246H260V244Z" fill="#EA9D2D"/>
<path d="M260 256H265V258H260V256Z" fill="#EA9D2D"/>
<path d="M263 251H265V253H263V251Z" fill="#DA922A"/>
<path d="M263 244H265V246H263V244Z" fill="#DA922A"/>
<path d="M263 256H265V258H263V256Z" fill="#DA922A"/>
<path d="M240 273H231V256.385L232.5 255H238.5L240 256.385V273Z" fill="#DC4D41"/>
<path d="M233.675 245.301L231 256H240L237.325 245.301C237.135 244.541 236.376 244 235.5 244C234.624 244 233.865 244.541 233.675 245.301Z" fill="#A8A8A8"/>
<path d="M232.666 249L231 256H240L238.334 249H232.666Z" fill="#F9D7C0"/>
<path d="M232 256H234V272H232V256Z" fill="#C7463B"/>
<path d="M217 242H226V275H217V242Z" fill="#4799CF"/>
<path d="M199 254H208V271H199V254Z" fill="#A88E74"/>
<path d="M225.75 241.529V243H217.25V241.529L213 232.706L221.5 218L230 232.706L225.75 241.529Z" fill="#D1D1D1"/>
<path d="M222.5 221L215 232.956L219.5 241.565V243H225.5V241.565L230 232.956L222.5 221Z" fill="#D9D9D9"/>
<path d="M225 233.67C225.002 231.839 223.714 230.287 221.982 230.035C220.25 229.783 218.606 230.908 218.132 232.671C217.657 234.433 218.498 236.292 220.1 237.024V241H222.9V237.024C224.174 236.442 224.998 235.125 225 233.67ZM221.5 232.937C221.887 232.937 222.2 233.265 222.2 233.67C222.2 234.075 221.887 234.403 221.5 234.403C221.113 234.403 220.8 234.075 220.8 233.67C220.8 233.265 221.113 232.937 221.5 232.937Z" fill="#A8A8A8"/>
<path d="M260 263H265V265H260V263Z" fill="#EA9D2D"/>
<path d="M263 263H265V265H263V263Z" fill="#DA922A"/>
<path d="M217 241H219V272H217V241Z" fill="#428DC5"/>
<path d="M217 241H226V247H217V241Z" fill="#A8A8A8"/>
<path d="M217 241H219V247H217V241Z" fill="#787D82"/>
<path d="M200 261H202V270H200V261Z" fill="#9A826A"/>
<path d="M199 255H208V261H199V255Z" fill="#A8A8A8"/>
<path d="M200 255H202V261H200V255Z" fill="#9C9C9C"/>
<path d="M207.311 254H199.245L198.402 250.441C197.256 245.618 198.598 240.515 201.934 237L206.216 240.009C208.579 241.669 210 244.464 210 247.458C210 249.832 209.105 252.109 207.512 253.789L207.311 254Z" fill="#D970A2"/>
<path d="M210 250.227L207.047 246.991C206.455 246.342 205.652 245.977 204.814 245.977C203.902 245.976 203.035 245.545 202.434 244.793L199.406 241C197.981 244.172 197.626 247.795 198.402 251.227L199.263 255H207.496L207.701 254.776C208.839 253.524 209.635 251.948 210 250.227Z" fill="#FBD699"/>
<path d="M271 303H192V270H219.923L223.232 272.87H239.768L243.077 270H271V303Z" fill="#4DB9B4"/>
<path d="M204.625 296H207.5V299H204.625V296Z" fill="#13A391"/>
<path d="M210.375 296H213.25V299H210.375V296Z" fill="#13A391"/>
<path d="M216.125 296H219V299H216.125V296Z" fill="#13A391"/>
<path d="M201.75 297.714H198.118C197.45 297.714 196.908 297.139 196.908 296.429V290H199.329V295.143H201.75V297.714Z" fill="#13A391"/>
<g opacity="0.5">
<path d="M292 112H236C235.448 112 235 112.447 235 113V157C235 157.553 235.448 158 236 158H292C292.552 158 293 157.553 293 157V113C293 112.447 292.552 112 292 112ZM251 123C254.071 123 256.569 125.498 256.569 128.569C256.569 131.639 254.071 134.137 251 134.137C247.929 134.137 245.431 131.639 245.431 128.569C245.431 125.498 247.929 123 251 123ZM287.737 141.676C287.364 142.082 286.731 142.111 286.324 141.738L275.063 131.414L265.882 141.468L270.689 146.275C271.08 146.666 271.08 147.298 270.689 147.689C270.298 148.08 269.666 148.08 269.275 147.689L258.974 137.389L242.661 151.751C242.471 151.918 242.235 152 242 152C241.723 152 241.447 151.886 241.249 151.661C240.884 151.246 240.924 150.614 241.339 150.249L258.356 135.267C258.752 134.919 259.35 134.938 259.724 135.311L264.467 140.054L274.261 129.327C274.44 129.131 274.69 129.014 274.955 129.002C275.219 128.996 275.479 129.085 275.675 129.264L287.675 140.264C288.083 140.636 288.11 141.269 287.737 141.676Z" fill="white"/>
</g>
</svg>
