<svg width="1028" height="730" viewBox="0 0 1028 730" fill="none" xmlns="http://www.w3.org/2000/svg">
<path fill-rule="evenodd" clip-rule="evenodd" d="M355.805 456.103C340.399 429.345 331.587 398.311 331.587 365.218C331.587 331.536 340.715 299.986 356.634 272.908L514.811 364.407L355.805 456.103Z" fill="#0A73C1" fill-opacity="0.15"/>
<path fill-rule="evenodd" clip-rule="evenodd" d="M355.858 273.121L514.772 364.975L514.924 182.24C483.515 181.994 451.627 189.863 422.458 206.704C393.799 223.251 371.328 246.4 355.858 273.121Z" fill="#0A73C1" fill-opacity="0.15"/>
<path fill-rule="evenodd" clip-rule="evenodd" d="M514.083 120.624C555.283 120.656 597.03 131.17 635.273 153.25C674.052 175.638 704.332 207.093 724.983 243.39L513.961 364.99L514.083 120.624Z" fill="#0A73C1" fill-opacity="0.15"/>
<path fill-rule="evenodd" clip-rule="evenodd" d="M725.282 241.945C745.854 277.642 757.623 319.053 757.623 363.212C757.623 407.989 745.523 449.94 724.414 485.974L513.595 364.023L725.282 241.945Z" fill="#0A73C1" fill-opacity="0.15"/>
<path fill-rule="evenodd" clip-rule="evenodd" d="M673.561 455.309L514.647 363.454L514.494 546.189C545.904 546.436 577.791 538.567 606.961 521.726C635.62 505.179 658.091 482.03 673.561 455.309Z" fill="#0A73C1" fill-opacity="0.15"/>
<path fill-rule="evenodd" clip-rule="evenodd" d="M408.808 425.129C419.139 443.482 434.376 459.388 453.936 470.682C473.012 481.695 493.831 486.953 514.383 486.994L514.444 364.258L408.808 425.129Z" fill="#0A73C1" fill-opacity="0.15"/>
<path fill-rule="evenodd" clip-rule="evenodd" d="M409.277 303.36C398.549 321.483 392.391 342.631 392.391 365.218C392.391 387.244 398.247 407.903 408.487 425.722L514.811 364.407L409.277 303.36Z" fill="#0A73C1" fill-opacity="0.15"/>
<path fill-rule="evenodd" clip-rule="evenodd" d="M355.858 273.121L514.772 364.975L514.924 182.24C483.515 181.994 451.627 189.863 422.458 206.704C393.799 223.251 371.328 246.4 355.858 273.121Z" fill="#0A73C1" fill-opacity="0.15"/>
<path fill-rule="evenodd" clip-rule="evenodd" d="M619.597 304.118C609.266 285.766 594.03 269.859 574.469 258.566C555.393 247.553 534.574 242.295 514.022 242.253L513.961 364.99L619.597 304.118Z" fill="#0A73C1" fill-opacity="0.15"/>
<path fill-rule="evenodd" clip-rule="evenodd" d="M619.129 425.07C629.857 406.947 636.014 385.799 636.014 363.212C636.014 341.185 630.158 320.527 619.918 302.707L513.595 364.023L619.129 425.07Z" fill="#0A73C1" fill-opacity="0.15"/>
<path fill-rule="evenodd" clip-rule="evenodd" d="M653.848 634.609C609.332 657.352 561.55 668.075 514.393 667.82L514.647 363.454L778.791 516.134L778.84 516.218C755.535 556.518 722.68 591.949 681.277 618.773L653.848 634.609Z" fill="#0A73C1" fill-opacity="0.15"/>
<path fill-rule="evenodd" clip-rule="evenodd" d="M461.144 394.555C466.313 403.935 474.026 412.07 483.978 417.815C493.47 423.295 503.825 425.925 514.052 425.971L514.083 364.05L461.144 394.555Z" fill="#0A73C1" fill-opacity="0.15"/>
<path fill-rule="evenodd" clip-rule="evenodd" d="M355.805 456.103C340.399 429.345 331.587 398.311 331.587 365.218C331.587 331.536 340.715 299.986 356.634 272.908L514.811 364.407L355.805 456.103Z" fill="#0A73C1" fill-opacity="0.15"/>
<path fill-rule="evenodd" clip-rule="evenodd" d="M355.858 273.121L514.772 364.975L514.924 182.24C483.515 181.994 451.627 189.863 422.458 206.704C393.799 223.251 371.328 246.4 355.858 273.121Z" fill="#0A73C1" fill-opacity="0.15"/>
<path fill-rule="evenodd" clip-rule="evenodd" d="M514.053 181.439L513.961 364.99L672.291 273.754C656.799 246.429 634.041 222.749 604.871 205.908C576.212 189.361 544.929 181.476 514.053 181.439Z" fill="#0A73C1" fill-opacity="0.15"/>
<path fill-rule="evenodd" clip-rule="evenodd" d="M672.6 272.326C688.006 299.084 696.819 330.119 696.819 363.212C696.819 396.894 687.69 428.444 671.772 455.522L513.595 364.023L672.6 272.326Z" fill="#0A73C1" fill-opacity="0.15"/>
<path fill-rule="evenodd" clip-rule="evenodd" d="M726.213 485.742C705.584 521.407 675.606 552.304 637.363 574.384C598.585 596.772 556.204 607.269 514.444 607.004L514.647 363.454L726.213 485.742Z" fill="#0A73C1" fill-opacity="0.15"/>
<path fill-rule="evenodd" clip-rule="evenodd" d="M514.352 547.809L514.444 364.258L356.115 455.493C371.606 482.818 394.365 506.499 423.534 523.34C452.193 539.886 483.476 547.772 514.352 547.809Z" fill="#0A73C1" fill-opacity="0.15"/>
<path fill-rule="evenodd" clip-rule="evenodd" d="M303.123 486.484C282.551 450.788 270.782 409.377 270.782 365.218C270.782 320.44 282.883 278.489 303.992 242.456L514.811 364.407L303.123 486.484Z" fill="#0A73C1" fill-opacity="0.15"/>
<path fill-rule="evenodd" clip-rule="evenodd" d="M375.572 93.8201C420.088 71.0774 467.869 60.355 515.026 60.6103L514.772 364.976L250.627 212.296L250.579 212.212C273.883 171.912 306.738 136.481 348.14 109.658L375.572 93.8201Z" fill="#0A73C1" fill-opacity="0.15"/>
<path fill-rule="evenodd" clip-rule="evenodd" d="M514.083 120.624C555.283 120.656 597.03 131.17 635.273 153.25C674.052 175.638 704.332 207.093 724.983 243.39L513.961 364.99L514.083 120.624Z" fill="#0A73C1" fill-opacity="0.15"/>
<path fill-rule="evenodd" clip-rule="evenodd" d="M672.6 272.326C688.006 299.084 696.819 330.119 696.819 363.212C696.819 396.894 687.69 428.444 671.772 455.522L513.595 364.023L672.6 272.326Z" fill="#0A73C1" fill-opacity="0.15"/>
<path fill-rule="evenodd" clip-rule="evenodd" d="M514.545 485.373C535.604 485.602 556.998 480.361 576.558 469.067C595.634 458.054 610.597 442.653 620.909 424.875L514.647 363.454L514.545 485.373Z" fill="#0A73C1" fill-opacity="0.15"/>
<path fill-rule="evenodd" clip-rule="evenodd" d="M461.144 394.555C466.313 403.935 474.026 412.07 483.978 417.815C493.47 423.295 503.825 425.925 514.052 425.971L514.083 364.05L461.144 394.555Z" fill="#0A73C1" fill-opacity="0.15"/>
<path fill-rule="evenodd" clip-rule="evenodd" d="M303.123 486.484C282.551 450.788 270.782 409.377 270.782 365.218C270.782 320.44 282.883 278.489 303.992 242.456L514.811 364.407L303.123 486.484Z" fill="#0A73C1" fill-opacity="0.15"/>
<path fill-rule="evenodd" clip-rule="evenodd" d="M355.858 273.121L514.772 364.975L514.924 182.24C483.515 181.994 451.627 189.863 422.458 206.704C393.799 223.251 371.328 246.4 355.858 273.121Z" fill="#0A73C1" fill-opacity="0.15"/>
<path fill-rule="evenodd" clip-rule="evenodd" d="M619.597 304.118C609.266 285.766 594.03 269.859 574.469 258.566C555.393 247.553 534.574 242.295 514.022 242.253L513.961 364.99L619.597 304.118Z" fill="#0A73C1" fill-opacity="0.15"/>
<path fill-rule="evenodd" clip-rule="evenodd" d="M619.129 425.07C629.857 406.947 636.014 385.799 636.014 363.212C636.014 341.185 630.158 320.527 619.918 302.707L513.595 364.023L619.129 425.07Z" fill="#0A73C1" fill-opacity="0.15"/>
<path fill-rule="evenodd" clip-rule="evenodd" d="M726.213 485.742C705.584 521.407 675.606 552.304 637.363 574.384C598.585 596.772 556.204 607.269 514.444 607.004L514.647 363.454L726.213 485.742Z" fill="#0A73C1" fill-opacity="0.15"/>
<path fill-rule="evenodd" clip-rule="evenodd" d="M408.808 425.129C419.139 443.482 434.376 459.388 453.936 470.682C473.012 481.695 493.831 486.953 514.383 486.994L514.444 364.258L408.808 425.129Z" fill="#0A73C1" fill-opacity="0.15"/>
<path fill-rule="evenodd" clip-rule="evenodd" d="M210.383 349.381C212.945 299.457 227.55 252.716 251.35 212.005L514.811 364.407L250.514 516.823H250.417C227.169 476.491 212.911 430.322 210.383 381.054L210.383 349.381Z" fill="#0A73C1" fill-opacity="0.15"/>
<path fill-rule="evenodd" clip-rule="evenodd" d="M375.572 93.8201C420.088 71.0774 467.869 60.355 515.026 60.6103L514.772 364.976L250.627 212.296L250.579 212.212C273.883 171.912 306.738 136.481 348.14 109.658L375.572 93.8201Z" fill="#0A73C1" fill-opacity="0.15"/>
<path fill-rule="evenodd" clip-rule="evenodd" d="M514.053 181.439L513.961 364.99L672.291 273.754C656.799 246.429 634.041 222.749 604.871 205.908C576.212 189.361 544.929 181.476 514.053 181.439Z" fill="#0A73C1" fill-opacity="0.15"/>
<path fill-rule="evenodd" clip-rule="evenodd" d="M672.6 272.326C688.006 299.084 696.819 330.119 696.819 363.212C696.819 396.894 687.69 428.444 671.772 455.522L513.595 364.023L672.6 272.326Z" fill="#0A73C1" fill-opacity="0.15"/>
<path fill-rule="evenodd" clip-rule="evenodd" d="M673.561 455.309L514.647 363.454L514.494 546.189C545.904 546.436 577.791 538.567 606.961 521.726C635.62 505.179 658.091 482.03 673.561 455.309Z" fill="#0A73C1" fill-opacity="0.15"/>
<path fill-rule="evenodd" clip-rule="evenodd" d="M514.322 608.624C473.122 608.591 431.375 598.078 393.132 575.998C354.354 553.61 324.073 522.155 303.422 485.857L514.444 364.258L514.322 608.624Z" fill="#0A73C1" fill-opacity="0.15"/>
<path fill-rule="evenodd" clip-rule="evenodd" d="M303.123 486.484C282.551 450.788 270.782 409.377 270.782 365.218C270.782 320.44 282.883 278.489 303.992 242.456L514.811 364.407L303.123 486.484Z" fill="#0A73C1" fill-opacity="0.15"/>
<path fill-rule="evenodd" clip-rule="evenodd" d="M303.206 242.687C323.834 207.023 353.813 176.126 392.056 154.046C430.834 131.657 473.215 121.161 514.975 121.425L514.772 364.975L303.206 242.687Z" fill="#0A73C1" fill-opacity="0.15"/>
<path fill-rule="evenodd" clip-rule="evenodd" d="M514.053 181.439L513.961 364.99L672.291 273.754C656.799 246.429 634.041 222.749 604.871 205.908C576.212 189.361 544.929 181.476 514.053 181.439Z" fill="#0A73C1" fill-opacity="0.15"/>
<path fill-rule="evenodd" clip-rule="evenodd" d="M619.129 425.07C629.857 406.947 636.014 385.799 636.014 363.212C636.014 341.185 630.158 320.527 619.918 302.707L513.595 364.023L619.129 425.07Z" fill="#0A73C1" fill-opacity="0.15"/>
<path fill-rule="evenodd" clip-rule="evenodd" d="M673.561 455.309L514.647 363.454L514.494 546.189C545.904 546.436 577.791 538.567 606.961 521.726C635.62 505.179 658.091 482.03 673.561 455.309Z" fill="#0A73C1" fill-opacity="0.15"/>
<path fill-rule="evenodd" clip-rule="evenodd" d="M349.216 620.386C307.263 593.206 274.086 557.187 250.729 516.221L514.444 364.258L514.292 669.354L514.243 669.438C467.691 669.406 420.579 658.668 376.648 636.224L349.216 620.386Z" fill="#0A73C1" fill-opacity="0.15"/>
<path d="M40.0054 357.893L44.2064 369.805H44.3723L48.5733 357.893H50.3698L45.1738 372.044H43.4049L38.2089 357.893H40.0054ZM52.3528 372.044V361.431H53.9835V372.044H52.3528ZM53.182 359.662C52.8641 359.662 52.5901 359.554 52.3597 359.337C52.134 359.121 52.0212 358.861 52.0212 358.557C52.0212 358.253 52.134 357.992 52.3597 357.776C52.5901 357.559 52.8641 357.451 53.182 357.451C53.4998 357.451 53.7716 357.559 53.9973 357.776C54.2276 357.992 54.3428 358.253 54.3428 358.557C54.3428 358.861 54.2276 359.121 53.9973 359.337C53.7716 359.554 53.4998 359.662 53.182 359.662ZM64.4878 363.808L63.023 364.223C62.9308 363.978 62.795 363.741 62.6153 363.511C62.4403 363.276 62.2007 363.082 61.8967 362.93C61.5927 362.778 61.2034 362.702 60.729 362.702C60.0795 362.702 59.5382 362.852 59.1052 363.152C58.6768 363.446 58.4626 363.822 58.4626 364.278C58.4626 364.683 58.61 365.003 58.9048 365.238C59.1997 365.473 59.6603 365.669 60.2868 365.826L61.8622 366.212C62.8111 366.443 63.5182 366.795 63.9834 367.27C64.4486 367.74 64.6813 368.345 64.6813 369.087C64.6813 369.695 64.5062 370.238 64.1561 370.718C63.8107 371.197 63.327 371.574 62.7051 371.851C62.0833 372.127 61.3601 372.265 60.5355 372.265C59.453 372.265 58.5571 372.03 57.8477 371.561C57.1383 371.091 56.6892 370.404 56.5003 369.501L58.0481 369.115C58.1955 369.686 58.4742 370.114 58.8841 370.4C59.2987 370.685 59.8399 370.828 60.5079 370.828C61.2679 370.828 61.8714 370.667 62.3182 370.344C62.7696 370.017 62.9953 369.626 62.9953 369.17C62.9953 368.801 62.8663 368.493 62.6084 368.244C62.3504 367.991 61.9543 367.802 61.4199 367.677L59.6511 367.263C58.6791 367.032 57.9651 366.675 57.5091 366.192C57.0577 365.703 56.832 365.093 56.832 364.361C56.832 363.762 57.0001 363.232 57.3364 362.772C57.6772 362.311 58.1402 361.949 58.7252 361.687C59.3148 361.424 59.9827 361.293 60.729 361.293C61.7792 361.293 62.6038 361.523 63.2026 361.984C63.8061 362.444 64.2344 363.053 64.4878 363.808ZM73.8244 367.705V361.431H75.4551V372.044H73.8244V370.248H73.7138C73.4651 370.787 73.0782 371.245 72.553 371.623C72.0279 371.996 71.3646 372.182 70.5631 372.182C69.8997 372.182 69.3101 372.037 68.7942 371.747C68.2783 371.452 67.8729 371.01 67.5781 370.42C67.2833 369.826 67.1359 369.078 67.1359 368.175V361.431H68.7666V368.064C68.7666 368.838 68.9831 369.455 69.4161 369.916C69.8537 370.377 70.4111 370.607 71.0882 370.607C71.4936 370.607 71.9058 370.503 72.325 370.296C72.7488 370.089 73.1035 369.771 73.3891 369.343C73.6793 368.914 73.8244 368.368 73.8244 367.705ZM81.5649 372.293C80.8923 372.293 80.282 372.166 79.7338 371.913C79.1857 371.655 78.7503 371.284 78.4279 370.8C78.1055 370.312 77.9442 369.723 77.9442 369.032C77.9442 368.424 78.064 367.931 78.3035 367.553C78.5431 367.171 78.8632 366.871 79.264 366.655C79.6647 366.438 80.1069 366.277 80.5906 366.171C81.0789 366.06 81.5695 365.973 82.0623 365.908C82.7072 365.826 83.2301 365.763 83.6308 365.722C84.0362 365.676 84.331 365.6 84.5153 365.494C84.7041 365.388 84.7985 365.204 84.7985 364.941V364.886C84.7985 364.204 84.612 363.674 84.2389 363.297C83.8704 362.919 83.3107 362.73 82.5598 362.73C81.7814 362.73 81.171 362.9 80.7288 363.241C80.2866 363.582 79.9757 363.946 79.796 364.333L78.2483 363.78C78.5246 363.135 78.8931 362.633 79.3538 362.274C79.819 361.91 80.3257 361.657 80.8739 361.514C81.4267 361.367 81.9702 361.293 82.5046 361.293C82.8454 361.293 83.237 361.334 83.6792 361.417C84.126 361.496 84.5567 361.659 84.9713 361.908C85.3905 362.157 85.7383 362.532 86.0146 363.034C86.291 363.536 86.4292 364.209 86.4292 365.052V372.044H84.7985V370.607H84.7156C84.6051 370.837 84.4208 371.084 84.1629 371.346C83.9049 371.609 83.5617 371.832 83.1333 372.017C82.7049 372.201 82.1821 372.293 81.5649 372.293ZM81.8136 370.828C82.4585 370.828 83.0021 370.701 83.4443 370.448C83.8911 370.195 84.2274 369.868 84.4531 369.467C84.6834 369.066 84.7985 368.645 84.7985 368.202V366.71C84.7295 366.793 84.5774 366.869 84.3425 366.938C84.1122 367.002 83.845 367.06 83.541 367.111C83.2416 367.157 82.9491 367.198 82.6635 367.235C82.3825 367.267 82.1545 367.295 81.9794 367.318C81.5556 367.373 81.1595 367.463 80.791 367.588C80.4271 367.707 80.1323 367.889 79.9066 368.133C79.6854 368.373 79.5749 368.7 79.5749 369.115C79.5749 369.681 79.7845 370.11 80.2037 370.4C80.6275 370.685 81.1641 370.828 81.8136 370.828ZM91.0362 357.893V372.044H89.4055V357.893H91.0362ZM104.083 372.044H99.7164V357.893H104.277C105.649 357.893 106.824 358.177 107.801 358.743C108.777 359.305 109.526 360.114 110.046 361.168C110.567 362.219 110.827 363.476 110.827 364.941C110.827 366.415 110.564 367.684 110.039 368.748C109.514 369.808 108.749 370.623 107.745 371.194C106.741 371.761 105.52 372.044 104.083 372.044ZM101.43 370.524H103.973C105.143 370.524 106.112 370.298 106.882 369.847C107.651 369.396 108.224 368.753 108.602 367.919C108.98 367.085 109.169 366.093 109.169 364.941C109.169 363.799 108.982 362.815 108.609 361.991C108.236 361.162 107.679 360.526 106.937 360.084C106.195 359.637 105.272 359.413 104.166 359.413H101.43V370.524ZM117.93 372.265C116.907 372.265 116.025 372.04 115.284 371.588C114.547 371.132 113.978 370.496 113.577 369.681C113.181 368.861 112.983 367.908 112.983 366.821C112.983 365.733 113.181 364.775 113.577 363.946C113.978 363.112 114.535 362.463 115.249 361.998C115.968 361.528 116.806 361.293 117.764 361.293C118.317 361.293 118.863 361.385 119.402 361.569C119.941 361.754 120.431 362.053 120.874 362.467C121.316 362.877 121.668 363.421 121.931 364.098C122.193 364.775 122.325 365.609 122.325 366.599V367.29H114.144V365.881H120.666C120.666 365.282 120.546 364.748 120.307 364.278C120.072 363.808 119.736 363.437 119.298 363.165C118.865 362.894 118.354 362.758 117.764 362.758C117.115 362.758 116.553 362.919 116.078 363.241C115.608 363.559 115.247 363.974 114.993 364.485C114.74 364.996 114.613 365.545 114.613 366.13V367.069C114.613 367.871 114.752 368.55 115.028 369.108C115.309 369.66 115.698 370.082 116.196 370.372C116.693 370.658 117.271 370.8 117.93 370.8C118.358 370.8 118.745 370.741 119.091 370.621C119.441 370.496 119.743 370.312 119.996 370.068C120.249 369.819 120.445 369.511 120.583 369.142L122.159 369.584C121.993 370.119 121.714 370.589 121.323 370.994C120.931 371.395 120.447 371.708 119.872 371.934C119.296 372.155 118.649 372.265 117.93 372.265ZM132.323 363.808L130.858 364.223C130.766 363.978 130.63 363.741 130.45 363.511C130.275 363.276 130.036 363.082 129.732 362.93C129.428 362.778 129.038 362.702 128.564 362.702C127.914 362.702 127.373 362.852 126.94 363.152C126.512 363.446 126.298 363.822 126.298 364.278C126.298 364.683 126.445 365.003 126.74 365.238C127.035 365.473 127.495 365.669 128.122 365.826L129.697 366.212C130.646 366.443 131.353 366.795 131.818 367.27C132.284 367.74 132.516 368.345 132.516 369.087C132.516 369.695 132.341 370.238 131.991 370.718C131.646 371.197 131.162 371.574 130.54 371.851C129.918 372.127 129.195 372.265 128.37 372.265C127.288 372.265 126.392 372.03 125.683 371.561C124.973 371.091 124.524 370.404 124.335 369.501L125.883 369.115C126.03 369.686 126.309 370.114 126.719 370.4C127.134 370.685 127.675 370.828 128.343 370.828C129.103 370.828 129.706 370.667 130.153 370.344C130.605 370.017 130.83 369.626 130.83 369.17C130.83 368.801 130.701 368.493 130.443 368.244C130.185 367.991 129.789 367.802 129.255 367.677L127.486 367.263C126.514 367.032 125.8 366.675 125.344 366.192C124.893 365.703 124.667 365.093 124.667 364.361C124.667 363.762 124.835 363.232 125.171 362.772C125.512 362.311 125.975 361.949 126.56 361.687C127.15 361.424 127.818 361.293 128.564 361.293C129.614 361.293 130.439 361.523 131.038 361.984C131.641 362.444 132.069 363.053 132.323 363.808ZM134.971 372.044V361.431H136.601V372.044H134.971ZM135.8 359.662C135.482 359.662 135.208 359.554 134.978 359.337C134.752 359.121 134.639 358.861 134.639 358.557C134.639 358.253 134.752 357.992 134.978 357.776C135.208 357.559 135.482 357.451 135.8 357.451C136.118 357.451 136.39 357.559 136.615 357.776C136.846 357.992 136.961 358.253 136.961 358.557C136.961 358.861 136.846 359.121 136.615 359.337C136.39 359.554 136.118 359.662 135.8 359.662ZM143.872 376.245C143.084 376.245 142.407 376.144 141.841 375.941C141.274 375.743 140.802 375.481 140.424 375.154C140.051 374.831 139.754 374.486 139.533 374.117L140.832 373.205C140.979 373.398 141.166 373.62 141.392 373.868C141.617 374.122 141.926 374.34 142.317 374.525C142.714 374.714 143.232 374.808 143.872 374.808C144.729 374.808 145.436 374.601 145.993 374.186C146.551 373.772 146.829 373.122 146.829 372.238V370.082H146.691C146.571 370.275 146.401 370.515 146.18 370.8C145.963 371.081 145.65 371.333 145.24 371.554C144.835 371.77 144.287 371.878 143.596 371.878C142.739 371.878 141.97 371.676 141.288 371.27C140.611 370.865 140.074 370.275 139.678 369.501C139.286 368.728 139.091 367.788 139.091 366.682C139.091 365.595 139.282 364.649 139.664 363.843C140.046 363.032 140.579 362.405 141.26 361.963C141.942 361.516 142.73 361.293 143.623 361.293C144.314 361.293 144.862 361.408 145.268 361.638C145.678 361.864 145.991 362.122 146.208 362.412C146.429 362.698 146.599 362.933 146.719 363.117H146.885V361.431H148.46V372.348C148.46 373.26 148.253 374.002 147.838 374.573C147.428 375.149 146.875 375.57 146.18 375.838C145.489 376.109 144.72 376.245 143.872 376.245ZM143.817 370.414C144.471 370.414 145.024 370.264 145.475 369.964C145.927 369.665 146.27 369.234 146.505 368.672C146.74 368.11 146.857 367.438 146.857 366.655C146.857 365.89 146.742 365.215 146.512 364.63C146.281 364.045 145.94 363.587 145.489 363.255C145.038 362.924 144.48 362.758 143.817 362.758C143.126 362.758 142.55 362.933 142.089 363.283C141.633 363.633 141.29 364.103 141.06 364.692C140.834 365.282 140.721 365.936 140.721 366.655C140.721 367.392 140.836 368.044 141.067 368.61C141.302 369.172 141.647 369.614 142.103 369.937C142.564 370.255 143.135 370.414 143.817 370.414ZM153.076 365.66V372.044H151.445V361.431H153.02V363.089H153.159C153.407 362.55 153.785 362.117 154.292 361.79C154.798 361.459 155.453 361.293 156.254 361.293C156.973 361.293 157.601 361.44 158.14 361.735C158.679 362.025 159.099 362.467 159.398 363.062C159.697 363.651 159.847 364.398 159.847 365.3V372.044H158.216V365.411C158.216 364.577 158 363.928 157.567 363.462C157.134 362.993 156.54 362.758 155.784 362.758C155.264 362.758 154.798 362.871 154.389 363.096C153.983 363.322 153.663 363.651 153.428 364.084C153.193 364.517 153.076 365.042 153.076 365.66Z" fill="#333333"/>
<path d="M185.71 82.6152V68.4644H190.492C191.602 68.4644 192.509 68.6648 193.214 69.0655C193.923 69.4617 194.449 69.9983 194.789 70.6755C195.13 71.3526 195.301 72.108 195.301 72.9418C195.301 73.7756 195.13 74.5333 194.789 75.2151C194.453 75.8968 193.933 76.4404 193.228 76.8457C192.523 77.2465 191.62 77.4469 190.519 77.4469H187.092V75.9267H190.464C191.224 75.9267 191.834 75.7955 192.295 75.5329C192.756 75.2703 193.09 74.9156 193.297 74.4688C193.509 74.0174 193.615 73.5084 193.615 72.9418C193.615 72.3752 193.509 71.8685 193.297 71.4217C193.09 70.9749 192.753 70.6248 192.288 70.3714C191.823 70.1135 191.206 69.9845 190.436 69.9845H187.424V82.6152H185.71ZM197.84 82.6152V72.0021H199.415V73.6051H199.526C199.719 73.08 200.07 72.6539 200.576 72.3269C201.083 71.9998 201.654 71.8363 202.29 71.8363C202.41 71.8363 202.559 71.8386 202.739 71.8432C202.919 71.8478 203.054 71.8547 203.147 71.8639V73.5222C203.091 73.5084 202.965 73.4877 202.767 73.46C202.573 73.4278 202.368 73.4117 202.152 73.4117C201.636 73.4117 201.175 73.5199 200.77 73.7364C200.369 73.9483 200.051 74.2431 199.816 74.6208C199.586 74.994 199.471 75.42 199.471 75.8991V82.6152H197.84ZM209.068 82.8363C208.11 82.8363 207.269 82.6083 206.546 82.1523C205.828 81.6963 205.266 81.0583 204.86 80.2383C204.459 79.4184 204.259 78.4603 204.259 77.3639C204.259 76.2584 204.459 75.2934 204.86 74.4688C205.266 73.6443 205.828 73.004 206.546 72.548C207.269 72.0919 208.11 71.8639 209.068 71.8639C210.026 71.8639 210.865 72.0919 211.583 72.548C212.306 73.004 212.868 73.6443 213.269 74.4688C213.675 75.2934 213.877 76.2584 213.877 77.3639C213.877 78.4603 213.675 79.4184 213.269 80.2383C212.868 81.0583 212.306 81.6963 211.583 82.1523C210.865 82.6083 210.026 82.8363 209.068 82.8363ZM209.068 81.3715C209.796 81.3715 210.395 81.1849 210.865 80.8118C211.334 80.4387 211.682 79.9481 211.908 79.3401C212.134 78.732 212.247 78.0733 212.247 77.3639C212.247 76.6546 212.134 75.9935 211.908 75.3809C211.682 74.7682 211.334 74.2731 210.865 73.8953C210.395 73.5176 209.796 73.3287 209.068 73.3287C208.34 73.3287 207.741 73.5176 207.272 73.8953C206.802 74.2731 206.454 74.7682 206.228 75.3809C206.003 75.9935 205.89 76.6546 205.89 77.3639C205.89 78.0733 206.003 78.732 206.228 79.3401C206.454 79.9481 206.802 80.4387 207.272 80.8118C207.741 81.1849 208.34 81.3715 209.068 81.3715ZM220.982 72.0021V73.384H215.482V72.0021H220.982ZM217.085 69.4594H218.716V79.575C218.716 80.0357 218.782 80.3811 218.916 80.6115C219.054 80.8372 219.229 80.9892 219.441 81.0675C219.658 81.1412 219.886 81.178 220.125 81.178C220.305 81.178 220.452 81.1688 220.567 81.1504C220.683 81.1274 220.775 81.1089 220.844 81.0951L221.175 82.56C221.065 82.6014 220.911 82.6429 220.713 82.6843C220.514 82.7304 220.263 82.7534 219.959 82.7534C219.499 82.7534 219.047 82.6544 218.605 82.4563C218.167 82.2582 217.804 81.9565 217.513 81.5512C217.228 81.1458 217.085 80.6345 217.085 80.0172V69.4594ZM227.632 82.8363C226.674 82.8363 225.834 82.6083 225.11 82.1523C224.392 81.6963 223.83 81.0583 223.425 80.2383C223.024 79.4184 222.823 78.4603 222.823 77.3639C222.823 76.2584 223.024 75.2934 223.425 74.4688C223.83 73.6443 224.392 73.004 225.11 72.548C225.834 72.0919 226.674 71.8639 227.632 71.8639C228.591 71.8639 229.429 72.0919 230.148 72.548C230.871 73.004 231.433 73.6443 231.834 74.4688C232.239 75.2934 232.442 76.2584 232.442 77.3639C232.442 78.4603 232.239 79.4184 231.834 80.2383C231.433 81.0583 230.871 81.6963 230.148 82.1523C229.429 82.6083 228.591 82.8363 227.632 82.8363ZM227.632 81.3715C228.36 81.3715 228.959 81.1849 229.429 80.8118C229.899 80.4387 230.247 79.9481 230.472 79.3401C230.698 78.732 230.811 78.0733 230.811 77.3639C230.811 76.6546 230.698 75.9935 230.472 75.3809C230.247 74.7682 229.899 74.2731 229.429 73.8953C228.959 73.5176 228.36 73.3287 227.632 73.3287C226.905 73.3287 226.306 73.5176 225.836 73.8953C225.366 74.2731 225.018 74.7682 224.793 75.3809C224.567 75.9935 224.454 76.6546 224.454 77.3639C224.454 78.0733 224.567 78.732 224.793 79.3401C225.018 79.9481 225.366 80.4387 225.836 80.8118C226.306 81.1849 226.905 81.3715 227.632 81.3715ZM239.546 72.0021V73.384H234.046V72.0021H239.546ZM235.649 69.4594H237.28V79.575C237.28 80.0357 237.347 80.3811 237.48 80.6115C237.619 80.8372 237.794 80.9892 238.006 81.0675C238.222 81.1412 238.45 81.178 238.69 81.178C238.869 81.178 239.017 81.1688 239.132 81.1504C239.247 81.1274 239.339 81.1089 239.408 81.0951L239.74 82.56C239.629 82.6014 239.475 82.6429 239.277 82.6843C239.079 82.7304 238.828 82.7534 238.524 82.7534C238.063 82.7534 237.612 82.6544 237.169 82.4563C236.732 82.2582 236.368 81.9565 236.078 81.5512C235.792 81.1458 235.649 80.6345 235.649 80.0172V69.4594ZM243.05 86.5952C242.773 86.5952 242.527 86.5721 242.31 86.5261C242.094 86.4846 241.944 86.4431 241.861 86.4017L242.276 84.9645C242.672 85.0658 243.022 85.1027 243.326 85.075C243.63 85.0474 243.899 84.9115 244.134 84.6674C244.374 84.4279 244.593 84.0386 244.791 83.4997L245.095 82.6705L241.17 72.0021H242.939L245.869 80.4594H245.979L248.909 72.0021H250.678L246.173 84.163C245.97 84.7111 245.719 85.1649 245.419 85.5242C245.12 85.8881 244.772 86.1576 244.376 86.3326C243.985 86.5076 243.542 86.5952 243.05 86.5952ZM252.83 86.5952V72.0021H254.405V73.688H254.599C254.719 73.5038 254.884 73.2689 255.096 72.9833C255.313 72.6931 255.622 72.4351 256.022 72.2094C256.428 71.9791 256.976 71.8639 257.667 71.8639C258.56 71.8639 259.348 72.0873 260.03 72.5341C260.712 72.981 261.244 73.6143 261.626 74.4343C262.008 75.2542 262.199 76.2216 262.199 77.3363C262.199 78.4603 262.008 79.4345 261.626 80.2591C261.244 81.079 260.714 81.7147 260.037 82.1661C259.36 82.6129 258.579 82.8363 257.694 82.8363C257.013 82.8363 256.467 82.7235 256.057 82.4978C255.647 82.2675 255.331 82.0072 255.11 81.717C254.889 81.4222 254.719 81.178 254.599 80.9846H254.461V86.5952H252.83ZM254.433 77.3087C254.433 78.1102 254.551 78.8173 254.785 79.4299C255.02 80.038 255.364 80.5147 255.815 80.8602C256.266 81.2011 256.819 81.3715 257.473 81.3715C258.155 81.3715 258.724 81.1919 259.18 80.8326C259.641 80.4687 259.986 79.9804 260.216 79.3677C260.451 78.7505 260.569 78.0641 260.569 77.3087C260.569 76.5624 260.454 75.8899 260.223 75.2911C259.998 74.6876 259.654 74.2109 259.194 73.8608C258.738 73.5061 258.164 73.3287 257.473 73.3287C256.81 73.3287 256.253 73.4969 255.801 73.8331C255.35 74.1648 255.009 74.63 254.779 75.2289C254.548 75.8231 254.433 76.5164 254.433 77.3087ZM264.687 82.6152V72.0021H266.318V82.6152H264.687ZM265.516 70.2332C265.198 70.2332 264.924 70.125 264.694 69.9085C264.468 69.692 264.355 69.4317 264.355 69.1277C264.355 68.8237 264.468 68.5634 264.694 68.3469C264.924 68.1304 265.198 68.0222 265.516 68.0222C265.834 68.0222 266.106 68.1304 266.331 68.3469C266.562 68.5634 266.677 68.8237 266.677 69.1277C266.677 69.4317 266.562 69.692 266.331 69.9085C266.106 70.125 265.834 70.2332 265.516 70.2332ZM270.935 76.2308V82.6152H269.304V72.0021H270.88V73.6604H271.018C271.267 73.1215 271.644 72.6885 272.151 72.3614C272.658 72.0297 273.312 71.8639 274.113 71.8639C274.832 71.8639 275.461 72.0113 276 72.3061C276.539 72.5963 276.958 73.0385 277.257 73.6328C277.557 74.2224 277.706 74.9686 277.706 75.8715V82.6152H276.076V75.982C276.076 75.1483 275.859 74.4988 275.426 74.0335C274.993 73.5637 274.399 73.3287 273.643 73.3287C273.123 73.3287 272.658 73.4416 272.248 73.6673C271.842 73.893 271.522 74.2224 271.287 74.6554C271.052 75.0884 270.935 75.6135 270.935 76.2308ZM284.97 86.8163C284.182 86.8163 283.505 86.7149 282.939 86.5122C282.372 86.3142 281.9 86.0516 281.522 85.7246C281.149 85.4021 280.852 85.0566 280.631 84.6881L281.93 83.776C282.077 83.9695 282.264 84.1906 282.489 84.4394C282.715 84.6927 283.024 84.9115 283.415 85.0958C283.811 85.2846 284.33 85.3791 284.97 85.3791C285.827 85.3791 286.534 85.1718 287.091 84.7572C287.649 84.3426 287.927 83.6931 287.927 82.8087V80.6529H287.789C287.669 80.8464 287.499 81.0859 287.278 81.3715C287.061 81.6525 286.748 81.9035 286.338 82.1247C285.933 82.3412 285.385 82.4494 284.694 82.4494C283.837 82.4494 283.068 82.2467 282.386 81.8414C281.709 81.436 281.172 80.8464 280.776 80.0725C280.384 79.2986 280.189 78.3589 280.189 77.2534C280.189 76.1663 280.38 75.2197 280.762 74.4135C281.144 73.6028 281.676 72.9764 282.358 72.5341C283.04 72.0873 283.828 71.8639 284.721 71.8639C285.412 71.8639 285.96 71.9791 286.366 72.2094C286.776 72.4351 287.089 72.6931 287.305 72.9833C287.527 73.2689 287.697 73.5038 287.817 73.688H287.983V72.0021H289.558V82.9193C289.558 83.8313 289.351 84.573 288.936 85.1441C288.526 85.7199 287.973 86.1414 287.278 86.4086C286.587 86.6804 285.818 86.8163 284.97 86.8163ZM284.915 80.9846C285.569 80.9846 286.122 80.8349 286.573 80.5354C287.024 80.236 287.368 79.8053 287.603 79.2434C287.837 78.6814 287.955 78.0088 287.955 77.2258C287.955 76.4611 287.84 75.7863 287.609 75.2012C287.379 74.6162 287.038 74.1579 286.587 73.8262C286.135 73.4946 285.578 73.3287 284.915 73.3287C284.224 73.3287 283.648 73.5038 283.187 73.8539C282.731 74.204 282.388 74.6738 282.158 75.2634C281.932 75.853 281.819 76.5072 281.819 77.2258C281.819 77.9628 281.934 78.6146 282.165 79.1812C282.4 79.7431 282.745 80.1854 283.201 80.5078C283.662 80.8256 284.233 80.9846 284.915 80.9846Z" fill="#333333"/>
<path d="M737.889 69.1737L737.889 67.6536L748.502 67.6536L748.502 69.1737L744.053 69.1737L744.053 81.8044L742.339 81.8044L742.339 69.1737L737.889 69.1737ZM750.76 85.7844C750.484 85.7844 750.237 85.7613 750.021 85.7153C749.804 85.6738 749.654 85.6324 749.572 85.5909L749.986 84.1537C750.382 84.255 750.732 84.2919 751.036 84.2643C751.34 84.2366 751.61 84.1007 751.845 83.8566C752.084 83.6171 752.303 83.2278 752.501 82.6889L752.805 81.8597L748.881 71.1913L750.649 71.1913L753.579 79.6486L753.69 79.6486L756.619 71.1913L758.388 71.1913L753.883 83.3522C753.68 83.9004 753.429 84.3541 753.13 84.7134C752.831 85.0773 752.483 85.3468 752.087 85.5218C751.695 85.6968 751.253 85.7844 750.76 85.7844ZM760.541 85.7844L760.541 71.1913L762.116 71.1913L762.116 72.8772L762.309 72.8772C762.429 72.693 762.595 72.4581 762.807 72.1725C763.023 71.8823 763.332 71.6243 763.733 71.3986C764.138 71.1683 764.686 71.0531 765.377 71.0531C766.271 71.0531 767.059 71.2765 767.74 71.7233C768.422 72.1702 768.954 72.8035 769.336 73.6235C769.719 74.4434 769.91 75.4108 769.91 76.5255C769.91 77.6495 769.719 78.6237 769.336 79.4483C768.954 80.2682 768.424 80.9039 767.747 81.3553C767.07 81.8021 766.289 82.0255 765.405 82.0255C764.723 82.0255 764.177 81.9127 763.767 81.687C763.357 81.4567 763.042 81.1964 762.821 80.9062C762.6 80.6114 762.429 80.3672 762.309 80.1738L762.171 80.1738L762.171 85.7844L760.541 85.7844ZM762.144 76.4979C762.144 77.2994 762.261 78.0065 762.496 78.6191C762.731 79.2272 763.074 79.7039 763.525 80.0494C763.977 80.3903 764.53 80.5607 765.184 80.5607C765.866 80.5607 766.434 80.3811 766.89 80.0218C767.351 79.6579 767.697 79.1696 767.927 78.5569C768.162 77.9397 768.279 77.2533 768.279 76.4979C768.279 75.7516 768.164 75.0791 767.934 74.4803C767.708 73.8768 767.365 73.4001 766.904 73.05C766.448 72.6953 765.875 72.5179 765.184 72.5179C764.52 72.5179 763.963 72.6861 763.512 73.0223C763.06 73.354 762.719 73.8193 762.489 74.4181C762.259 75.0123 762.144 75.7056 762.144 76.4979ZM776.709 82.0255C775.751 82.0255 774.91 81.7975 774.187 81.3415C773.468 80.8855 772.906 80.2475 772.501 79.4275C772.1 78.6076 771.9 77.6495 771.9 76.5531C771.9 75.4476 772.1 74.4826 772.501 73.658C772.906 72.8335 773.468 72.1932 774.187 71.7372C774.91 71.2811 775.751 71.0531 776.709 71.0531C777.667 71.0531 778.505 71.2811 779.224 71.7372C779.947 72.1932 780.509 72.8335 780.91 73.658C781.315 74.4826 781.518 75.4476 781.518 76.5531C781.518 77.6495 781.315 78.6076 780.91 79.4275C780.509 80.2475 779.947 80.8855 779.224 81.3415C778.505 81.7975 777.667 82.0255 776.709 82.0255ZM776.709 80.5607C777.437 80.5607 778.036 80.3742 778.505 80.001C778.975 79.6279 779.323 79.1373 779.549 78.5293C779.775 77.9212 779.887 77.2625 779.887 76.5531C779.887 75.8438 779.775 75.1827 779.549 74.5701C779.323 73.9574 778.975 73.4623 778.505 73.0845C778.036 72.7068 777.437 72.5179 776.709 72.5179C775.981 72.5179 775.382 72.7068 774.912 73.0845C774.443 73.4623 774.095 73.9574 773.869 74.5701C773.643 75.1827 773.531 75.8438 773.531 76.5531C773.531 77.2625 773.643 77.9212 773.869 78.5293C774.095 79.1373 774.443 79.6279 774.912 80.001C775.382 80.3742 775.981 80.5607 776.709 80.5607ZM788.291 86.0055C787.504 86.0055 786.826 85.9041 786.26 85.7014C785.693 85.5034 785.221 85.2408 784.843 84.9138C784.47 84.5913 784.173 84.2458 783.952 83.8773L785.251 82.9652C785.398 83.1587 785.585 83.3798 785.811 83.6286C786.036 83.8819 786.345 84.1007 786.737 84.285C787.133 84.4738 787.651 84.5683 788.291 84.5683C789.148 84.5683 789.855 84.361 790.412 83.9464C790.97 83.5318 791.248 82.8823 791.248 81.9979L791.248 79.8421L791.11 79.8421C790.991 80.0356 790.82 80.2751 790.599 80.5607C790.382 80.8417 790.069 81.0927 789.659 81.3139C789.254 81.5304 788.706 81.6386 788.015 81.6386C787.158 81.6386 786.389 81.4359 785.707 81.0306C785.03 80.6252 784.493 80.0356 784.097 79.2617C783.706 78.4878 783.51 77.5481 783.51 76.4426C783.51 75.3555 783.701 74.4089 784.083 73.6027C784.466 72.792 784.998 72.1656 785.679 71.7233C786.361 71.2765 787.149 71.0531 788.042 71.0531C788.733 71.0531 789.282 71.1683 789.687 71.3986C790.097 71.6243 790.41 71.8823 790.627 72.1725C790.848 72.4581 791.018 72.693 791.138 72.8772L791.304 72.8772L791.304 71.1913L792.879 71.1913L792.879 82.1085C792.879 83.0205 792.672 83.7622 792.257 84.3333C791.847 84.9091 791.295 85.3306 790.599 85.5978C789.908 85.8696 789.139 86.0055 788.291 86.0055ZM788.236 80.1738C788.89 80.1738 789.443 80.0241 789.894 79.7246C790.346 79.4252 790.689 78.9945 790.924 78.4326C791.159 77.8706 791.276 77.198 791.276 76.415C791.276 75.6503 791.161 74.9755 790.931 74.3904C790.7 73.8054 790.359 73.3471 789.908 73.0154C789.457 72.6838 788.899 72.5179 788.236 72.5179C787.545 72.5179 786.969 72.693 786.509 73.0431C786.052 73.3932 785.709 73.863 785.479 74.4526C785.253 75.0422 785.14 75.6964 785.14 76.415C785.14 77.152 785.256 77.8038 785.486 78.3704C785.721 78.9323 786.066 79.3746 786.522 79.697C786.983 80.0149 787.554 80.1738 788.236 80.1738ZM795.864 81.8044L795.864 71.1913L797.439 71.1913L797.439 72.7943L797.55 72.7943C797.744 72.2692 798.094 71.8431 798.6 71.516C799.107 71.189 799.678 71.0255 800.314 71.0255C800.434 71.0255 800.583 71.0278 800.763 71.0324C800.943 71.037 801.079 71.0439 801.171 71.0531L801.171 72.7114C801.115 72.6976 800.989 72.6769 800.791 72.6492C800.597 72.617 800.392 72.6009 800.176 72.6009C799.66 72.6009 799.199 72.7091 798.794 72.9256C798.393 73.1375 798.075 73.4323 797.84 73.81C797.61 74.1832 797.495 74.6092 797.495 75.0883L797.495 81.8044L795.864 81.8044ZM806.227 82.0532C805.554 82.0532 804.944 81.9265 804.396 81.6731C803.848 81.4152 803.412 81.0444 803.09 80.5607C802.767 80.0724 802.606 79.4828 802.606 78.7918C802.606 78.1838 802.726 77.6909 802.965 77.3132C803.205 76.9309 803.525 76.6314 803.926 76.4149C804.327 76.1984 804.769 76.0372 805.253 75.9313C805.741 75.8207 806.231 75.7332 806.724 75.6687C807.369 75.5858 807.892 75.5236 808.293 75.4822C808.698 75.4361 808.993 75.3601 809.177 75.2541C809.366 75.1482 809.46 74.9639 809.46 74.7014L809.46 74.6461C809.46 73.9643 809.274 73.4346 808.901 73.0569C808.532 72.6792 807.973 72.4903 807.222 72.4903C806.443 72.4903 805.833 72.6607 805.391 73.0016C804.948 73.3425 804.638 73.7064 804.458 74.0933L802.91 73.5406C803.187 72.8957 803.555 72.3936 804.016 72.0343C804.481 71.6704 804.988 71.417 805.536 71.2742C806.089 71.1268 806.632 71.0531 807.166 71.0531C807.507 71.0531 807.899 71.0946 808.341 71.1775C808.788 71.2558 809.219 71.4193 809.633 71.6681C810.052 71.9168 810.4 72.2922 810.677 72.7943C810.953 73.2964 811.091 73.969 811.091 74.8119L811.091 81.8044L809.46 81.8044L809.46 80.3672L809.378 80.3672C809.267 80.5976 809.083 80.844 808.825 81.1066C808.567 81.3691 808.224 81.5925 807.795 81.7768C807.367 81.961 806.844 82.0532 806.227 82.0532ZM806.476 80.5883C807.12 80.5883 807.664 80.4617 808.106 80.2083C808.553 79.955 808.889 79.6279 809.115 79.2272C809.345 78.8264 809.46 78.4049 809.46 77.9627L809.46 76.4702C809.391 76.5531 809.239 76.6291 809.004 76.6982C808.774 76.7627 808.507 76.8203 808.203 76.871C807.903 76.917 807.611 76.9585 807.325 76.9954C807.044 77.0276 806.816 77.0552 806.641 77.0783C806.218 77.1335 805.821 77.2234 805.453 77.3477C805.089 77.4675 804.794 77.6495 804.568 77.8936C804.347 78.1331 804.237 78.4602 804.237 78.8748C804.237 79.4414 804.446 79.8697 804.866 80.1599C805.289 80.4455 805.826 80.5883 806.476 80.5883ZM814.067 85.7844L814.067 71.1913L815.643 71.1913L815.643 72.8772L815.836 72.8772C815.956 72.693 816.122 72.4581 816.334 72.1725C816.55 71.8823 816.859 71.6243 817.26 71.3986C817.665 71.1683 818.213 71.0531 818.904 71.0531C819.798 71.0531 820.585 71.2765 821.267 71.7233C821.949 72.1702 822.481 72.8035 822.863 73.6235C823.246 74.4434 823.437 75.4108 823.437 76.5255C823.437 77.6495 823.246 78.6237 822.863 79.4483C822.481 80.2682 821.951 80.9039 821.274 81.3553C820.597 81.8021 819.816 82.0255 818.932 82.0255C818.25 82.0255 817.704 81.9127 817.294 81.687C816.884 81.4566 816.569 81.1964 816.348 80.9062C816.126 80.6114 815.956 80.3672 815.836 80.1738L815.698 80.1738L815.698 85.7844L814.067 85.7844ZM815.67 76.4979C815.67 77.2994 815.788 78.0065 816.023 78.6191C816.258 79.2272 816.601 79.7039 817.052 80.0494C817.504 80.3903 818.057 80.5607 818.711 80.5607C819.392 80.5607 819.961 80.3811 820.417 80.0218C820.878 79.6578 821.223 79.1696 821.454 78.5569C821.689 77.9397 821.806 77.2533 821.806 76.4979C821.806 75.7516 821.691 75.0791 821.461 74.4803C821.235 73.8768 820.892 73.4001 820.431 73.05C819.975 72.6953 819.402 72.5179 818.711 72.5179C818.047 72.5179 817.49 72.6861 817.039 73.0223C816.587 73.354 816.246 73.8192 816.016 74.4181C815.786 75.0123 815.67 75.7056 815.67 76.4979ZM827.555 75.42L827.555 81.8044L825.924 81.8044L825.924 67.6536L827.555 67.6536L827.555 72.8496L827.693 72.8496C827.942 72.3014 828.315 71.8661 828.812 71.5437C829.315 71.2166 829.983 71.0531 830.816 71.0531C831.539 71.0531 832.173 71.1982 832.716 71.4884C833.26 71.774 833.681 72.2139 833.981 72.8081C834.285 73.3978 834.437 74.1486 834.437 75.0607L834.437 81.8044L832.806 81.8044L832.806 75.1712C832.806 74.3282 832.587 73.6764 832.15 73.2158C831.717 72.7506 831.116 72.5179 830.346 72.5179C829.812 72.5179 829.333 72.6308 828.909 72.8565C828.49 73.0822 828.158 73.4116 827.914 73.8446C827.675 74.2776 827.555 74.8027 827.555 75.42ZM838.09 85.7844C837.814 85.7844 837.568 85.7613 837.351 85.7153C837.135 85.6738 836.985 85.6323 836.902 85.5909L837.316 84.1537C837.713 84.255 838.063 84.2919 838.367 84.2642C838.671 84.2366 838.94 84.1007 839.175 83.8566C839.415 83.617 839.633 83.2278 839.832 82.6889L840.136 81.8597L836.211 71.1913L837.98 71.1913L840.909 79.6486L841.02 79.6486L843.95 71.1913L845.719 71.1913L841.213 83.3522C841.011 83.9003 840.76 84.3541 840.46 84.7134C840.161 85.0773 839.813 85.3467 839.417 85.5218C839.025 85.6968 838.583 85.7844 838.09 85.7844Z" fill="#333333"/>
<path d="M870.093 358.704L870.093 372.855L868.379 372.855L868.379 358.704L870.093 358.704ZM874.938 366.471L874.938 372.855L873.307 372.855L873.307 362.242L874.883 362.242L874.883 363.9L875.021 363.9C875.27 363.361 875.647 362.928 876.154 362.601C876.661 362.269 877.315 362.104 878.117 362.104C878.835 362.104 879.464 362.251 880.003 362.546C880.542 362.836 880.961 363.278 881.26 363.873C881.56 364.462 881.71 365.208 881.71 366.111L881.71 372.855L880.079 372.855L880.079 366.222C880.079 365.388 879.862 364.739 879.429 364.273C878.996 363.803 878.402 363.568 877.647 363.568C877.126 363.568 876.661 363.681 876.251 363.907C875.846 364.133 875.525 364.462 875.29 364.895C875.056 365.328 874.938 365.853 874.938 366.471ZM889.305 362.242L889.305 363.624L883.805 363.624L883.805 362.242L889.305 362.242ZM885.408 359.699L887.039 359.699L887.039 369.815C887.039 370.275 887.105 370.621 887.239 370.851C887.377 371.077 887.552 371.229 887.764 371.307C887.981 371.381 888.209 371.418 888.448 371.418C888.628 371.418 888.775 371.409 888.89 371.39C889.005 371.367 889.098 371.349 889.167 371.335L889.498 372.8C889.388 372.841 889.233 372.883 889.035 372.924C888.837 372.97 888.586 372.993 888.282 372.993C887.822 372.993 887.37 372.894 886.928 372.696C886.49 372.498 886.126 372.196 885.836 371.791C885.551 371.386 885.408 370.874 885.408 370.257L885.408 359.699ZM896.094 373.076C895.071 373.076 894.189 372.85 893.447 372.399C892.71 371.943 892.141 371.307 891.741 370.492C891.344 369.672 891.146 368.718 891.146 367.631C891.146 366.544 891.344 365.586 891.741 364.757C892.141 363.923 892.699 363.274 893.413 362.808C894.131 362.339 894.97 362.104 895.928 362.104C896.48 362.104 897.026 362.196 897.565 362.38C898.104 362.564 898.595 362.864 899.037 363.278C899.479 363.688 899.832 364.232 900.094 364.909C900.357 365.586 900.488 366.42 900.488 367.41L900.488 368.101L892.307 368.101L892.307 366.692L898.83 366.692C898.83 366.093 898.71 365.558 898.47 365.089C898.236 364.619 897.899 364.248 897.462 363.976C897.029 363.704 896.517 363.568 895.928 363.568C895.278 363.568 894.716 363.73 894.242 364.052C893.772 364.37 893.41 364.785 893.157 365.296C892.904 365.807 892.777 366.355 892.777 366.94L892.777 367.88C892.777 368.682 892.915 369.361 893.192 369.918C893.473 370.471 893.862 370.893 894.359 371.183C894.857 371.468 895.435 371.611 896.094 371.611C896.522 371.611 896.909 371.551 897.254 371.432C897.604 371.307 897.906 371.123 898.16 370.879C898.413 370.63 898.609 370.321 898.747 369.953L900.322 370.395C900.156 370.93 899.878 371.399 899.486 371.805C899.095 372.205 898.611 372.519 898.035 372.744C897.459 372.966 896.812 373.076 896.094 373.076ZM902.969 372.855L902.969 362.242L904.544 362.242L904.544 363.845L904.655 363.845C904.848 363.32 905.198 362.894 905.705 362.567C906.211 362.24 906.783 362.076 907.418 362.076C907.538 362.076 907.688 362.078 907.867 362.083C908.047 362.088 908.183 362.094 908.275 362.104L908.275 363.762C908.22 363.748 908.093 363.727 907.895 363.7C907.702 363.668 907.497 363.651 907.28 363.651C906.764 363.651 906.304 363.76 905.898 363.976C905.498 364.188 905.18 364.483 904.945 364.861C904.714 365.234 904.599 365.66 904.599 366.139L904.599 372.855L902.969 372.855ZM913.331 373.104C912.659 373.104 912.048 372.977 911.5 372.724C910.952 372.466 910.517 372.095 910.194 371.611C909.872 371.123 909.711 370.533 909.711 369.842C909.711 369.234 909.83 368.741 910.07 368.364C910.309 367.981 910.63 367.682 911.03 367.465C911.431 367.249 911.873 367.088 912.357 366.982C912.845 366.871 913.336 366.784 913.829 366.719C914.474 366.636 914.996 366.574 915.397 366.533C915.803 366.487 916.097 366.411 916.282 366.305C916.471 366.199 916.565 366.014 916.565 365.752L916.565 365.697C916.565 365.015 916.378 364.485 916.005 364.107C915.637 363.73 915.077 363.541 914.326 363.541C913.548 363.541 912.937 363.711 912.495 364.052C912.053 364.393 911.742 364.757 911.562 365.144L910.015 364.591C910.291 363.946 910.66 363.444 911.12 363.085C911.585 362.721 912.092 362.468 912.64 362.325C913.193 362.177 913.737 362.104 914.271 362.104C914.612 362.104 915.003 362.145 915.446 362.228C915.892 362.306 916.323 362.47 916.738 362.719C917.157 362.967 917.505 363.343 917.781 363.845C918.057 364.347 918.196 365.019 918.196 365.862L918.196 372.855L916.565 372.855L916.565 371.418L916.482 371.418C916.371 371.648 916.187 371.895 915.929 372.157C915.671 372.42 915.328 372.643 914.9 372.827C914.471 373.012 913.949 373.104 913.331 373.104ZM913.58 371.639C914.225 371.639 914.768 371.512 915.211 371.259C915.657 371.006 915.994 370.678 916.219 370.278C916.45 369.877 916.565 369.455 916.565 369.013L916.565 367.521C916.496 367.604 916.344 367.68 916.109 367.749C915.879 367.813 915.611 367.871 915.307 367.922C915.008 367.968 914.715 368.009 914.43 368.046C914.149 368.078 913.921 368.106 913.746 368.129C913.322 368.184 912.926 368.274 912.557 368.398C912.193 368.518 911.899 368.7 911.673 368.944C911.452 369.184 911.341 369.511 911.341 369.925C911.341 370.492 911.551 370.92 911.97 371.21C912.394 371.496 912.93 371.639 913.58 371.639ZM925.483 373.076C924.489 373.076 923.632 372.841 922.913 372.371C922.195 371.901 921.642 371.254 921.255 370.43C920.868 369.605 920.674 368.663 920.674 367.604C920.674 366.526 920.872 365.575 921.269 364.75C921.669 363.921 922.227 363.274 922.941 362.808C923.659 362.339 924.498 362.104 925.456 362.104C926.202 362.104 926.875 362.242 927.473 362.518C928.072 362.795 928.563 363.182 928.945 363.679C929.328 364.177 929.565 364.757 929.657 365.42L928.026 365.42C927.902 364.937 927.625 364.508 927.197 364.135C926.773 363.757 926.202 363.568 925.483 363.568C924.848 363.568 924.29 363.734 923.811 364.066C923.337 364.393 922.966 364.856 922.699 365.455C922.436 366.049 922.305 366.747 922.305 367.548C922.305 368.368 922.434 369.082 922.692 369.69C922.955 370.298 923.323 370.771 923.798 371.107C924.277 371.443 924.839 371.611 925.483 371.611C925.907 371.611 926.292 371.538 926.637 371.39C926.983 371.243 927.275 371.031 927.515 370.754C927.754 370.478 927.925 370.146 928.026 369.759L929.657 369.759C929.565 370.386 929.337 370.95 928.973 371.452C928.614 371.95 928.137 372.346 927.543 372.641C926.953 372.931 926.267 373.076 925.483 373.076ZM936.656 362.242L936.656 363.624L931.156 363.624L931.156 362.242L936.656 362.242ZM932.759 359.699L934.39 359.699L934.39 369.815C934.39 370.275 934.457 370.621 934.59 370.851C934.729 371.077 934.904 371.229 935.115 371.307C935.332 371.381 935.56 371.418 935.8 371.418C935.979 371.418 936.127 371.409 936.242 371.39C936.357 371.367 936.449 371.349 936.518 371.335L936.85 372.8C936.739 372.841 936.585 372.883 936.387 372.924C936.189 372.97 935.938 372.993 935.634 372.993C935.173 372.993 934.722 372.894 934.279 372.696C933.842 372.498 933.478 372.196 933.188 371.791C932.902 371.386 932.759 370.874 932.759 370.257L932.759 359.699ZM939.109 372.855L939.109 362.242L940.74 362.242L940.74 372.855L939.109 372.855ZM939.938 360.473C939.621 360.473 939.346 360.365 939.116 360.148C938.89 359.932 938.778 359.671 938.778 359.367C938.778 359.063 938.89 358.803 939.116 358.587C939.346 358.37 939.621 358.262 939.938 358.262C940.256 358.262 940.528 358.37 940.754 358.587C940.984 358.803 941.099 359.063 941.099 359.367C941.099 359.671 940.984 359.932 940.754 360.148C940.528 360.365 940.256 360.473 939.938 360.473ZM948.038 373.076C947.08 373.076 946.239 372.848 945.516 372.392C944.798 371.936 944.236 371.298 943.83 370.478C943.429 369.658 943.229 368.7 943.229 367.604C943.229 366.498 943.429 365.533 943.83 364.709C944.236 363.884 944.798 363.244 945.516 362.788C946.239 362.332 947.08 362.104 948.038 362.104C948.996 362.104 949.835 362.332 950.553 362.788C951.276 363.244 951.838 363.884 952.239 364.709C952.645 365.533 952.847 366.498 952.847 367.604C952.847 368.7 952.645 369.658 952.239 370.478C951.838 371.298 951.276 371.936 950.553 372.392C949.835 372.848 948.996 373.076 948.038 373.076ZM948.038 371.611C948.766 371.611 949.365 371.425 949.835 371.052C950.304 370.678 950.652 370.188 950.878 369.58C951.104 368.972 951.217 368.313 951.217 367.604C951.217 366.894 951.104 366.233 950.878 365.621C950.652 365.008 950.304 364.513 949.835 364.135C949.365 363.757 948.766 363.568 948.038 363.568C947.31 363.568 946.711 363.757 946.242 364.135C945.772 364.513 945.424 365.008 945.198 365.621C944.973 366.233 944.86 366.894 944.86 367.604C944.86 368.313 944.973 368.972 945.198 369.58C945.424 370.188 945.772 370.678 946.242 371.052C946.711 371.425 947.31 371.611 948.038 371.611ZM956.967 366.471L956.967 372.855L955.336 372.855L955.336 362.242L956.912 362.242L956.912 363.9L957.05 363.9C957.299 363.361 957.676 362.928 958.183 362.601C958.69 362.269 959.344 362.104 960.145 362.104C960.864 362.104 961.493 362.251 962.032 362.546C962.571 362.836 962.99 363.278 963.289 363.872C963.589 364.462 963.738 365.208 963.738 366.111L963.738 372.855L962.108 372.855L962.108 366.222C962.108 365.388 961.891 364.738 961.458 364.273C961.025 363.803 960.431 363.568 959.676 363.568C959.155 363.568 958.69 363.681 958.28 363.907C957.875 364.133 957.554 364.462 957.319 364.895C957.085 365.328 956.967 365.853 956.967 366.471ZM872.746 399.855L868.379 399.855L868.379 385.704L872.94 385.704C874.312 385.704 875.487 385.987 876.463 386.554C877.44 387.116 878.188 387.924 878.709 388.979C879.23 390.03 879.49 391.287 879.49 392.752C879.49 394.226 879.227 395.495 878.702 396.559C878.177 397.619 877.412 398.434 876.408 399.005C875.404 399.572 874.183 399.855 872.746 399.855ZM870.093 398.335L872.635 398.335C873.806 398.335 874.775 398.109 875.544 397.658C876.314 397.206 876.887 396.564 877.265 395.73C877.643 394.896 877.831 393.904 877.831 392.752C877.831 391.61 877.645 390.626 877.272 389.802C876.899 388.972 876.341 388.337 875.6 387.894C874.858 387.448 873.934 387.224 872.829 387.224L870.093 387.224L870.093 398.335ZM886.593 400.076C885.57 400.076 884.688 399.85 883.946 399.399C883.209 398.943 882.641 398.307 882.24 397.492C881.844 396.672 881.646 395.718 881.646 394.631C881.646 393.544 881.844 392.586 882.24 391.757C882.641 390.923 883.198 390.274 883.912 389.808C884.631 389.339 885.469 389.104 886.427 389.104C886.98 389.104 887.526 389.196 888.065 389.38C888.604 389.564 889.094 389.864 889.536 390.278C889.979 390.688 890.331 391.232 890.594 391.909C890.856 392.586 890.987 393.42 890.987 394.41L890.987 395.101L882.806 395.101L882.806 393.692L889.329 393.692C889.329 393.093 889.209 392.558 888.97 392.089C888.735 391.619 888.399 391.248 887.961 390.976C887.528 390.704 887.017 390.568 886.427 390.568C885.778 390.568 885.216 390.73 884.741 391.052C884.271 391.37 883.91 391.785 883.656 392.296C883.403 392.807 883.276 393.355 883.276 393.94L883.276 394.88C883.276 395.682 883.414 396.361 883.691 396.918C883.972 397.471 884.361 397.893 884.859 398.183C885.356 398.468 885.934 398.611 886.593 398.611C887.021 398.611 887.408 398.551 887.754 398.432C888.104 398.307 888.405 398.123 888.659 397.879C888.912 397.63 889.108 397.321 889.246 396.953L890.822 397.395C890.656 397.93 890.377 398.399 889.985 398.805C889.594 399.205 889.11 399.519 888.534 399.744C887.959 399.966 887.311 400.076 886.593 400.076ZM900.986 391.619L899.521 392.033C899.429 391.789 899.293 391.552 899.113 391.322C898.938 391.087 898.698 390.893 898.394 390.741C898.09 390.589 897.701 390.513 897.227 390.513C896.577 390.513 896.036 390.663 895.603 390.962C895.175 391.257 894.96 391.633 894.96 392.089C894.96 392.494 895.108 392.814 895.403 393.049C895.697 393.284 896.158 393.48 896.785 393.636L898.36 394.023C899.309 394.254 900.016 394.606 900.481 395.08C900.946 395.55 901.179 396.156 901.179 396.898C901.179 397.506 901.004 398.049 900.654 398.528C900.308 399.007 899.825 399.385 899.203 399.662C898.581 399.938 897.858 400.076 897.033 400.076C895.951 400.076 895.055 399.841 894.345 399.371C893.636 398.901 893.187 398.215 892.998 397.312L894.546 396.925C894.693 397.497 894.972 397.925 895.382 398.21C895.796 398.496 896.338 398.639 897.006 398.639C897.766 398.639 898.369 398.478 898.816 398.155C899.267 397.828 899.493 397.437 899.493 396.981C899.493 396.612 899.364 396.303 899.106 396.055C898.848 395.801 898.452 395.612 897.918 395.488L896.149 395.074C895.177 394.843 894.463 394.486 894.007 394.003C893.555 393.514 893.33 392.904 893.33 392.172C893.33 391.573 893.498 391.043 893.834 390.582C894.175 390.122 894.638 389.76 895.223 389.497C895.813 389.235 896.48 389.104 897.227 389.104C898.277 389.104 899.102 389.334 899.7 389.795C900.304 390.255 900.732 390.863 900.986 391.619ZM903.634 399.855L903.634 389.242L905.264 389.242L905.264 399.855L903.634 399.855ZM904.463 387.473C904.145 387.473 903.871 387.365 903.641 387.148C903.415 386.932 903.302 386.671 903.302 386.367C903.302 386.063 903.415 385.803 903.641 385.587C903.871 385.37 904.145 385.262 904.463 385.262C904.781 385.262 905.052 385.37 905.278 385.587C905.508 385.803 905.624 386.063 905.624 386.367C905.624 386.671 905.508 386.932 905.278 387.148C905.052 387.365 904.781 387.473 904.463 387.473ZM912.535 404.056C911.747 404.056 911.07 403.955 910.504 403.752C909.937 403.554 909.465 403.291 909.087 402.964C908.714 402.642 908.417 402.296 908.196 401.928L909.495 401.016C909.642 401.209 909.829 401.43 910.054 401.679C910.28 401.932 910.589 402.151 910.98 402.336C911.376 402.524 911.895 402.619 912.535 402.619C913.392 402.619 914.099 402.412 914.656 401.997C915.214 401.582 915.492 400.933 915.492 400.048L915.492 397.893L915.354 397.893C915.234 398.086 915.064 398.326 914.843 398.611C914.626 398.892 914.313 399.143 913.903 399.364C913.498 399.581 912.95 399.689 912.259 399.689C911.402 399.689 910.632 399.486 909.951 399.081C909.274 398.676 908.737 398.086 908.341 397.312C907.949 396.538 907.753 395.599 907.753 394.493C907.753 393.406 907.945 392.459 908.327 391.653C908.709 390.843 909.241 390.216 909.923 389.774C910.605 389.327 911.393 389.104 912.286 389.104C912.977 389.104 913.525 389.219 913.931 389.449C914.341 389.675 914.654 389.933 914.87 390.223C915.091 390.509 915.262 390.744 915.382 390.928L915.548 390.928L915.548 389.242L917.123 389.242L917.123 400.159C917.123 401.071 916.916 401.813 916.501 402.384C916.091 402.96 915.538 403.381 914.843 403.648C914.152 403.92 913.383 404.056 912.535 404.056ZM912.48 398.224C913.134 398.224 913.687 398.075 914.138 397.775C914.589 397.476 914.933 397.045 915.167 396.483C915.402 395.921 915.52 395.249 915.52 394.465C915.52 393.701 915.405 393.026 915.174 392.441C914.944 391.856 914.603 391.398 914.152 391.066C913.7 390.734 913.143 390.568 912.48 390.568C911.789 390.568 911.213 390.744 910.752 391.094C910.296 391.444 909.953 391.914 909.723 392.503C909.497 393.093 909.384 393.747 909.384 394.465C909.384 395.203 909.499 395.854 909.73 396.421C909.965 396.983 910.31 397.425 910.766 397.748C911.227 398.065 911.798 398.224 912.48 398.224ZM921.739 393.471L921.739 399.855L920.108 399.855L920.108 389.242L921.683 389.242L921.683 390.9L921.821 390.9C922.07 390.361 922.448 389.928 922.955 389.601C923.461 389.269 924.115 389.104 924.917 389.104C925.636 389.104 926.264 389.251 926.803 389.546C927.342 389.836 927.761 390.278 928.061 390.872C928.36 391.462 928.51 392.208 928.51 393.111L928.51 399.855L926.879 399.855L926.879 393.222C926.879 392.388 926.663 391.739 926.23 391.273C925.797 390.803 925.203 390.568 924.447 390.568C923.927 390.568 923.461 390.681 923.051 390.907C922.646 391.133 922.326 391.462 922.091 391.895C921.856 392.328 921.739 392.853 921.739 393.471Z" fill="#333333"/>
<path d="M747.95 648.133L749.663 648.133L749.663 657.502C749.663 658.47 749.435 659.334 748.979 660.094C748.528 660.849 747.89 661.446 747.065 661.883C746.241 662.316 745.273 662.533 744.163 662.533C743.053 662.533 742.086 662.316 741.261 661.883C740.437 661.446 739.796 660.849 739.34 660.094C738.889 659.334 738.663 658.47 738.663 657.502L738.663 648.133L740.377 648.133L740.377 657.364C740.377 658.055 740.529 658.67 740.833 659.209C741.137 659.744 741.57 660.165 742.132 660.474C742.698 660.778 743.375 660.93 744.163 660.93C744.951 660.93 745.628 660.778 746.195 660.474C746.761 660.165 747.194 659.744 747.494 659.209C747.798 658.67 747.95 658.055 747.95 657.364L747.95 648.133ZM760.382 654.048L758.917 654.462C758.825 654.218 758.689 653.981 758.509 653.751C758.334 653.516 758.095 653.322 757.791 653.17C757.487 653.018 757.097 652.942 756.623 652.942C755.973 652.942 755.432 653.092 754.999 653.391C754.571 653.686 754.356 654.062 754.356 654.518C754.356 654.923 754.504 655.243 754.799 655.478C755.093 655.713 755.554 655.909 756.181 656.065L757.756 656.452C758.705 656.683 759.412 657.035 759.877 657.509C760.342 657.979 760.575 658.585 760.575 659.327C760.575 659.935 760.4 660.478 760.05 660.957C759.704 661.436 759.221 661.814 758.599 662.09C757.977 662.367 757.254 662.505 756.429 662.505C755.347 662.505 754.451 662.27 753.742 661.8C753.032 661.33 752.583 660.644 752.394 659.741L753.942 659.354C754.089 659.925 754.368 660.354 754.778 660.639C755.193 660.925 755.734 661.068 756.402 661.068C757.162 661.068 757.765 660.907 758.212 660.584C758.663 660.257 758.889 659.866 758.889 659.41C758.889 659.041 758.76 658.732 758.502 658.484C758.244 658.23 757.848 658.041 757.314 657.917L755.545 657.502C754.573 657.272 753.859 656.915 753.403 656.432C752.952 655.943 752.726 655.333 752.726 654.6C752.726 654.002 752.894 653.472 753.23 653.011C753.571 652.551 754.034 652.189 754.619 651.926C755.209 651.664 755.877 651.533 756.623 651.533C757.673 651.533 758.498 651.763 759.096 652.224C759.7 652.684 760.128 653.292 760.382 654.048ZM767.48 662.505C766.457 662.505 765.575 662.279 764.833 661.828C764.096 661.372 763.527 660.736 763.126 659.921C762.73 659.101 762.532 658.147 762.532 657.06C762.532 655.973 762.73 655.015 763.126 654.186C763.527 653.352 764.085 652.703 764.799 652.237C765.517 651.768 766.356 651.533 767.314 651.533C767.866 651.533 768.412 651.625 768.951 651.809C769.49 651.993 769.981 652.293 770.423 652.707C770.865 653.117 771.218 653.661 771.48 654.338C771.743 655.015 771.874 655.849 771.874 656.839L771.874 657.53L763.693 657.53L763.693 656.121L770.216 656.121C770.216 655.522 770.096 654.987 769.856 654.518C769.621 654.048 769.285 653.677 768.848 653.405C768.415 653.133 767.903 652.997 767.314 652.997C766.664 652.997 766.102 653.159 765.628 653.481C765.158 653.799 764.796 654.214 764.543 654.725C764.29 655.236 764.163 655.784 764.163 656.369L764.163 657.309C764.163 658.111 764.301 658.79 764.577 659.347C764.858 659.9 765.248 660.322 765.745 660.612C766.243 660.897 766.821 661.04 767.48 661.04C767.908 661.04 768.295 660.98 768.64 660.861C768.99 660.736 769.292 660.552 769.545 660.308C769.799 660.059 769.995 659.75 770.133 659.382L771.708 659.824C771.542 660.358 771.264 660.828 770.872 661.234C770.481 661.634 769.997 661.948 769.421 662.173C768.845 662.394 768.198 662.505 767.48 662.505ZM774.355 662.284L774.355 651.671L775.93 651.671L775.93 653.274L776.04 653.274C776.234 652.749 776.584 652.323 777.091 651.996C777.597 651.668 778.169 651.505 778.804 651.505C778.924 651.505 779.074 651.507 779.253 651.512C779.433 651.516 779.569 651.523 779.661 651.533L779.661 653.191C779.606 653.177 779.479 653.156 779.281 653.129C779.088 653.096 778.883 653.08 778.666 653.08C778.15 653.08 777.69 653.189 777.284 653.405C776.883 653.617 776.566 653.912 776.331 654.29C776.1 654.663 775.985 655.089 775.985 655.568L775.985 662.284L774.355 662.284ZM787.288 662.284L787.288 648.133L792.069 648.133C793.175 648.133 794.082 648.322 794.791 648.7C795.501 649.073 796.026 649.586 796.367 650.241C796.708 650.895 796.878 651.639 796.878 652.472C796.878 653.306 796.708 654.045 796.367 654.69C796.026 655.335 795.503 655.842 794.798 656.21C794.094 656.574 793.193 656.756 792.097 656.756L788.227 656.756L788.227 655.209L792.041 655.209C792.797 655.209 793.405 655.098 793.866 654.877C794.331 654.656 794.667 654.343 794.874 653.937C795.086 653.527 795.192 653.039 795.192 652.472C795.192 651.906 795.086 651.411 794.874 650.987C794.662 650.563 794.324 650.236 793.859 650.006C793.393 649.771 792.778 649.653 792.014 649.653L789.001 649.653L789.001 662.284L787.288 662.284ZM793.948 655.927L797.431 662.284L795.441 662.284L792.014 655.927L793.948 655.927ZM803.848 662.505C802.826 662.505 801.943 662.279 801.202 661.828C800.465 661.372 799.896 660.736 799.495 659.921C799.099 659.101 798.901 658.147 798.901 657.06C798.901 655.973 799.099 655.015 799.495 654.186C799.896 653.352 800.453 652.703 801.167 652.237C801.886 651.768 802.724 651.533 803.682 651.533C804.235 651.533 804.781 651.625 805.32 651.809C805.859 651.993 806.349 652.293 806.792 652.707C807.234 653.117 807.586 653.661 807.849 654.338C808.111 655.015 808.243 655.849 808.243 656.839L808.243 657.53L800.062 657.53L800.062 656.121L806.584 656.121C806.584 655.522 806.465 654.987 806.225 654.518C805.99 654.048 805.654 653.677 805.216 653.405C804.783 653.133 804.272 652.997 803.682 652.997C803.033 652.997 802.471 653.159 801.996 653.481C801.527 653.799 801.165 654.214 800.912 654.725C800.658 655.236 800.532 655.784 800.532 656.369L800.532 657.309C800.532 658.111 800.67 658.79 800.946 659.347C801.227 659.9 801.616 660.322 802.114 660.612C802.611 660.897 803.189 661.04 803.848 661.04C804.277 661.04 804.663 660.98 805.009 660.861C805.359 660.736 805.661 660.552 805.914 660.308C806.167 660.059 806.363 659.75 806.501 659.382L808.077 659.824C807.911 660.358 807.632 660.828 807.241 661.234C806.849 661.634 806.366 661.948 805.79 662.173C805.214 662.394 804.567 662.505 803.848 662.505ZM818.241 654.048L816.776 654.462C816.684 654.218 816.548 653.981 816.368 653.751C816.193 653.516 815.954 653.322 815.65 653.17C815.346 653.018 814.956 652.942 814.482 652.942C813.833 652.942 813.291 653.092 812.858 653.391C812.43 653.686 812.216 654.062 812.216 654.518C812.216 654.923 812.363 655.243 812.658 655.478C812.953 655.713 813.413 655.909 814.04 656.065L815.615 656.452C816.564 656.683 817.271 657.035 817.736 657.509C818.202 657.979 818.434 658.585 818.434 659.327C818.434 659.935 818.259 660.478 817.909 660.957C817.564 661.436 817.08 661.814 816.458 662.09C815.836 662.367 815.113 662.505 814.289 662.505C813.206 662.505 812.31 662.27 811.601 661.8C810.891 661.33 810.442 660.644 810.253 659.741L811.801 659.354C811.948 659.925 812.227 660.354 812.637 660.639C813.052 660.925 813.593 661.068 814.261 661.068C815.021 661.068 815.624 660.907 816.071 660.584C816.523 660.257 816.748 659.866 816.748 659.41C816.748 659.041 816.619 658.732 816.361 658.484C816.103 658.23 815.707 658.041 815.173 657.917L813.404 657.502C812.432 657.272 811.718 656.915 811.262 656.431C810.811 655.943 810.585 655.333 810.585 654.6C810.585 654.002 810.753 653.472 811.089 653.011C811.43 652.551 811.893 652.189 812.478 651.926C813.068 651.664 813.736 651.533 814.482 651.533C815.532 651.533 816.357 651.763 816.956 652.224C817.559 652.684 817.987 653.292 818.241 654.048ZM825.339 662.505C824.316 662.505 823.434 662.279 822.692 661.828C821.955 661.372 821.386 660.736 820.986 659.921C820.59 659.101 820.391 658.147 820.391 657.06C820.391 655.973 820.59 655.015 820.986 654.186C821.386 653.352 821.944 652.703 822.658 652.237C823.376 651.768 824.215 651.533 825.173 651.533C825.726 651.533 826.271 651.625 826.81 651.809C827.349 651.993 827.84 652.293 828.282 652.707C828.724 653.117 829.077 653.661 829.339 654.338C829.602 655.015 829.733 655.849 829.733 656.839L829.733 657.53L821.552 657.53L821.552 656.121L828.075 656.121C828.075 655.522 827.955 654.987 827.716 654.518C827.481 654.048 827.144 653.677 826.707 653.405C826.274 653.133 825.762 652.997 825.173 652.997C824.523 652.997 823.961 653.159 823.487 653.481C823.017 653.799 822.655 654.214 822.402 654.725C822.149 655.236 822.022 655.784 822.022 656.369L822.022 657.309C822.022 658.111 822.16 658.79 822.437 659.347C822.718 659.9 823.107 660.322 823.604 660.612C824.102 660.897 824.68 661.04 825.339 661.04C825.767 661.04 826.154 660.98 826.5 660.861C826.85 660.736 827.151 660.552 827.405 660.308C827.658 660.059 827.854 659.75 827.992 659.382L829.567 659.824C829.402 660.358 829.123 660.828 828.731 661.234C828.34 661.634 827.856 661.948 827.28 662.173C826.704 662.394 826.057 662.505 825.339 662.505ZM835.337 662.533C834.664 662.533 834.054 662.406 833.506 662.153C832.958 661.895 832.522 661.524 832.2 661.04C831.877 660.552 831.716 659.962 831.716 659.271C831.716 658.663 831.836 658.17 832.076 657.793C832.315 657.41 832.635 657.111 833.036 656.894C833.437 656.678 833.879 656.517 834.363 656.411C834.851 656.3 835.341 656.213 835.834 656.148C836.479 656.065 837.002 656.003 837.403 655.962C837.808 655.916 838.103 655.84 838.287 655.734C838.476 655.628 838.571 655.443 838.571 655.181L838.571 655.126C838.571 654.444 838.384 653.914 838.011 653.536C837.642 653.159 837.083 652.97 836.332 652.97C835.553 652.97 834.943 653.14 834.501 653.481C834.059 653.822 833.748 654.186 833.568 654.573L832.02 654.02C832.297 653.375 832.665 652.873 833.126 652.514C833.591 652.15 834.098 651.896 834.646 651.754C835.199 651.606 835.742 651.533 836.277 651.533C836.617 651.533 837.009 651.574 837.451 651.657C837.898 651.735 838.329 651.899 838.743 652.148C839.162 652.396 839.51 652.772 839.787 653.274C840.063 653.776 840.201 654.448 840.201 655.291L840.201 662.284L838.571 662.284L838.571 660.847L838.488 660.847C838.377 661.077 838.193 661.323 837.935 661.586C837.677 661.849 837.334 662.072 836.905 662.256C836.477 662.441 835.954 662.533 835.337 662.533ZM835.586 661.068C836.231 661.068 836.774 660.941 837.216 660.688C837.663 660.434 837.999 660.107 838.225 659.707C838.455 659.306 838.571 658.884 838.571 658.442L838.571 656.95C838.501 657.033 838.349 657.109 838.115 657.178C837.884 657.242 837.617 657.3 837.313 657.35C837.014 657.397 836.721 657.438 836.436 657.475C836.155 657.507 835.927 657.535 835.751 657.558C835.328 657.613 834.932 657.703 834.563 657.827C834.199 657.947 833.904 658.129 833.679 658.373C833.457 658.613 833.347 658.94 833.347 659.354C833.347 659.921 833.557 660.349 833.976 660.639C834.399 660.925 834.936 661.068 835.586 661.068ZM843.178 662.284L843.178 651.671L844.753 651.671L844.753 653.274L844.863 653.274C845.057 652.749 845.407 652.323 845.914 651.996C846.42 651.668 846.992 651.505 847.627 651.505C847.747 651.505 847.897 651.507 848.076 651.512C848.256 651.516 848.392 651.523 848.484 651.533L848.484 653.191C848.429 653.177 848.302 653.156 848.104 653.129C847.911 653.096 847.706 653.08 847.489 653.08C846.973 653.08 846.513 653.189 846.107 653.405C845.706 653.617 845.389 653.912 845.154 654.29C844.923 654.663 844.808 655.089 844.808 655.568L844.808 662.284L843.178 662.284ZM854.406 662.505C853.411 662.505 852.554 662.27 851.835 661.8C851.117 661.33 850.564 660.683 850.177 659.859C849.79 659.034 849.597 658.092 849.597 657.033C849.597 655.955 849.795 655.004 850.191 654.179C850.592 653.35 851.149 652.703 851.863 652.237C852.581 651.768 853.42 651.533 854.378 651.533C855.124 651.533 855.797 651.671 856.396 651.947C856.994 652.224 857.485 652.61 857.867 653.108C858.25 653.605 858.487 654.186 858.579 654.849L856.948 654.849C856.824 654.366 856.548 653.937 856.119 653.564C855.695 653.186 855.124 652.997 854.406 652.997C853.77 652.997 853.213 653.163 852.734 653.495C852.259 653.822 851.888 654.285 851.621 654.884C851.359 655.478 851.227 656.176 851.227 656.977C851.227 657.797 851.356 658.511 851.614 659.119C851.877 659.727 852.245 660.2 852.72 660.536C853.199 660.872 853.761 661.04 854.406 661.04C854.829 661.04 855.214 660.966 855.56 660.819C855.905 660.672 856.198 660.46 856.437 660.183C856.677 659.907 856.847 659.575 856.948 659.188L858.579 659.188C858.487 659.815 858.259 660.379 857.895 660.881C857.536 661.379 857.059 661.775 856.465 662.07C855.875 662.36 855.189 662.505 854.406 662.505ZM862.593 655.899L862.593 662.284L860.963 662.284L860.963 648.133L862.593 648.133L862.593 653.329L862.732 653.329C862.98 652.781 863.354 652.346 863.851 652.023C864.353 651.696 865.021 651.533 865.855 651.533C866.578 651.533 867.211 651.678 867.755 651.968C868.299 652.253 868.72 652.693 869.019 653.288C869.323 653.877 869.475 654.628 869.475 655.54L869.475 662.284L867.845 662.284L867.845 655.651C867.845 654.808 867.626 654.156 867.188 653.695C866.755 653.23 866.154 652.997 865.385 652.997C864.851 652.997 864.372 653.11 863.948 653.336C863.529 653.562 863.197 653.891 862.953 654.324C862.713 654.757 862.593 655.282 862.593 655.899Z" fill="#333333"/>
<path d="M244.753 652.555H243.039C242.938 652.062 242.76 651.629 242.507 651.256C242.258 650.883 241.954 650.57 241.595 650.317C241.24 650.059 240.846 649.865 240.413 649.736C239.98 649.607 239.529 649.543 239.059 649.543C238.202 649.543 237.426 649.759 236.731 650.192C236.04 650.625 235.489 651.263 235.079 652.106C234.674 652.949 234.471 653.983 234.471 655.209C234.471 656.434 234.674 657.468 235.079 658.311C235.489 659.154 236.04 659.792 236.731 660.225C237.426 660.658 238.202 660.874 239.059 660.874C239.529 660.874 239.98 660.81 240.413 660.681C240.846 660.552 241.24 660.361 241.595 660.107C241.954 659.849 242.258 659.534 242.507 659.161C242.76 658.783 242.938 658.35 243.039 657.862H244.753C244.624 658.585 244.389 659.232 244.048 659.803C243.707 660.375 243.283 660.861 242.777 661.261C242.27 661.657 241.701 661.959 241.07 662.166C240.443 662.374 239.773 662.477 239.059 662.477C237.852 662.477 236.779 662.183 235.839 661.593C234.9 661.003 234.16 660.165 233.621 659.078C233.082 657.991 232.813 656.701 232.813 655.209C232.813 653.716 233.082 652.426 233.621 651.339C234.16 650.252 234.9 649.414 235.839 648.824C236.779 648.234 237.852 647.94 239.059 647.94C239.773 647.94 240.443 648.043 241.07 648.251C241.701 648.458 242.27 648.762 242.777 649.163C243.283 649.559 243.707 650.042 244.048 650.614C244.389 651.18 244.624 651.827 244.753 652.555ZM251.612 662.505C250.654 662.505 249.813 662.277 249.09 661.821C248.372 661.365 247.81 660.727 247.404 659.907C247.004 659.087 246.803 658.129 246.803 657.033C246.803 655.927 247.004 654.962 247.404 654.138C247.81 653.313 248.372 652.673 249.09 652.217C249.813 651.761 250.654 651.533 251.612 651.533C252.57 651.533 253.409 651.761 254.127 652.217C254.851 652.673 255.412 653.313 255.813 654.138C256.219 654.962 256.421 655.927 256.421 657.033C256.421 658.129 256.219 659.087 255.813 659.907C255.412 660.727 254.851 661.365 254.127 661.821C253.409 662.277 252.57 662.505 251.612 662.505ZM251.612 661.04C252.34 661.04 252.939 660.854 253.409 660.481C253.879 660.107 254.226 659.617 254.452 659.009C254.678 658.401 254.791 657.742 254.791 657.033C254.791 656.323 254.678 655.662 254.452 655.05C254.226 654.437 253.879 653.942 253.409 653.564C252.939 653.186 252.34 652.997 251.612 652.997C250.884 652.997 250.286 653.186 249.816 653.564C249.346 653.942 248.998 654.437 248.772 655.05C248.547 655.662 248.434 656.323 248.434 657.033C248.434 657.742 248.547 658.401 248.772 659.009C248.998 659.617 249.346 660.107 249.816 660.481C250.286 660.854 250.884 661.04 251.612 661.04ZM260.541 648.133V662.284H258.91V648.133H260.541ZM267.839 662.505C266.881 662.505 266.041 662.277 265.317 661.821C264.599 661.365 264.037 660.727 263.631 659.907C263.231 659.087 263.03 658.129 263.03 657.033C263.03 655.927 263.231 654.962 263.631 654.138C264.037 653.313 264.599 652.673 265.317 652.217C266.041 651.761 266.881 651.533 267.839 651.533C268.798 651.533 269.636 651.761 270.354 652.217C271.078 652.673 271.64 653.313 272.04 654.138C272.446 654.962 272.648 655.927 272.648 657.033C272.648 658.129 272.446 659.087 272.04 659.907C271.64 660.727 271.078 661.365 270.354 661.821C269.636 662.277 268.798 662.505 267.839 662.505ZM267.839 661.04C268.567 661.04 269.166 660.854 269.636 660.481C270.106 660.107 270.454 659.617 270.679 659.009C270.905 658.401 271.018 657.742 271.018 657.033C271.018 656.323 270.905 655.662 270.679 655.05C270.454 654.437 270.106 653.942 269.636 653.564C269.166 653.186 268.567 652.997 267.839 652.997C267.112 652.997 266.513 653.186 266.043 653.564C265.573 653.942 265.225 654.437 265 655.05C264.774 655.662 264.661 656.323 264.661 657.033C264.661 657.742 264.774 658.401 265 659.009C265.225 659.617 265.573 660.107 266.043 660.481C266.513 660.854 267.112 661.04 267.839 661.04ZM275.138 662.284V651.671H276.713V653.274H276.824C277.017 652.749 277.367 652.323 277.874 651.996C278.381 651.668 278.952 651.505 279.587 651.505C279.707 651.505 279.857 651.507 280.037 651.512C280.216 651.516 280.352 651.523 280.444 651.533V653.191C280.389 653.177 280.262 653.156 280.064 653.129C279.871 653.096 279.666 653.08 279.449 653.08C278.933 653.08 278.473 653.189 278.067 653.405C277.667 653.617 277.349 653.912 277.114 654.29C276.883 654.663 276.768 655.089 276.768 655.568V662.284H275.138ZM289.895 654.048L288.43 654.462C288.338 654.218 288.202 653.981 288.022 653.751C287.847 653.516 287.608 653.322 287.304 653.17C287 653.018 286.61 652.942 286.136 652.942C285.486 652.942 284.945 653.092 284.512 653.391C284.084 653.686 283.87 654.062 283.87 654.518C283.87 654.923 284.017 655.243 284.312 655.478C284.607 655.713 285.067 655.909 285.694 656.065L287.269 656.452C288.218 656.683 288.925 657.035 289.39 657.509C289.856 657.979 290.088 658.585 290.088 659.327C290.088 659.935 289.913 660.478 289.563 660.957C289.218 661.436 288.734 661.814 288.112 662.09C287.49 662.367 286.767 662.505 285.943 662.505C284.86 662.505 283.964 662.27 283.255 661.8C282.545 661.33 282.096 660.644 281.907 659.741L283.455 659.354C283.602 659.925 283.881 660.354 284.291 660.639C284.706 660.925 285.247 661.068 285.915 661.068C286.675 661.068 287.278 660.907 287.725 660.584C288.177 660.257 288.402 659.866 288.402 659.41C288.402 659.041 288.273 658.732 288.015 658.484C287.757 658.23 287.361 658.041 286.827 657.917L285.058 657.502C284.086 657.272 283.372 656.915 282.916 656.432C282.465 655.943 282.239 655.333 282.239 654.6C282.239 654.002 282.407 653.472 282.743 653.011C283.084 652.551 283.547 652.189 284.132 651.926C284.722 651.664 285.39 651.533 286.136 651.533C287.186 651.533 288.011 651.763 288.61 652.224C289.213 652.684 289.641 653.292 289.895 654.048Z" fill="#333333"/>
<line x1="515.216" y1="61.6152" x2="515.216" y2="668.038" stroke="#C9CCDC" stroke-width="2.43218"/>
<line x1="251.528" y1="515.379" x2="776.705" y2="212.168" stroke="#C9CCDC" stroke-width="2.43218"/>
<line x1="252.744" y1="212.168" x2="777.921" y2="515.379" stroke="#C9CCDC" stroke-width="2.43218"/>
<circle cx="514" cy="364.827" r="243.218" stroke="#C9CCDC" stroke-width="2.43218"/>
<circle cx="514" cy="364.826" r="60.8044" stroke="#C9CCDC" stroke-width="2.43218"/>
<circle cx="514" cy="364.827" r="121.609" stroke="#C9CCDC" stroke-width="2.43218"/>
<circle cx="514" cy="364.827" r="182.413" stroke="#C9CCDC" stroke-width="2.43218"/>
<circle cx="514" cy="364.827" r="304.022" stroke="#C9CCDC" stroke-width="2"/>
</svg>
