<svg width="400" height="336" viewBox="0 0 400 336" fill="none" xmlns="http://www.w3.org/2000/svg">
<path fill-rule="evenodd" clip-rule="evenodd" d="M198.164 15.0383C226.743 1.4693 260.023 -4.8597 290.299 4.3193C327.179 15.5013 353.593 47.1103 377.525 77.3173C394.468 98.7033 411.589 120.692 420.598 146.446C429.608 172.2 429.226 202.827 412.864 224.661C400.831 240.718 382.084 249.964 365.371 261.068C336.594 280.187 312.295 306.155 281.228 321.272C251.725 335.63 217.086 339.13 185.307 330.966C156.053 323.451 130.174 306.768 103.651 292.32C79.3874 279.103 53.7574 267.286 33.9144 248.059C14.2744 229.029 1.26442 202.786 0.0844179 175.464C-1.09658 148.143 10.1554 120.117 31.2344 102.693C40.7464 94.8303 51.9824 88.6413 63.6194 84.5413C74.6134 80.6663 169.562 28.6193 198.164 15.0383Z" fill="#F6F6F6"/>
<path fill-rule="evenodd" clip-rule="evenodd" d="M47.7684 90.2182C48.6994 89.9052 53.8064 83.3382 55.8374 81.0392C56.4084 80.3922 56.9854 79.7202 57.2844 78.9102C57.5834 78.1012 57.5534 77.1142 56.9874 76.4612C56.2874 75.6512 55.2974 74.9232 53.4554 75.4412C50.2494 76.3432 49.4304 77.7082 48.3204 79.7572C44.6514 86.5312 47.7684 90.2182 47.7684 90.2182Z" fill="#494D8F"/>
<path fill-rule="evenodd" clip-rule="evenodd" d="M82.0044 101.394C85.1594 101.872 88.5054 102.291 91.4454 101.05C92.5854 100.569 93.7255 99.6713 93.8055 98.4363C93.8735 97.3813 93.1015 96.4083 92.1505 95.9453C91.1995 95.4833 90.1034 95.4363 89.0464 95.4713C85.0594 95.6023 79.9624 97.5693 76.5594 99.6503C76.5594 99.6503 80.1214 101.11 82.0044 101.394Z" fill="#494D8F"/>
<path fill-rule="evenodd" clip-rule="evenodd" d="M88.9084 54.8332C87.4374 54.3932 85.7604 53.7222 85.3494 52.2432C84.9364 50.7592 86.1674 49.1972 87.6484 48.7762C89.1294 48.3542 90.7324 48.7792 92.1194 49.4462C97.9924 52.2702 98.7224 57.1572 98.7224 57.1572C98.7224 57.1572 90.5464 55.3242 88.9084 54.8332Z" fill="#494D8F"/>
<path fill-rule="evenodd" clip-rule="evenodd" d="M89.1014 41.1633C87.8724 40.9983 86.5814 40.7453 85.6564 39.9193C85.2064 39.5173 84.8554 38.9473 84.8954 38.3443C84.9634 37.3363 85.3074 36.3513 87.7374 36.1253C95.4304 35.4103 98.4254 39.9793 98.4254 39.9793C98.4254 39.9793 91.2784 41.4563 89.1014 41.1633Z" fill="#494D8F"/>
<path fill-rule="evenodd" clip-rule="evenodd" d="M113.65 46.2663C116.516 45.1933 119.14 42.8833 120.351 40.0723C120.808 39.0113 121.181 37.8773 121.111 36.7243C121.04 35.5713 120.443 34.3923 119.398 33.9013C118.122 33.3023 116.53 33.8993 115.607 34.9633C114.682 36.0273 114.296 37.4493 114.048 38.8363C113.717 40.6853 113.65 46.2663 113.65 46.2663Z" fill="#494D8F"/>
<path fill-rule="evenodd" clip-rule="evenodd" d="M91.3225 167.549C82.4605 163.265 73.5995 158.981 64.7375 154.698C60.0135 152.417 55.2435 150.075 51.6855 146.383C47.2155 141.75 45.1795 135.381 45.1785 128.846C45.1785 124.209 46.2065 119.496 48.1045 115.296C52.6845 105.153 61.4415 97.4333 70.6665 91.0132C79.8915 84.5892 89.8825 79.0913 98.3925 71.5802C101.024 69.2563 103.574 66.5692 105.476 63.5652C107.378 60.5622 108.634 57.2312 108.634 53.6482C108.634 53.5322 108.632 53.4162 108.63 53.2992C108.527 48.8912 106.383 44.5962 102.923 41.8652C100.275 39.7782 96.9195 38.6562 93.5595 38.6562C92.5245 38.6562 91.4875 38.7633 90.4725 38.9823C90.2025 39.0413 90.0305 39.3072 90.0895 39.5772C90.1475 39.8472 90.4135 40.0182 90.6835 39.9602C91.6275 39.7562 92.5925 39.6562 93.5595 39.6562C96.6965 39.6553 99.8445 40.7102 102.303 42.6502C105.523 45.1862 107.539 49.2242 107.63 53.3222C107.633 53.4312 107.634 53.5392 107.634 53.6482C107.634 56.9932 106.462 60.1382 104.631 63.0302C102.802 65.9212 100.316 68.5492 97.7305 70.8312C89.3345 78.2463 79.3805 83.7313 70.0955 90.1922C60.8115 96.6572 51.8995 104.475 47.1935 114.884C45.2365 119.217 44.1795 124.061 44.1785 128.846C44.1785 135.583 46.2795 142.217 50.9655 147.077C54.6915 150.937 59.5795 153.313 64.3025 155.598C73.1635 159.882 82.0255 164.165 90.8875 168.449C91.1355 168.569 91.4345 168.465 91.5545 168.217C91.6745 167.968 91.5705 167.669 91.3225 167.549Z" fill="#1E3F86"/>
<path fill-rule="evenodd" clip-rule="evenodd" d="M116.215 38.0414C116.089 41.1294 114.441 44.1264 112.521 47.1274C110.609 50.1294 108.44 53.1184 107.395 56.2914C107.309 56.5534 107.452 56.8364 107.714 56.9224C107.977 57.0084 108.259 56.8654 108.345 56.6034C109.312 53.6434 111.427 50.6944 113.364 47.6654C115.295 44.6334 117.063 41.5044 117.214 38.0834C117.226 37.8074 117.012 37.5744 116.736 37.5624C116.46 37.5514 116.227 37.7654 116.215 38.0414Z" fill="#1E3F86"/>
<path fill-rule="evenodd" clip-rule="evenodd" d="M91.1984 52.9402C93.1834 54.1262 95.3114 54.9252 97.0134 56.2392C99.3594 58.0372 100.956 61.0912 100.953 64.2512C100.952 65.9142 100.517 67.6072 99.5234 69.1902C99.3764 69.4242 99.4464 69.7332 99.6804 69.8802C99.9144 70.0272 100.222 69.9562 100.369 69.7232C101.467 67.9772 101.953 66.0892 101.953 64.2512C101.949 60.7562 100.218 57.4442 97.6224 55.4462C95.7564 54.0172 93.5874 53.2122 91.7134 52.0822C91.4764 51.9402 91.1694 52.0172 91.0274 52.2542C90.8854 52.4912 90.9624 52.7982 91.1984 52.9402Z" fill="#1E3F86"/>
<path fill-rule="evenodd" clip-rule="evenodd" d="M62.2984 97.0694C67.3054 99.0944 72.9484 100.195 78.5124 100.195C81.5274 100.195 84.5194 99.8714 87.3734 99.1934C87.6414 99.1294 87.8074 98.8594 87.7434 98.5914C87.6804 98.3224 87.4104 98.1564 87.1414 98.2204C84.3714 98.8794 81.4564 99.1954 78.5124 99.1954C73.0814 99.1964 67.5544 98.1173 62.6734 96.1423C62.4174 96.0393 62.1264 96.1624 62.0224 96.4184C61.9184 96.6744 62.0424 96.9664 62.2984 97.0694Z" fill="#1E3F86"/>
<path fill-rule="evenodd" clip-rule="evenodd" d="M50.9934 109.14C48.5434 105.554 47.3214 101.205 47.3224 96.8482C47.3214 92.0722 48.7904 87.2952 51.6844 83.5142C51.8524 83.2942 51.8104 82.9812 51.5914 82.8132C51.3724 82.6452 51.0584 82.6872 50.8904 82.9062C47.8484 86.8822 46.3224 91.8692 46.3224 96.8482C46.3224 101.39 47.5924 105.933 50.1674 109.704C50.3234 109.932 50.6344 109.991 50.8624 109.835C51.0904 109.679 51.1494 109.368 50.9934 109.14Z" fill="#1E3F86"/>
<path fill-rule="evenodd" clip-rule="evenodd" d="M214.276 336.104C192.49 336.104 170.695 331.079 151.223 321.293C140.879 316.094 131.307 309.686 122.147 302.645C142.424 314.048 162.874 325.203 185.307 330.966C196.567 333.858 208.185 335.287 219.807 335.287C225.619 335.287 231.429 334.93 237.199 334.22C229.628 335.48 221.952 336.104 214.276 336.104ZM296.946 312.453C297.253 312.259 297.559 312.064 297.864 311.869C297.942 311.873 298.02 311.878 298.098 311.882C297.713 312.073 297.331 312.263 296.946 312.453ZM309.484 306.191C309.466 305.441 309.448 304.692 309.43 303.942C319.004 296.985 328.205 289.419 337.489 281.96L345.94 281.943C346.783 284.247 347.624 286.552 348.455 288.859C346.299 289.645 344.155 290.445 342.031 291.274C330.935 295.606 320.183 300.848 309.484 306.191ZM362.456 283.811C362.372 283.177 362.289 282.543 362.208 281.909L367.485 281.898C367.487 281.898 367.489 281.898 367.491 281.898C365.823 282.552 364.142 283.187 362.456 283.811ZM373.42 279.461C373.341 279.371 373.264 279.28 373.187 279.189C374.093 278.082 374.685 276.707 374.824 275.201C378.559 274.834 381.479 271.686 381.479 267.857V267.838L381.445 250.889C390.155 245.401 398.683 239.687 405.874 232.612C407.357 232.853 408.834 233.125 410.304 233.428C412.315 233.842 414.336 234.314 416.363 234.692C414.041 241.627 410.844 248.188 406.705 254.093C404.803 255.012 403.1 256.386 401.724 257.969C400.047 259.9 398.794 262.113 397.732 264.405C397.224 264.876 396.705 265.341 396.178 265.797C389.411 271.654 381.627 275.903 373.42 279.461ZM399.964 262.233C400.694 260.947 401.517 259.731 402.479 258.625C403.285 257.696 404.208 256.849 405.214 256.137C403.596 258.269 401.848 260.305 399.964 262.233ZM2.04047 152.211C1.63147 144.784 2.02447 137.321 3.29447 129.967C7.94947 103.018 24.9035 78.0263 49.2035 65.4823C60.1705 59.8213 72.4655 56.1633 84.7085 54.6303C85.3015 54.5563 86.1365 54.4053 87.1925 54.1843C87.7385 54.4573 88.3385 54.6623 88.9085 54.8333C90.2155 55.2253 95.6905 56.4723 97.8455 56.9593C98.3195 57.4203 98.7525 57.9363 99.1335 58.4933L67.9395 58.5583C64.0975 58.5673 60.9465 61.5123 60.6005 65.2543C56.8555 65.6183 53.9315 68.7803 53.9395 72.6203L53.9455 75.3283C53.7895 75.3563 53.6265 75.3933 53.4555 75.4413C50.2495 76.3433 49.4305 77.7083 48.3205 79.7573C45.4715 85.0163 46.7135 88.4153 47.4115 89.6723C47.1595 90.4753 46.9515 91.2933 46.7865 92.1193C41.2775 95.1823 36.0355 98.7243 31.2345 102.693C16.1585 115.155 6.10947 133.039 2.04047 152.211ZM47.9495 91.4823C48.0955 90.8723 48.2655 90.2693 48.4615 89.6753C49.7025 88.4703 52.0825 85.5403 53.9615 83.2643L53.9725 88.4653C51.9365 89.4083 49.9275 90.4143 47.9495 91.4823ZM100.321 58.4913C99.8005 57.6273 99.1695 56.8393 98.4535 56.1583C98.1175 55.1833 97.3935 53.6293 95.8945 52.1043C99.0755 51.2943 102.778 50.3183 106.896 49.2123C107.345 50.5373 107.599 51.9263 107.63 53.3223C107.633 53.4313 107.634 53.5393 107.634 53.6483C107.634 54.5543 107.548 55.4463 107.386 56.3223C107.38 56.3453 107.376 56.3673 107.374 56.3893C107.24 57.0953 107.057 57.7923 106.83 58.4773L100.321 58.4913ZM107.88 58.4753C108.075 57.8483 108.236 57.2113 108.358 56.5643C109.331 53.6173 111.435 50.6813 113.364 47.6653C113.416 47.5833 113.469 47.5013 113.52 47.4193C126.971 43.7523 143.558 39.1003 160.228 34.4353C145.748 42.0423 129.658 50.5943 114.783 58.4613L107.88 58.4753ZM108.632 53.4213C108.632 53.3803 108.631 53.3403 108.63 53.2993C108.595 51.8193 108.331 50.3523 107.863 48.9523C109.229 48.5843 110.635 48.2043 112.082 47.8103C110.881 49.6643 109.623 51.5193 108.632 53.4213Z" fill="#FBFCFD"/>
<path fill-rule="evenodd" clip-rule="evenodd" d="M48.4615 89.6754C49.1895 87.4604 50.2665 85.3674 51.6845 83.5144C51.8525 83.2944 51.8105 82.9814 51.5915 82.8134C51.5015 82.7434 51.3945 82.7104 51.2885 82.7104C51.1375 82.7104 50.9895 82.7774 50.8905 82.9064C49.3335 84.9424 48.1735 87.2434 47.4115 89.6724C46.7135 88.4154 45.4715 85.0164 48.3205 79.7574C49.4305 77.7084 50.2495 76.3434 53.4555 75.4414C53.6265 75.3934 53.7895 75.3564 53.9455 75.3284L53.9615 83.2644C52.0825 85.5404 49.7025 88.4704 48.4615 89.6754Z" fill="#64649E"/>
<path fill-rule="evenodd" clip-rule="evenodd" d="M97.8454 56.9592C95.6904 56.4722 90.2154 55.2252 88.9084 54.8332C88.3384 54.6622 87.7384 54.4572 87.1924 54.1842C88.3884 53.9342 89.8714 53.5932 91.6014 53.1742C93.4674 54.2362 95.4254 55.0143 97.0134 56.2393C97.3024 56.4603 97.5804 56.7012 97.8454 56.9592ZM98.4534 56.1582C98.1874 55.9052 97.9104 55.6672 97.6224 55.4462C96.1854 54.3452 94.5674 53.6152 93.0444 52.8212C93.9394 52.5992 94.8904 52.3602 95.8944 52.1042C97.3934 53.6292 98.1174 55.1832 98.4534 56.1582Z" fill="#64649E"/>
<path fill-rule="evenodd" clip-rule="evenodd" d="M54.0985 149.822C52.9915 148.992 51.9385 148.085 50.9655 147.077C46.2795 142.217 44.1785 135.583 44.1785 128.846C44.1795 124.061 45.2365 119.217 47.1935 114.884C48.0295 113.035 48.9995 111.266 50.0795 109.574C50.1085 109.617 50.1385 109.661 50.1675 109.704C50.2645 109.846 50.4215 109.922 50.5815 109.922C50.6785 109.922 50.7765 109.894 50.8625 109.835C51.0905 109.679 51.1495 109.368 50.9935 109.14C50.8855 108.982 50.7795 108.823 50.6765 108.662C51.7015 107.137 52.8165 105.674 54.0045 104.267L54.0085 105.834C51.6615 108.742 49.6465 111.882 48.1045 115.296C46.2065 119.496 45.1785 124.209 45.1785 128.846C45.1795 135.381 47.2155 141.75 51.6855 146.383C52.4385 147.165 53.2465 147.886 54.0965 148.559L54.0985 149.822ZM106.83 58.4774C107.057 57.7924 107.24 57.0954 107.374 56.3894C107.346 56.6204 107.485 56.8464 107.714 56.9224C107.766 56.9394 107.819 56.9474 107.87 56.9474C108.081 56.9474 108.276 56.8134 108.345 56.6034C108.35 56.5904 108.354 56.5774 108.358 56.5644C108.236 57.2114 108.075 57.8484 107.88 58.4754L106.83 58.4774ZM107.386 56.3224C107.548 55.4464 107.634 54.5544 107.634 53.6484C107.634 53.5394 107.633 53.4314 107.63 53.3224C107.599 51.9264 107.345 50.5374 106.896 49.2124C107.213 49.1274 107.541 49.0394 107.863 48.9524C108.331 50.3524 108.595 51.8194 108.63 53.2994C108.631 53.3404 108.632 53.3804 108.632 53.4214C108.141 54.3644 107.715 55.3194 107.395 56.2914C107.392 56.3014 107.389 56.3124 107.386 56.3224Z" fill="#3F609D"/>
<path fill-rule="evenodd" clip-rule="evenodd" d="M107.87 56.9472C107.819 56.9472 107.766 56.9392 107.714 56.9222C107.485 56.8462 107.346 56.6202 107.374 56.3892C107.376 56.3672 107.38 56.3452 107.386 56.3222C107.389 56.3122 107.392 56.3012 107.395 56.2912C107.715 55.3192 108.141 54.3642 108.632 53.4212C109.623 51.5192 110.881 49.6642 112.082 47.8102C112.558 47.6812 113.036 47.5512 113.52 47.4192C113.469 47.5012 113.416 47.5832 113.364 47.6652C111.435 50.6812 109.331 53.6172 108.358 56.5642C108.354 56.5772 108.35 56.5902 108.345 56.6032C108.276 56.8132 108.081 56.9472 107.87 56.9472Z" fill="#3F609D"/>
<path fill-rule="evenodd" clip-rule="evenodd" d="M99.1334 58.4933C98.7524 57.9363 98.3194 57.4203 97.8454 56.9593C97.5804 56.7013 97.3024 56.4603 97.0134 56.2393C95.4254 55.0143 93.4674 54.2363 91.6014 53.1743C92.0644 53.0623 92.5454 52.9443 93.0444 52.8213C94.5674 53.6153 96.1854 54.3453 97.6224 55.4463C97.9104 55.6673 98.1874 55.9053 98.4534 56.1583C99.1694 56.8393 99.8004 57.6273 100.321 58.4913L99.1334 58.4933Z" fill="#3F609D"/>
<path fill-rule="evenodd" clip-rule="evenodd" d="M50.5814 109.922C50.4214 109.922 50.2644 109.846 50.1674 109.704C50.1384 109.661 50.1084 109.617 50.0794 109.574C47.5634 105.829 46.3224 101.338 46.3224 96.8482C46.3224 95.2622 46.4774 93.6742 46.7864 92.1192C46.9514 91.2932 47.1594 90.4752 47.4114 89.6722C48.1734 87.2432 49.3334 84.9422 50.8904 82.9062C50.9894 82.7772 51.1374 82.7102 51.2884 82.7102C51.3944 82.7102 51.5014 82.7432 51.5914 82.8132C51.8104 82.9812 51.8524 83.2942 51.6844 83.5142C50.2664 85.3672 49.1894 87.4602 48.4614 89.6752C48.2654 90.2692 48.0954 90.8722 47.9494 91.4822C47.5314 93.2352 47.3214 95.0422 47.3224 96.8482C47.3214 101.013 48.4374 105.17 50.6764 108.662C50.7794 108.823 50.8854 108.982 50.9934 109.14C51.1494 109.368 51.0904 109.679 50.8624 109.835C50.7764 109.894 50.6784 109.922 50.5814 109.922Z" fill="#3F609D"/>
<path fill-rule="evenodd" clip-rule="evenodd" d="M225.899 58.2324C229.052 52.4084 234.695 48.1024 241.369 46.7794C242.878 46.4794 244.369 46.3374 245.831 46.3374C254.305 46.3374 261.76 51.1424 265.593 58.1504L225.899 58.2324Z" fill="#E2EFF4"/>
<path fill-rule="evenodd" clip-rule="evenodd" d="M57.1645 202.174C51.6775 197.324 46.1245 192.399 42.0685 186.302C38.5375 180.99 36.2575 174.958 33.1755 169.373C31.1815 165.759 28.8275 162.277 27.6725 158.313C26.5175 154.35 26.7945 149.658 29.6105 146.639C32.5475 143.491 37.5995 143.008 41.5875 144.631C45.5755 146.253 48.6245 149.606 50.9525 153.227C54.0445 158.037 56.1095 163.503 56.9705 169.156C57.7515 174.278 57.5515 179.512 58.3475 184.632C59.0885 189.402 60.6925 193.982 62.7135 198.352C64.5465 202.316 69.1905 209.384 70.3745 213.447C67.0925 215.09 59.5045 204.242 57.1645 202.174Z" fill="#13A391"/>
<path fill-rule="evenodd" clip-rule="evenodd" d="M54.1884 193.581C52.6554 190.814 51.1724 187.982 49.7934 185.246C46.8064 179.295 47.1004 172.355 45.8674 166.073C45.3284 163.302 44.5444 160.389 43.2714 157.917C41.9954 155.44 40.2494 153.42 37.7754 152.337C37.5224 152.226 37.4074 151.931 37.5174 151.678C37.5994 151.491 37.7834 151.379 37.9764 151.379C38.0424 151.379 38.1104 151.392 38.1764 151.421C40.9204 152.622 42.8214 154.855 44.1604 157.459C45.5014 160.067 46.2984 163.062 46.8484 165.882C48.0924 172.326 47.8374 179.168 50.6864 184.795C51.7944 186.995 52.9704 189.256 54.1844 191.493L54.1884 193.581Z" fill="#146C5A"/>
<path fill-rule="evenodd" clip-rule="evenodd" d="M30.1554 187.254C25.6004 185.455 19.5194 184.717 16.5984 188.647C14.1544 191.937 15.4204 196.602 17.1084 200.338C18.5344 203.492 20.3454 206.698 23.3524 208.413C25.4054 209.584 27.8124 209.935 30.1604 210.215C36.7084 210.994 43.3034 211.376 49.8984 211.357C57.5414 211.335 66.7994 214.457 73.1234 219.223C65.0084 204.138 45.4834 193.307 30.1554 187.254Z" fill="#3A5796"/>
<path fill-rule="evenodd" clip-rule="evenodd" d="M22.1435 197.559C27.9325 197.805 33.7405 198.213 39.2335 199.839C42.0105 200.658 48.9175 203.591 55.5055 206.837C58.8015 208.461 62.0275 210.165 64.6315 211.724C65.9335 212.503 67.0795 213.246 67.9985 213.919C68.9165 214.591 69.6075 215.201 69.9845 215.675C70.1565 215.89 70.4715 215.925 70.6875 215.753C70.9025 215.58 70.9375 215.265 70.7655 215.05C70.2865 214.454 69.5455 213.815 68.5895 213.113C65.2515 210.667 59.2605 207.498 53.4565 204.735C47.6505 201.973 42.0695 199.636 39.5175 198.88C33.8825 197.214 27.9925 196.808 22.1855 196.56C21.9105 196.548 21.6765 196.762 21.665 197.038C21.6535 197.314 21.8675 197.547 22.1435 197.559Z" fill="#1E3F86"/>
<path fill-rule="evenodd" clip-rule="evenodd" d="M372.781 218.904C378.248 209.904 375.456 198.328 377.359 187.971C378.822 180.009 383.252 172.627 389.59 167.592C393.568 164.432 399.156 162.174 403.653 164.544C407.505 166.574 407.993 160.713 408.114 158.29C408.457 151.421 407.362 145.206 413.398 140.47C418.302 136.622 426.317 133.972 432.605 134.592C434.466 134.775 436.329 135.497 437.591 136.876C439.551 139.017 439.696 142.353 438.708 145.083C435.861 152.945 427.572 158.384 423.159 165.362C421.142 168.551 419.389 172.401 420.526 176.227C421.109 178.187 423.103 179.616 423.303 181.577C423.613 184.604 420.227 187.279 417.839 188.422C414.794 189.881 411.487 190.796 408.124 191.111C401.655 191.717 399.7 194.195 400.995 200.729C401.965 205.625 400.757 208.78 397.203 212.199C393.617 215.647 389.692 218.743 385.504 221.426C382.107 223.601 378.513 225.523 375.503 228.208C372.492 230.892 370.059 234.521 369.862 238.55C367.917 235.527 367.315 231.485 367.764 227.919C368.213 224.352 370.915 221.976 372.781 218.904Z" fill="#62BDA8"/>
<path fill-rule="evenodd" clip-rule="evenodd" d="M370.804 233.449C371.331 230.864 371.667 228.71 372.862 226.38C374.067 224.025 375.587 221.812 376.98 219.492C380.821 213.089 382.999 205.81 385.02 198.755C386.874 192.265 391.744 185.477 396.366 180.518C399.915 176.701 404.304 173.643 408.013 169.788C410.656 167.038 412.908 163.914 414.677 160.535C415.634 158.702 416.446 156.835 417.669 155.314C419.116 153.504 421.164 152.167 423.011 150.517C425.504 148.285 427.51 145.517 428.858 142.454C428.969 142.201 428.854 141.906 428.601 141.795C428.349 141.684 428.054 141.799 427.942 142.052C426.653 144.983 424.73 147.636 422.344 149.773C420.58 151.358 418.477 152.716 416.889 154.688C415.556 156.353 414.728 158.286 413.791 160.071C412.066 163.366 409.869 166.414 407.292 169.095C403.678 172.859 399.285 175.92 395.634 179.837C390.947 184.876 385.996 191.733 384.059 198.479C382.042 205.528 379.878 212.721 376.123 218.977C374.752 221.262 373.217 223.493 371.972 225.924C370.695 228.418 370.346 230.702 369.824 233.248C369.769 233.519 369.943 233.783 370.214 233.838C370.485 233.894 370.749 233.719 370.804 233.449Z" fill="#13A391"/>
<path fill-rule="evenodd" clip-rule="evenodd" d="M394.728 214.476C395.57 213.735 396.395 212.976 397.203 212.199C398.33 211.115 399.222 210.057 399.882 208.962C404.589 207.802 409.436 207.203 414.281 207.203C415.828 207.203 417.373 207.264 418.916 207.388C419.643 207.446 420.374 207.518 421.103 207.61C421.074 208.477 421.034 209.341 420.983 210.208C420.804 210.649 420.619 211.091 420.431 211.529C419.926 211.474 419.42 211.427 418.916 211.387C417.377 211.264 415.834 211.203 414.29 211.203C407.652 211.203 401.01 212.327 394.728 214.476Z" fill="#C0D2E1"/>
<path fill-rule="evenodd" clip-rule="evenodd" d="M381.385 220.803L381.377 216.807C384.692 214.839 387.818 213.29 389.566 212.508C392.886 211.02 396.345 209.833 399.882 208.962C399.222 210.057 398.33 211.115 397.203 212.199C396.395 212.976 395.57 213.735 394.728 214.476C392.978 215.074 391.256 215.752 389.57 216.508C387.824 217.29 384.699 218.837 381.385 220.803Z" fill="#49B4A1"/>
<path fill-rule="evenodd" clip-rule="evenodd" d="M418.916 211.387C423.293 211.735 427.783 212.595 431.398 215.086C435.014 217.578 437.557 222.027 436.714 226.336C435.732 231.356 430.542 234.621 425.464 235.239C420.387 235.856 415.314 234.459 410.304 233.428C399.219 231.145 387.773 230.622 376.526 231.884C373.72 232.198 371.058 232.755 368.602 234.189C367.813 227.496 384.501 218.779 389.57 216.508C398.718 212.409 408.917 210.589 418.916 211.387Z" fill="#768CBA"/>
<path fill-rule="evenodd" clip-rule="evenodd" d="M373.274 230.346C376.788 227.252 382.828 224.526 389.747 222.604C396.667 220.678 404.47 219.54 411.536 219.541C413.592 219.541 415.586 219.637 417.476 219.837C421.946 220.309 426.418 221.644 429.789 224.49C430 224.668 430.315 224.642 430.493 224.431C430.671 224.22 430.644 223.904 430.433 223.726C426.841 220.698 422.172 219.329 417.582 218.843C415.651 218.638 413.623 218.541 411.536 218.541C404.364 218.541 396.488 219.69 389.479 221.64C382.469 223.594 376.332 226.333 372.614 229.595C372.407 229.777 372.386 230.093 372.568 230.301C372.751 230.508 373.067 230.528 373.274 230.346Z" fill="#1E3F86"/>
<path fill-rule="evenodd" clip-rule="evenodd" d="M404.371 248.395C401.396 245.21 399.355 252.432 400.655 255.697C400.655 255.697 406.93 251.138 404.371 248.395Z" fill="#494D8F"/>
<path fill-rule="evenodd" clip-rule="evenodd" d="M392.045 285.67C392.666 285.68 393.341 285.945 393.594 286.513C393.754 286.871 393.716 287.294 393.567 287.657C393.419 288.019 393.168 288.331 392.902 288.62C392.333 289.239 391.569 289.616 390.736 289.731C388.632 290.023 386.579 288.693 386.579 288.693C386.579 288.693 390.497 285.644 392.045 285.67Z" fill="#494D8F"/>
<path fill-rule="evenodd" clip-rule="evenodd" d="M388.286 274.599C389.803 273.697 390.758 271.873 390.584 270.117C390.54 269.671 390.419 269.222 390.154 268.859C389.557 268.043 388.354 267.87 387.401 268.206C386.448 268.543 385.696 269.278 385.014 270.024C383.778 271.378 382.833 273.794 381.853 275.343C381.853 275.343 385.209 276.426 388.286 274.599Z" fill="#494D8F"/>
<path fill-rule="evenodd" clip-rule="evenodd" d="M411.918 252.887L411.734 252.885C407.829 252.89 404.233 255.083 401.724 257.969C399.182 260.896 397.613 264.473 396.21 267.991C394.811 271.51 393.524 275.064 391.499 278.158C390.517 279.659 389.295 281.073 387.891 282.152C386.487 283.232 384.907 283.975 383.187 284.17C382.883 284.205 382.579 284.221 382.278 284.221C380.359 284.222 378.5 283.543 376.81 282.444C375.121 281.346 373.61 279.831 372.408 278.202C369.794 274.671 368.086 270.424 365.289 266.807C364 265.147 362.336 263.51 360.124 263.054C359.716 262.971 359.308 262.932 358.905 262.933C356.414 262.942 354.14 264.35 352.151 265.638C351.919 265.788 351.854 266.098 352.004 266.329C352.155 266.561 352.465 266.626 352.696 266.476C354.662 265.188 356.815 263.923 358.905 263.932C359.245 263.933 359.585 263.965 359.925 264.034C361.745 264.396 363.271 265.828 364.499 267.419C367.189 270.883 368.897 275.122 371.603 278.796C372.867 280.508 374.454 282.104 376.265 283.282C378.075 284.459 380.119 285.221 382.278 285.221C382.616 285.221 382.957 285.203 383.3 285.164C385.237 284.944 386.987 284.109 388.501 282.945C390.016 281.779 391.303 280.283 392.336 278.705C394.444 275.479 395.746 271.857 397.139 268.361C398.531 264.863 400.068 261.397 402.479 258.625C404.846 255.897 408.22 253.88 411.734 253.885L411.9 253.887C412.176 253.892 412.404 253.672 412.41 253.396C412.414 253.12 412.194 252.892 411.918 252.887Z" fill="#1E3F86"/>
<path fill-rule="evenodd" clip-rule="evenodd" d="M410.28 261.599C407.925 262.655 404.858 263.245 402.005 263.244C400.881 263.244 399.79 263.153 398.79 262.967C398.519 262.917 398.258 263.096 398.207 263.368C398.157 263.639 398.336 263.9 398.608 263.951C399.678 264.149 400.827 264.244 402.005 264.244C404.994 264.242 408.168 263.638 410.688 262.512C410.94 262.399 411.053 262.103 410.94 261.851C410.828 261.599 410.532 261.486 410.28 261.599Z" fill="#1E3F86"/>
<path fill-rule="evenodd" clip-rule="evenodd" d="M390.842 287.482C389.865 288.002 388.749 288.271 387.637 288.271C387.015 288.271 386.395 288.187 385.8 288.018C384.196 287.575 382.411 285.959 381.546 284.456C381.407 284.217 381.1 284.137 380.862 284.276C380.623 284.415 380.543 284.721 380.682 284.96C381.692 286.67 383.553 288.405 385.527 288.98C386.214 289.175 386.926 289.271 387.637 289.271C388.909 289.27 390.181 288.965 391.31 288.365C391.554 288.236 391.647 287.933 391.517 287.689C391.388 287.445 391.086 287.353 390.842 287.482Z" fill="#1E3F86"/>
<path fill-rule="evenodd" clip-rule="evenodd" d="M387.137 271.572C383.964 273.356 381.328 274.968 378.403 277.163C377.698 277.694 376.851 278.505 376.149 279.363C375.799 279.792 375.486 280.232 375.248 280.662C375.011 281.094 374.841 281.512 374.813 281.945C374.797 282.221 375.008 282.457 375.284 282.473C375.559 282.488 375.796 282.278 375.811 282.002C375.818 281.819 375.924 281.501 376.123 281.146C376.712 280.067 378.069 278.658 379.003 277.963C381.886 275.801 384.471 274.218 387.627 272.444C387.868 272.308 387.954 272.003 387.818 271.763C387.683 271.522 387.378 271.437 387.137 271.572Z" fill="#1E3F86"/>
<path fill-rule="evenodd" clip-rule="evenodd" d="M61.7435 282.529C57.6705 282.529 54.3654 279.233 54.3574 275.159L54.3354 264.413C56.5204 265.891 58.7394 267.326 60.9834 268.727C61.1144 272.693 64.3754 275.867 68.3694 275.867C68.3764 275.867 68.3825 275.867 68.3895 275.867L73.0675 275.857C77.0815 278.114 81.1424 280.309 85.2124 282.481L61.7575 282.529C61.7534 282.529 61.7485 282.529 61.7435 282.529Z" fill="#D9E1E5"/>
<path fill-rule="evenodd" clip-rule="evenodd" d="M85.2125 282.481C81.1425 280.309 77.0815 278.114 73.0675 275.857L90.6165 275.821C93.1025 278.032 95.5875 280.247 98.0795 282.454L85.2125 282.481ZM60.9835 268.727C58.7395 267.326 56.5205 265.891 54.3355 264.413L54.2935 244.492C56.4925 246.433 58.7115 248.354 60.9425 250.263L60.9795 268.498C60.9795 268.575 60.9815 268.651 60.9835 268.727Z" fill="#C0D2E1"/>
<path fill-rule="evenodd" clip-rule="evenodd" d="M98.0794 282.454C95.5874 280.247 93.1024 278.032 90.6164 275.821L155.689 275.685C155.828 276.227 155.979 276.765 156.141 277.296L156.142 277.299L150.383 280.623C149.766 280.979 149.48 281.688 149.632 282.348L98.0794 282.454ZM179.813 282.286C177.752 280.408 176.035 278.157 174.776 275.645L178.479 275.638L215.218 275.562C213.967 278.082 212.257 280.339 210.2 282.223L179.813 282.286ZM60.9424 250.263C58.7114 248.354 56.4924 246.433 54.2934 244.492L54.2734 234.535H60.9104L60.9424 250.263Z" fill="#C0D2E1"/>
<path fill-rule="evenodd" clip-rule="evenodd" d="M367.491 281.898C369.16 281.245 370.815 280.573 372.457 279.875C372.471 279.891 372.484 279.906 372.498 279.923C371.184 281.144 369.426 281.893 367.491 281.898Z" fill="#D9E1E5"/>
<path fill-rule="evenodd" clip-rule="evenodd" d="M240.375 282.161C240.439 281.558 240.151 280.945 239.592 280.623L233.835 277.299L233.836 277.296C234.014 276.712 234.179 276.12 234.329 275.523L298.59 275.392C298.428 277.607 298.298 279.823 298.199 282.041L240.375 282.161ZM299.035 282.01C299.674 279.787 300.332 277.568 301.035 275.359L343.264 275.3C343.521 275.781 343.778 276.262 344.035 276.744C340.837 278.47 337.652 280.213 334.475 281.96L299.035 282.01Z" fill="#C0D2E1"/>
<path fill-rule="evenodd" clip-rule="evenodd" d="M149.632 282.348C149.48 281.688 149.766 280.979 150.383 280.623L156.142 277.299L156.141 277.296C155.979 276.765 155.828 276.227 155.689 275.685L174.776 275.645C176.035 278.157 177.752 280.408 179.813 282.286L149.632 282.348ZM210.2 282.223C212.257 280.339 213.967 278.082 215.218 275.562L234.329 275.523C234.179 276.12 234.014 276.712 233.836 277.296L233.835 277.299L239.592 280.623C240.151 280.945 240.439 281.558 240.375 282.161L210.2 282.223Z" fill="#B4C9DB"/>
<path fill-rule="evenodd" clip-rule="evenodd" d="M373.187 279.189C372.915 278.867 372.655 278.537 372.408 278.202C371.71 277.259 371.076 276.265 370.469 275.245L374.109 275.237C374.35 275.237 374.589 275.224 374.824 275.201C374.685 276.707 374.093 278.082 373.187 279.189Z" fill="#D4DEE4"/>
<path fill-rule="evenodd" clip-rule="evenodd" d="M372.498 279.923C372.484 279.906 372.471 279.891 372.457 279.875C372.158 279.522 371.873 279.162 371.603 278.796C370.762 277.654 370.018 276.458 369.31 275.247L370.469 275.245C371.076 276.265 371.71 277.259 372.408 278.202C372.655 278.537 372.915 278.867 373.187 279.189C372.974 279.449 372.744 279.694 372.498 279.923Z" fill="#25397B"/>
<path fill-rule="evenodd" clip-rule="evenodd" d="M55.2634 200.489C54.9114 200.241 54.5574 199.997 54.2014 199.754V199.539C54.5544 199.856 54.9084 200.173 55.2634 200.489Z" fill="#C0D2E1"/>
<path fill-rule="evenodd" clip-rule="evenodd" d="M53.9724 88.4654L53.9614 83.2644C54.6954 82.3754 55.3534 81.5864 55.8374 81.0394C56.4084 80.3924 56.9854 79.7204 57.2844 78.9104C57.5834 78.1014 57.5534 77.1144 56.9874 76.4614C56.4514 75.8404 55.7434 75.2674 54.6124 75.2674C54.4054 75.2674 54.1834 75.2864 53.9454 75.3284L53.9393 72.6204C53.9314 68.7804 56.8554 65.6184 60.6004 65.2544C60.5794 65.4864 60.5684 65.7204 60.5694 65.9574L60.6094 85.6524C58.3744 86.5144 56.1594 87.4534 53.9724 88.4654Z" fill="#D4DEE4"/>
<path fill-rule="evenodd" clip-rule="evenodd" d="M60.8284 193.862C59.7084 190.873 58.8384 187.794 58.3474 184.632C57.5514 179.512 57.7514 174.278 56.9704 169.156C56.4484 165.731 55.4844 162.374 54.1184 159.19L54.0984 149.822C56.1724 151.376 58.4394 152.663 60.7474 153.844L60.8284 193.862ZM60.7454 152.718C58.3954 151.496 56.1244 150.165 54.0964 148.559L54.0084 105.834C56.0054 103.358 58.2444 101.05 60.6364 98.8843L60.7454 152.718ZM54.0044 104.267L53.9724 88.4653C56.1594 87.4533 58.3744 86.5143 60.6094 85.6523L60.6334 97.5443C58.2654 99.6393 56.0284 101.872 54.0044 104.267Z" fill="#C0D2E1"/>
<path fill-rule="evenodd" clip-rule="evenodd" d="M53.9614 83.2643L53.9454 75.3283C54.1834 75.2863 54.4054 75.2673 54.6124 75.2673C55.7434 75.2673 56.4514 75.8403 56.9874 76.4613C57.5534 77.1143 57.5834 78.1013 57.2844 78.9103C56.9854 79.7203 56.4084 80.3923 55.8374 81.0393C55.3534 81.5863 54.6954 82.3753 53.9614 83.2643Z" fill="#5A5B98"/>
<path fill-rule="evenodd" clip-rule="evenodd" d="M60.7474 153.844C58.4394 152.663 56.1724 151.376 54.0984 149.822L54.0964 148.559C56.1244 150.165 58.3954 151.496 60.7454 152.718L60.7474 153.844ZM54.0084 105.834L54.0044 104.267C56.0284 101.872 58.2654 99.6392 60.6334 97.5442L60.6364 98.8842C58.2444 101.05 56.0054 103.358 54.0084 105.834Z" fill="#325594"/>
<path fill-rule="evenodd" clip-rule="evenodd" d="M60.8504 204.777C59.0694 203.278 57.1964 201.848 55.2634 200.489C54.9084 200.173 54.5544 199.856 54.2014 199.539L54.1884 193.581C55.7164 196.338 57.2944 199.031 58.8684 201.503C59.5314 202.543 60.1934 203.543 60.8504 204.493V204.777ZM60.8464 202.71C60.4684 202.143 60.0904 201.561 59.7124 200.966C57.8484 198.041 55.9754 194.793 54.1844 191.493L54.1184 159.19C55.4844 162.374 56.4484 165.731 56.9704 169.156C57.7514 174.278 57.5514 179.512 58.3474 184.632C58.8384 187.794 59.7084 190.873 60.8284 193.862L60.8464 202.71Z" fill="#169186"/>
<path fill-rule="evenodd" clip-rule="evenodd" d="M60.8504 204.493C60.1934 203.543 59.5315 202.543 58.8685 201.503C57.2945 199.031 55.7164 196.338 54.1884 193.581L54.1844 191.493C55.9754 194.793 57.8484 198.041 59.7124 200.966C60.0904 201.561 60.4684 202.143 60.8464 202.71L60.8504 204.493Z" fill="#135F52"/>
<path fill-rule="evenodd" clip-rule="evenodd" d="M60.8544 206.48H57.0354C56.1004 206.013 55.1564 205.55 54.2124 205.096L54.2014 199.754C54.5574 199.997 54.9114 200.241 55.2634 200.489C57.1964 201.848 59.0694 203.278 60.8504 204.777L60.8544 206.48ZM54.7774 206.48H54.2154V206.207C54.4024 206.298 54.5904 206.389 54.7774 206.48Z" fill="#335091"/>
<path fill-rule="evenodd" clip-rule="evenodd" d="M57.0354 206.48H54.7774C54.5904 206.389 54.4024 206.298 54.2154 206.207L54.2124 205.096C55.1564 205.55 56.1004 206.013 57.0354 206.48Z" fill="#25397B"/>
<path fill-rule="evenodd" clip-rule="evenodd" d="M381.479 271.857C381.479 275.928 378.179 279.227 374.109 279.237L178.479 279.638L68.3894 279.867C64.3094 279.878 60.9894 276.577 60.9794 272.498L60.5694 69.9573C60.5594 65.8883 63.8594 62.5673 67.9394 62.5583L373.659 61.9282C377.739 61.9173 381.059 65.2173 381.069 69.2973L381.089 77.1873L381.479 271.838V271.857Z" fill="#FFFFFE" stroke="#D7D7D7"/>
<path fill-rule="evenodd" clip-rule="evenodd" d="M373.167 59.6892L68.7464 60.3182C64.3064 60.3272 60.7144 63.9342 60.7244 68.3742L60.7384 75.3652L381.237 74.7032L381.222 67.7122C381.214 63.2722 377.606 59.6812 373.167 59.6892Z" fill="#CAD1D9"/>
<path fill-rule="evenodd" clip-rule="evenodd" d="M107.566 262.165L71.6904 262.239C70.2444 262.242 69.0714 261.073 69.0684 259.628L69.0664 258.848C69.0634 257.402 70.2324 256.228 71.6784 256.226L107.552 256.151C108.998 256.148 110.172 257.317 110.175 258.763L110.177 259.543C110.181 260.988 109.011 262.162 107.566 262.165Z" fill="#FFFFFE"/>
<path fill-rule="evenodd" clip-rule="evenodd" d="M360.047 86.0502C360.047 83.2888 362.286 81.0503 365.047 81.0503C367.809 81.0503 370.047 83.2888 370.047 86.0502C370.047 88.8118 367.809 91.0503 365.047 91.0503C362.286 91.0503 360.047 88.8118 360.047 86.0502Z" fill="#4DB9B4"/>
<path d="M100 83H75C73.8954 83 73 83.8954 73 85V92C73 93.1046 73.8954 94 75 94H100C101.105 94 102 93.1046 102 92V85C102 83.8954 101.105 83 100 83Z" fill="#4DB9B4"/>
<path d="M286 86H261C259.895 86 259 86.8954 259 88C259 89.1046 259.895 90 261 90H286C287.105 90 288 89.1046 288 88C288 86.8954 287.105 86 286 86Z" fill="#BFBFBF"/>
<path d="M319 86H294C292.895 86 292 86.8954 292 88C292 89.1046 292.895 90 294 90H319C320.105 90 321 89.1046 321 88C321 86.8954 320.105 86 319 86Z" fill="#BFBFBF"/>
<path fill-rule="evenodd" clip-rule="evenodd" d="M78.3034 67.6812C78.3064 69.1112 77.1494 70.2732 75.7184 70.2762C74.2884 70.2792 73.1264 69.1222 73.1234 67.6922C73.1204 66.2612 74.2774 65.0992 75.7084 65.0962C77.1384 65.0932 78.3004 66.2502 78.3034 67.6812Z" fill="#FFFFFE"/>
<path fill-rule="evenodd" clip-rule="evenodd" d="M89.2684 67.6592C89.2714 69.0892 88.1134 70.2512 86.6834 70.2542C85.2534 70.2572 84.0914 69.1002 84.0884 67.6692C84.0854 66.2392 85.2424 65.0772 86.6734 65.0742C88.1034 65.0712 89.2654 66.2282 89.2684 67.6592Z" fill="#FFFFFE"/>
<path fill-rule="evenodd" clip-rule="evenodd" d="M100.233 67.6363C100.236 69.0663 99.0784 70.2283 97.6484 70.2313C96.2174 70.2343 95.0554 69.0773 95.0524 67.6463C95.0494 66.2163 96.2074 65.0543 97.6374 65.0513C99.0684 65.0483 100.23 66.2053 100.233 67.6363Z" fill="#FFFFFE"/>
<path fill-rule="evenodd" clip-rule="evenodd" d="M43.4535 234.511C42.0665 234.337 40.9625 233.248 40.7675 231.867C41.6545 232.754 42.5515 233.637 43.4535 234.511Z" fill="#C0D2E1"/>
<path fill-rule="evenodd" clip-rule="evenodd" d="M54.2265 211.651C52.7765 211.458 51.3525 211.357 49.9795 211.357C49.9525 211.357 49.9255 211.357 49.8985 211.357C49.7445 211.358 49.5915 211.358 49.4375 211.358C46.5355 211.358 43.6335 211.28 40.7355 211.126V209.59C40.7355 207.872 42.1275 206.48 43.8445 206.48H54.2155L54.2265 211.651Z" fill="#335091"/>
<path opacity="0.6" fill-rule="evenodd" clip-rule="evenodd" d="M60.9104 234.535H54.2734L54.2264 211.651C56.4124 211.943 58.6564 212.444 60.8674 213.126L60.9104 234.535Z" fill="#A4B7CD"/>
<path fill-rule="evenodd" clip-rule="evenodd" d="M60.8675 213.126C58.6565 212.444 56.4125 211.943 54.2265 211.651L54.2155 206.48H54.7775C55.0205 206.599 55.2635 206.718 55.5055 206.837C57.3445 207.743 59.1615 208.674 60.8605 209.59L60.8675 213.126ZM60.8585 208.454C59.6265 207.796 58.3415 207.134 57.0355 206.48H60.8545L60.8585 208.454Z" fill="#2E4A8D"/>
<path fill-rule="evenodd" clip-rule="evenodd" d="M60.8605 209.59C59.1615 208.674 57.3445 207.743 55.5055 206.837C55.2635 206.718 55.0205 206.599 54.7775 206.48H57.0355C58.3415 207.134 59.6265 207.796 60.8585 208.454L60.8605 209.59Z" fill="#273670"/>
<path d="M351 86H326C324.895 86 324 86.8954 324 88C324 89.1046 324.895 90 326 90H351C352.105 90 353 89.1046 353 88C353 86.8954 352.105 86 351 86Z" fill="#BFBFBF"/>
<path d="M370 103H78C75.2386 103 73 105.239 73 108V191C73 193.761 75.2386 196 78 196H370C372.761 196 375 193.761 375 191V108C375 105.239 372.761 103 370 103Z" fill="#CAD8E8"/>
<path fill-rule="evenodd" clip-rule="evenodd" d="M102.548 213.68L75.3234 213.736C74.1084 213.739 73.1214 212.756 73.1184 211.541L73.1174 210.885C73.1144 209.67 74.0974 208.683 75.3134 208.681L102.537 208.624C103.753 208.622 104.74 209.605 104.742 210.82L104.744 211.476C104.746 212.69 103.763 213.678 102.548 213.68Z" fill="#668CBB"/>
<path fill-rule="evenodd" clip-rule="evenodd" d="M90.8684 258.845L75.3234 258.877C74.1084 258.88 73.1214 257.897 73.1184 256.682L73.1174 256.026C73.1144 254.811 74.0974 253.824 75.3134 253.821L90.8584 253.789C92.0734 253.787 93.0604 254.77 93.0624 255.985L93.0644 256.641C93.0664 257.855 92.0834 258.843 90.8684 258.845Z" fill="#E15A4B"/>
<path fill-rule="evenodd" clip-rule="evenodd" d="M137.578 222.501L75.3234 222.629C74.1084 222.632 73.1214 221.649 73.1184 220.434L73.1174 219.778C73.1144 218.563 74.0974 217.576 75.3134 217.574L137.568 217.445C138.783 217.442 139.77 218.426 139.772 219.641L139.774 220.296C139.776 221.511 138.793 222.498 137.578 222.501Z" fill="#668CBB"/>
<path fill-rule="evenodd" clip-rule="evenodd" d="M157.312 235.294L73.9224 235.466C73.4794 235.467 73.1204 235.109 73.1194 234.666L73.1184 234.427C73.1174 233.984 73.4764 233.625 73.9194 233.624L157.308 233.452C157.751 233.451 158.111 233.809 158.111 234.252L158.112 234.491C158.113 234.934 157.755 235.293 157.312 235.294Z" fill="#DDE1DE"/>
<path fill-rule="evenodd" clip-rule="evenodd" d="M157.312 231.247L73.9224 231.42C73.4794 231.421 73.1204 231.062 73.1194 230.62L73.1184 230.381C73.1174 229.938 73.4764 229.579 73.9194 229.578L157.308 229.406C157.751 229.405 158.111 229.763 158.111 230.205L158.112 230.444C158.113 230.887 157.755 231.247 157.312 231.247Z" fill="#DDE1DE"/>
<path fill-rule="evenodd" clip-rule="evenodd" d="M157.315 239.34L73.9245 239.513C73.4825 239.513 73.1225 239.155 73.1215 238.712V238.474C73.1205 238.031 73.4785 237.671 73.9215 237.67L157.311 237.498C157.754 237.497 158.113 237.855 158.114 238.298V238.537C158.115 238.979 157.757 239.339 157.315 239.34Z" fill="#DDE1DE"/>
<path fill-rule="evenodd" clip-rule="evenodd" d="M157.317 243.387L73.9274 243.559C73.4844 243.56 73.1254 243.202 73.1244 242.759L73.1234 242.52C73.1224 242.077 73.4804 241.717 73.9234 241.717L157.313 241.544C157.756 241.543 158.115 241.902 158.116 242.344L158.117 242.583C158.118 243.026 157.759 243.386 157.317 243.387Z" fill="#DDE1DE"/>
<path fill-rule="evenodd" clip-rule="evenodd" d="M137.896 247.453L73.9295 247.585C73.4865 247.586 73.1275 247.227 73.1265 246.785L73.1255 246.546C73.1255 246.103 73.4835 245.744 73.9255 245.743L137.892 245.611C138.335 245.61 138.695 245.968 138.695 246.411L138.696 246.649C138.696 247.092 138.339 247.452 137.896 247.453Z" fill="#DDE1DE"/>
<path fill-rule="evenodd" clip-rule="evenodd" d="M236.17 255.778L182.634 255.889C182.192 255.89 181.832 255.531 181.831 255.089V254.85C181.83 254.407 182.188 254.047 182.631 254.046L236.166 253.935C236.608 253.935 236.967 254.293 236.968 254.735L236.969 254.975C236.97 255.417 236.612 255.777 236.17 255.778Z" fill="#DDE1DE"/>
<path fill-rule="evenodd" clip-rule="evenodd" d="M236.167 251.731L182.632 251.842C182.189 251.843 181.829 251.485 181.828 251.042V250.804C181.827 250.36 182.185 250.001 182.628 250L236.163 249.89C236.605 249.889 236.965 250.247 236.966 250.689V250.929C236.967 251.371 236.609 251.73 236.167 251.731Z" fill="#DDE1DE"/>
<path fill-rule="evenodd" clip-rule="evenodd" d="M236.174 259.824L182.639 259.935C182.196 259.935 181.837 259.577 181.836 259.135L181.835 258.895C181.834 258.453 182.192 258.094 182.635 258.093L236.17 257.982C236.613 257.981 236.972 258.339 236.973 258.782V259.02C236.974 259.464 236.617 259.823 236.174 259.824Z" fill="#DDE1DE"/>
<path fill-rule="evenodd" clip-rule="evenodd" d="M236.178 263.87L182.643 263.981C182.2 263.982 181.841 263.624 181.84 263.181V262.942C181.839 262.499 182.196 262.14 182.639 262.139L236.174 262.028C236.617 262.027 236.977 262.386 236.977 262.828L236.978 263.067C236.979 263.51 236.621 263.869 236.178 263.87Z" fill="#DDE1DE"/>
<path fill-rule="evenodd" clip-rule="evenodd" d="M223.582 267.923L182.648 268.007C182.205 268.008 181.845 267.65 181.844 267.207V266.969C181.843 266.525 182.201 266.166 182.644 266.165L223.578 266.081C224.021 266.08 224.381 266.437 224.382 266.881V267.119C224.382 267.562 224.025 267.922 223.582 267.923Z" fill="#DDE1DE"/>
<path fill-rule="evenodd" clip-rule="evenodd" d="M297.758 255.807L244.223 255.917C243.78 255.918 243.421 255.56 243.42 255.117V254.878C243.419 254.435 243.777 254.076 244.219 254.075L297.755 253.964C298.197 253.963 298.556 254.321 298.557 254.765L298.558 255.003C298.559 255.446 298.201 255.806 297.758 255.807Z" fill="#DDE1DE"/>
<path fill-rule="evenodd" clip-rule="evenodd" d="M297.756 251.76L244.22 251.871C243.777 251.872 243.418 251.514 243.417 251.07V250.832C243.416 250.39 243.773 250.029 244.216 250.028L297.752 249.918C298.194 249.917 298.553 250.275 298.554 250.718L298.555 250.957C298.556 251.399 298.198 251.759 297.756 251.76Z" fill="#DDE1DE"/>
<path fill-rule="evenodd" clip-rule="evenodd" d="M297.762 259.852L244.227 259.963C243.785 259.964 243.425 259.606 243.424 259.163V258.925C243.423 258.481 243.781 258.122 244.223 258.121L297.758 258.011C298.202 258.01 298.561 258.368 298.562 258.81V259.05C298.563 259.492 298.205 259.851 297.762 259.852Z" fill="#DDE1DE"/>
<path fill-rule="evenodd" clip-rule="evenodd" d="M297.767 263.899L244.232 264.01C243.79 264.011 243.429 263.652 243.428 263.21V262.971C243.427 262.528 243.786 262.168 244.228 262.167L297.763 262.057C298.206 262.056 298.565 262.414 298.566 262.856L298.567 263.096C298.568 263.538 298.21 263.898 297.767 263.899Z" fill="#DDE1DE"/>
<path fill-rule="evenodd" clip-rule="evenodd" d="M285.171 267.951L244.236 268.036C243.794 268.037 243.434 267.679 243.433 267.235L243.432 266.997C243.431 266.554 243.79 266.194 244.233 266.193L285.167 266.109C285.61 266.108 285.969 266.467 285.97 266.909V267.148C285.971 267.591 285.614 267.95 285.171 267.951Z" fill="#DDE1DE"/>
<path fill-rule="evenodd" clip-rule="evenodd" d="M359.346 255.807L305.812 255.917C305.369 255.918 305.009 255.56 305.008 255.117V254.878C305.007 254.435 305.365 254.076 305.808 254.075L359.343 253.964C359.786 253.963 360.145 254.321 360.146 254.765L360.147 255.003C360.148 255.446 359.79 255.806 359.346 255.807Z" fill="#DDE1DE"/>
<path fill-rule="evenodd" clip-rule="evenodd" d="M359.343 251.76L305.809 251.871C305.366 251.872 305.006 251.514 305.006 251.07V250.832C305.005 250.39 305.362 250.029 305.805 250.028L359.341 249.918C359.783 249.917 360.142 250.275 360.143 250.718L360.144 250.957C360.145 251.399 359.787 251.759 359.343 251.76Z" fill="#DDE1DE"/>
<path fill-rule="evenodd" clip-rule="evenodd" d="M359.351 259.852L305.816 259.963C305.374 259.964 305.014 259.606 305.013 259.163L305.012 258.925C305.011 258.481 305.37 258.122 305.812 258.121L359.347 258.011C359.79 258.01 360.15 258.368 360.151 258.81V259.05C360.152 259.492 359.794 259.851 359.351 259.852Z" fill="#DDE1DE"/>
<path fill-rule="evenodd" clip-rule="evenodd" d="M359.356 263.899L305.821 264.01C305.378 264.011 305.018 263.652 305.017 263.21V262.971C305.016 262.528 305.375 262.168 305.817 262.167L359.352 262.057C359.795 262.056 360.154 262.414 360.155 262.856L360.156 263.096C360.157 263.538 359.799 263.898 359.356 263.899Z" fill="#DDE1DE"/>
<path fill-rule="evenodd" clip-rule="evenodd" d="M346.759 267.951L305.825 268.036C305.382 268.037 305.023 267.679 305.022 267.235L305.021 266.997C305.02 266.554 305.379 266.194 305.822 266.193L346.756 266.109C347.199 266.108 347.558 266.467 347.559 266.909V267.148C347.56 267.591 347.202 267.95 346.759 267.951Z" fill="#DDE1DE"/>
<path fill-rule="evenodd" clip-rule="evenodd" d="M91.0895 266.733L73.9295 266.768C73.4865 266.769 73.1275 266.411 73.1265 265.969V265.729C73.1255 265.287 73.4835 264.927 73.9255 264.927L91.0855 264.891C91.5285 264.89 91.8875 265.248 91.8885 265.69L91.8895 265.93C91.8905 266.372 91.5315 266.732 91.0895 266.733Z" fill="#DDE1DE"/>
<path fill-rule="evenodd" clip-rule="evenodd" d="M116.939 266.733L99.7794 266.768C99.3374 266.769 98.9774 266.411 98.9764 265.969V265.729C98.9754 265.287 99.3334 264.927 99.7764 264.927L116.935 264.891C117.378 264.89 117.737 265.248 117.738 265.69L117.739 265.93C117.74 266.372 117.382 266.732 116.939 266.733Z" fill="#DDE1DE"/>
<path fill-rule="evenodd" clip-rule="evenodd" d="M142.789 266.733L125.63 266.768C125.187 266.769 124.827 266.411 124.826 265.969V265.729C124.825 265.287 125.183 264.927 125.626 264.927L142.785 264.891C143.228 264.89 143.588 265.248 143.589 265.69L143.59 265.93C143.591 266.372 143.232 266.732 142.789 266.733Z" fill="#DDE1DE"/>
<path fill-rule="evenodd" clip-rule="evenodd" d="M168.64 266.733L151.48 266.768C151.037 266.769 150.678 266.411 150.677 265.969L150.676 265.729C150.675 265.287 151.033 264.927 151.476 264.927L168.636 264.891C169.079 264.89 169.438 265.248 169.439 265.69L169.44 265.93C169.441 266.372 169.082 266.732 168.64 266.733Z" fill="#DDE1DE"/>
<path fill-rule="evenodd" clip-rule="evenodd" d="M147 14L154.794 18.5V27.5L147 32L139.206 27.5V18.5L147 14Z" fill="#FFB461"/>
<path fill-rule="evenodd" clip-rule="evenodd" d="M296 303L303.794 307.5V316.5L296 321L288.206 316.5V307.5L296 303Z" fill="#91CFC0"/>
<path fill-rule="evenodd" clip-rule="evenodd" d="M332 18L339.794 22.5V31.5L332 36L324.206 31.5V22.5L332 18Z" fill="#00CAC5"/>
<path fill-rule="evenodd" clip-rule="evenodd" d="M199.241 137.127C199.241 137.608 198.852 137.998 198.371 137.998C197.89 137.998 197.501 137.608 197.501 137.127C197.501 136.647 197.89 136.257 198.371 136.257C198.852 136.257 199.241 136.647 199.241 137.127Z" fill="#FFFFFE"/>
<path fill-rule="evenodd" clip-rule="evenodd" d="M243.887 127.801C243.887 128.281 243.498 128.671 243.017 128.671C242.536 128.671 242.146 128.281 242.146 127.801C242.146 127.32 242.536 126.93 243.017 126.93C243.498 126.93 243.887 127.32 243.887 127.801Z" fill="#FFFFFE"/>
<path fill-rule="evenodd" clip-rule="evenodd" d="M241.579 137.545C241.579 138.026 241.189 138.415 240.709 138.415C240.227 138.415 239.839 138.026 239.839 137.545C239.839 137.065 240.227 136.675 240.709 136.675C241.189 136.675 241.579 137.065 241.579 137.545Z" fill="#FFFFFE"/>
<path fill-rule="evenodd" clip-rule="evenodd" d="M306.36 140.538C306.36 141.019 305.97 141.409 305.49 141.409C305.008 141.409 304.619 141.019 304.619 140.538C304.619 140.058 305.008 139.668 305.49 139.668C305.97 139.668 306.36 140.058 306.36 140.538Z" fill="#FFFFFE"/>
<path fill-rule="evenodd" clip-rule="evenodd" d="M300.233 147.538C300.233 148.019 299.843 148.409 299.363 148.409C298.882 148.409 298.492 148.019 298.492 147.538C298.492 147.058 298.882 146.668 299.363 146.668C299.843 146.668 300.233 147.058 300.233 147.538Z" fill="#FFFFFE"/>
<path fill-rule="evenodd" clip-rule="evenodd" d="M238.946 147.082C238.946 147.563 238.556 147.953 238.076 147.953C237.595 147.953 237.206 147.563 237.206 147.082C237.206 146.601 237.595 146.212 238.076 146.212C238.556 146.212 238.946 146.601 238.946 147.082Z" fill="#FFFFFE"/>
<path fill-rule="evenodd" clip-rule="evenodd" d="M271.779 139.286C271.779 139.767 271.389 140.156 270.909 140.156C270.428 140.156 270.039 139.767 270.039 139.286C270.039 138.805 270.428 138.415 270.909 138.415C271.389 138.415 271.779 138.805 271.779 139.286Z" fill="#FFFFFE"/>
<path fill-rule="evenodd" clip-rule="evenodd" d="M208 221.801C208 229.257 201.956 235.301 194.5 235.301C187.044 235.301 181 229.257 181 221.801C181 214.346 187.044 208.301 194.5 208.301C201.956 208.301 208 214.346 208 221.801Z" fill="#D1E9F1"/>
<path fill-rule="evenodd" clip-rule="evenodd" d="M274 221.801C274 229.257 267.956 235.301 260.5 235.301C253.044 235.301 247 229.257 247 221.801C247 214.346 253.044 208.301 260.5 208.301C267.956 208.301 274 214.346 274 221.801Z" fill="#D1E9F1"/>
<path fill-rule="evenodd" clip-rule="evenodd" d="M332 221.801C332 229.257 325.956 235.301 318.5 235.301C311.044 235.301 305 229.257 305 221.801C305 214.346 311.044 208.301 318.5 208.301C325.956 208.301 332 214.346 332 221.801Z" fill="#D1E9F1"/>
<path fill-rule="evenodd" clip-rule="evenodd" d="M354.477 258.021C354.371 257.286 354.262 256.551 354.15 255.817H354.424C354.537 256.551 354.647 257.285 354.754 258.02L354.477 258.021ZM353.862 253.975C353.745 253.248 353.624 252.521 353.499 251.795C353.497 251.787 353.496 251.779 353.495 251.772L353.76 251.771C353.782 251.898 353.803 252.025 353.825 252.152C353.93 252.759 354.032 253.367 354.131 253.975H353.862Z" fill="#D9E1E5"/>
<path fill-rule="evenodd" clip-rule="evenodd" d="M354.15 255.817C354.057 255.203 353.961 254.589 353.862 253.975H354.131C354.231 254.589 354.329 255.202 354.424 255.817H354.15Z" fill="#BBC3C8"/>
<path fill-rule="evenodd" clip-rule="evenodd" d="M316.955 251.848C317.232 251.231 317.518 250.615 317.813 250.003L318.323 250.002C318.024 250.614 317.733 251.23 317.452 251.847L316.955 251.848ZM353.495 251.772C353.39 251.158 353.284 250.545 353.178 249.931L353.444 249.93C353.55 250.543 353.655 251.158 353.76 251.771L353.495 251.772Z" fill="#BBC3C8"/>
<path fill-rule="evenodd" clip-rule="evenodd" d="M313.804 259.946C314.011 259.33 314.223 258.716 314.442 258.103L314.906 258.102C314.684 258.715 314.469 259.329 314.26 259.945L313.804 259.946ZM354.735 259.862C354.651 259.248 354.565 258.634 354.477 258.021L354.754 258.02C354.844 258.633 354.931 259.248 355.016 259.861L354.735 259.862Z" fill="#BBC3C8"/>
<path fill-rule="evenodd" clip-rule="evenodd" d="M312.534 263.996C312.715 263.379 312.9 262.766 313.091 262.152L313.538 262.151C313.345 262.764 313.157 263.378 312.975 263.995L312.534 263.996ZM355.267 263.908C355.19 263.293 355.111 262.68 355.03 262.065H355.315C355.396 262.679 355.475 263.293 355.554 263.907L355.267 263.908Z" fill="#BBC3C8"/>
<path fill-rule="evenodd" clip-rule="evenodd" d="M311.425 268.024C311.585 267.409 311.748 266.794 311.916 266.181L312.349 266.18C312.179 266.793 312.014 267.407 311.853 268.024H311.425Z" fill="#BBC3C8"/>
<path fill-rule="evenodd" clip-rule="evenodd" d="M309.039 302.367C309.051 302.307 309.063 302.252 309.075 302.202C310.678 295.533 311.893 288.751 313.22 282.01H313.223C311.895 288.75 310.681 295.53 309.08 302.198C309.068 302.248 309.056 302.303 309.043 302.362C309.042 302.363 309.04 302.365 309.039 302.367Z" fill="#C0D2E1"/>
<path fill-rule="evenodd" clip-rule="evenodd" d="M313.22 282.01C313.659 279.786 314.109 277.569 314.589 275.359H314.592C314.111 277.568 313.66 279.787 313.223 282.01H313.22Z" fill="#A4B7CD"/>
<path fill-rule="evenodd" clip-rule="evenodd" d="M314.589 275.359C315.125 272.896 315.699 270.445 316.335 268.014H316.337C315.701 270.445 315.127 272.896 314.592 275.359H314.589ZM316.831 266.171C317.034 265.44 317.242 264.712 317.457 263.986H317.459C317.244 264.712 317.036 265.44 316.833 266.171H316.831ZM318.021 262.142C318.253 261.404 318.494 260.669 318.743 259.936H318.744C318.496 260.668 318.255 261.405 318.023 262.142H318.021ZM319.39 258.093C319.657 257.355 319.935 256.619 320.222 255.887H320.223C319.936 256.619 319.659 257.355 319.391 258.093H319.39ZM320.971 254.044C321.281 253.305 321.603 252.569 321.936 251.837H321.937C321.604 252.569 321.282 253.305 320.972 254.044H320.971Z" fill="#D9E1E5"/>
<path fill-rule="evenodd" clip-rule="evenodd" d="M320.222 255.887C320.464 255.27 320.713 254.656 320.971 254.044H320.972C320.715 254.656 320.466 255.27 320.223 255.887H320.222Z" fill="#BBC3C8"/>
<path fill-rule="evenodd" clip-rule="evenodd" d="M322.807 249.993C323.17 249.252 323.546 248.515 323.935 247.782C324.18 247.322 324.454 246.807 324.756 246.25C324.479 246.763 324.206 247.274 323.937 247.779C323.547 248.513 323.171 249.251 322.808 249.993H322.807Z" fill="#D9E1E5"/>
<path fill-rule="evenodd" clip-rule="evenodd" d="M321.936 251.837C322.218 251.22 322.508 250.605 322.807 249.993H322.808C322.509 250.605 322.219 251.22 321.937 251.837H321.936Z" fill="#BBC3C8"/>
<path fill-rule="evenodd" clip-rule="evenodd" d="M318.743 259.936C318.952 259.32 319.167 258.706 319.39 258.093H319.391C319.169 258.706 318.954 259.32 318.744 259.936H318.743Z" fill="#BBC3C8"/>
<path fill-rule="evenodd" clip-rule="evenodd" d="M317.457 263.986C317.64 263.369 317.828 262.755 318.021 262.142H318.023C317.829 262.755 317.642 263.369 317.459 263.986H317.457Z" fill="#BBC3C8"/>
<path fill-rule="evenodd" clip-rule="evenodd" d="M316.335 268.014C316.496 267.399 316.662 266.783 316.831 266.171H316.833C316.664 266.784 316.499 267.398 316.337 268.014H316.335Z" fill="#BBC3C8"/>
<path fill-rule="evenodd" clip-rule="evenodd" d="M365.481 301.993C365.318 300.763 365.061 299.537 364.815 298.322C363.842 293.506 363.098 288.663 362.454 283.811C362.456 283.811 362.455 283.811 362.456 283.811C363.101 288.664 363.844 293.505 364.818 298.323C365.064 299.538 365.319 300.763 365.482 301.992C365.482 301.993 365.482 301.993 365.481 301.993Z" fill="#D9E1E5"/>
<path fill-rule="evenodd" clip-rule="evenodd" d="M362.454 283.811C362.37 283.177 362.288 282.544 362.207 281.909H362.208C362.289 282.543 362.372 283.177 362.456 283.811C362.455 283.811 362.456 283.811 362.454 283.811Z" fill="#D4DEE4"/>
<path fill-rule="evenodd" clip-rule="evenodd" d="M362.207 281.909C361.924 279.696 361.658 277.479 361.397 275.263C361.659 277.479 361.925 279.696 362.208 281.909H362.207Z" fill="#B4C1CD"/>
<path fill-rule="evenodd" clip-rule="evenodd" d="M361.397 275.263C361.324 274.645 361.252 274.03 361.18 273.412C361.252 274.029 361.325 274.646 361.397 275.263Z" fill="#D9E1E5"/>
<path fill-rule="evenodd" clip-rule="evenodd" d="M330.262 237.188C330.443 236.934 330.626 236.682 330.809 236.433C330.81 236.436 330.81 236.438 330.811 236.441C330.626 236.688 330.443 236.937 330.262 237.188ZM354.41 230.44C353.985 228.183 353.553 225.927 353.115 223.673C352.701 221.523 352.593 218.607 351.952 216.121C351.952 216.12 351.952 216.121 351.952 216.12C352.593 218.607 352.702 221.526 353.118 223.673C353.555 225.928 353.985 228.183 354.41 230.44Z" fill="#49B4A1"/>
<path fill-rule="evenodd" clip-rule="evenodd" d="M324.756 246.25C326.142 243.681 327.639 241.038 329.315 238.55H329.326C327.529 241.24 325.936 244.068 324.756 246.25Z" fill="#FAFBFB"/>
<path fill-rule="evenodd" clip-rule="evenodd" d="M329.326 238.55H329.315C329.625 238.09 329.94 237.636 330.262 237.188C329.945 237.636 329.632 238.09 329.326 238.55Z" fill="#5BBBA6"/>
<path fill-rule="evenodd" clip-rule="evenodd" d="M329.315 238.55H325.657C327.064 236.715 328.534 234.908 329.937 233.288C330.225 234.337 330.516 235.385 330.809 236.433C330.626 236.682 330.443 236.934 330.262 237.188C329.94 237.636 329.625 238.09 329.315 238.55Z" fill="#47B19F"/>
<path fill-rule="evenodd" clip-rule="evenodd" d="M312.975 263.995C313.157 263.378 313.345 262.764 313.538 262.151L318.021 262.142C317.828 262.755 317.64 263.369 317.457 263.986L312.975 263.995Z" fill="#B8C1C6"/>
<path fill-rule="evenodd" clip-rule="evenodd" d="M311.853 268.024C312.014 267.407 312.179 266.793 312.349 266.18L316.831 266.171C316.662 266.783 316.496 267.399 316.335 268.014L311.853 268.024Z" fill="#B8C1C6"/>
<path fill-rule="evenodd" clip-rule="evenodd" d="M361.18 273.412C360.795 270.133 360.414 266.856 359.994 263.58C359.995 263.579 359.995 263.579 359.996 263.578C360.415 266.853 360.796 270.133 361.18 273.412ZM359.818 262.205C359.817 262.204 359.816 262.204 359.816 262.203C359.712 261.415 359.606 260.626 359.497 259.839C359.497 259.839 359.498 259.839 359.499 259.839C359.608 260.627 359.714 261.416 359.818 262.205ZM359.237 258.011C359.13 257.276 359.021 256.542 358.907 255.807H358.91C359.024 256.542 359.133 257.276 359.24 258.011H359.237ZM358.615 253.965C358.517 253.36 358.415 252.753 358.311 252.148C358.289 252.02 358.267 251.891 358.245 251.762H358.248C358.27 251.892 358.293 252.022 358.315 252.152C358.419 252.756 358.52 253.361 358.619 253.965H358.615Z" fill="#FAFBFB"/>
<path fill-rule="evenodd" clip-rule="evenodd" d="M358.907 255.807C358.813 255.193 358.715 254.579 358.615 253.965H358.619C358.718 254.579 358.816 255.193 358.91 255.807H358.907Z" fill="#D5DAD9"/>
<path fill-rule="evenodd" clip-rule="evenodd" d="M357.928 249.921C357.272 246.128 356.6 242.337 355.911 238.55H355.913C356.602 242.337 357.274 246.128 357.931 249.921H357.928Z" fill="#FAFBFB"/>
<path fill-rule="evenodd" clip-rule="evenodd" d="M355.913 238.55H355.911C355.419 235.845 354.919 233.142 354.41 230.44C354.92 233.142 355.42 235.845 355.913 238.55Z" fill="#5BBBA6"/>
<path fill-rule="evenodd" clip-rule="evenodd" d="M358.245 251.762C358.14 251.149 358.034 250.534 357.928 249.921H357.931C358.037 250.535 358.143 251.148 358.248 251.762H358.245Z" fill="#D5DAD9"/>
<path fill-rule="evenodd" clip-rule="evenodd" d="M359.497 259.839C359.412 259.23 359.326 258.619 359.237 258.011H359.24C359.328 258.619 359.414 259.23 359.499 259.839C359.498 259.839 359.497 259.839 359.497 259.839Z" fill="#D5DAD9"/>
<path fill-rule="evenodd" clip-rule="evenodd" d="M359.994 263.58C359.936 263.121 359.876 262.662 359.816 262.203C359.816 262.204 359.817 262.204 359.818 262.205C359.878 262.663 359.937 263.12 359.996 263.578C359.995 263.579 359.995 263.579 359.994 263.58Z" fill="#D5DAD9"/>
<path fill-rule="evenodd" clip-rule="evenodd" d="M318.822 173.5C318.768 173.5 318.715 173.499 318.661 173.498C318.344 173.493 318.03 173.465 317.719 173.417L317.706 166.336H323.12C322.057 168.546 321.302 170.92 320.69 173.333C320.075 173.44 319.452 173.5 318.822 173.5Z" fill="#49B4A1"/>
<path fill-rule="evenodd" clip-rule="evenodd" d="M320.61 194.673C320.635 194.595 320.662 194.52 320.693 194.449C321.146 193.392 322.277 193.134 323.393 192.76C324.941 192.24 326.549 191.932 328.161 191.689C328.899 191.579 329.661 191.554 330.329 191.246C330.513 191.161 330.703 191.117 330.891 191.11C330.908 191.11 330.925 191.109 330.942 191.109C331.363 191.109 331.771 191.298 332.078 191.645C332.341 191.943 332.506 192.305 332.617 192.688C332.606 192.675 332.595 192.662 332.584 192.648C332.266 192.271 331.842 192.068 331.398 192.068C331.168 192.068 330.932 192.122 330.704 192.235C329.976 192.596 329.154 192.641 328.355 192.781C326.61 193.089 324.867 193.471 323.185 194.09C322.949 194.177 322.729 194.206 322.522 194.206C322.303 194.206 322.1 194.173 321.911 194.139C321.723 194.106 321.549 194.073 321.389 194.073C321.086 194.073 320.832 194.192 320.618 194.656C320.615 194.662 320.613 194.667 320.61 194.673Z" fill="#3D5C9A"/>
<path fill-rule="evenodd" clip-rule="evenodd" d="M357.798 197.852C357.565 197.852 357.331 197.819 357.097 197.744C355.82 197.339 354.832 196.026 354.416 194.749C354.008 193.496 353.634 190.858 354.666 188.605C354.669 188.599 354.671 188.594 354.674 188.588C354.888 188.124 355.142 188.005 355.445 188.005C355.605 188.005 355.779 188.038 355.967 188.071C356.156 188.105 356.359 188.138 356.578 188.138C356.785 188.138 357.005 188.109 357.241 188.022C358.923 187.403 360.666 187.021 362.411 186.713C363.21 186.573 364.032 186.528 364.76 186.167C364.988 186.054 365.224 186 365.454 186C365.898 186 366.322 186.203 366.64 186.58C366.651 186.594 366.662 186.607 366.673 186.62C366.88 186.879 367.025 187.182 367.129 187.505C367.249 187.875 367.315 188.272 367.361 188.662C367.44 189.333 367.469 190.042 367.204 190.673C366.923 191.345 366.352 191.834 365.81 192.306C365.43 192.637 365.055 192.974 364.68 193.312C363.535 194.344 362.393 195.381 361.142 196.263C360.129 196.978 358.986 197.852 357.798 197.852Z" fill="#3D5C9A"/>
<path fill-rule="evenodd" clip-rule="evenodd" d="M341.883 173.128C341.649 174.296 341.638 175.499 341.446 176.675C341.253 177.851 340.844 179.048 339.974 179.861C339.104 180.676 337.682 180.984 336.697 180.315C335.766 179.684 335.492 178.439 335.463 177.315C335.437 176.332 336.284 172.276 336.284 172.276C336.284 172.276 338.476 172.869 339.035 172.991C339.968 173.194 340.935 173.244 341.883 173.128Z" fill="#345293"/>
<g opacity="0.5">
<path d="M254.897 126H193.103C192.494 126 192 126.447 192 127V171C192 171.553 192.494 172 193.103 172H254.897C255.506 172 256 171.553 256 171V127C256 126.447 255.506 126 254.897 126ZM209.655 137C213.044 137 215.8 139.498 215.8 142.569C215.8 145.639 213.044 148.137 209.655 148.137C206.266 148.137 203.51 145.639 203.51 142.569C203.51 139.498 206.266 137 209.655 137ZM250.193 155.676C249.781 156.082 249.082 156.111 248.633 155.738L236.207 145.414L226.077 155.468L231.381 160.275C231.812 160.666 231.812 161.298 231.381 161.689C230.95 162.08 230.252 162.08 229.821 161.689L218.454 151.389L200.454 165.751C200.244 165.918 199.983 166 199.724 166C199.418 166 199.114 165.886 198.895 165.661C198.493 165.246 198.537 164.614 198.995 164.249L217.772 149.267C218.209 148.919 218.869 148.938 219.282 149.311L224.515 154.054L235.322 143.327C235.52 143.131 235.796 143.014 236.088 143.002C236.38 142.996 236.666 143.085 236.883 143.264L250.124 154.264C250.574 154.636 250.604 155.269 250.193 155.676Z" fill="white"/>
</g>
<g filter="url(#filter0_d_33_4349)">
<path d="M266 238H199C196.791 238 195 239.791 195 242V320C195 322.209 196.791 324 199 324H266C268.209 324 270 322.209 270 320V242C270 239.791 268.209 238 266 238Z" fill="black"/>
</g>
<path d="M266 238H199C196.791 238 195 239.791 195 242V320C195 322.209 196.791 324 199 324H266C268.209 324 270 322.209 270 320V242C270 239.791 268.209 238 266 238Z" fill="white" stroke="#D9D9D9"/>
<path d="M258 292H224C222.343 292 221 293.343 221 295C221 296.657 222.343 298 224 298H258C259.657 298 261 296.657 261 295C261 293.343 259.657 292 258 292Z" fill="#D7D7D7"/>
<path fill-rule="evenodd" clip-rule="evenodd" d="M259.893 309.352H259.224C259.22 311.56 257.458 313.345 255.281 313.349C253.103 313.345 251.343 311.56 251.339 309.352C251.343 307.146 253.104 305.361 255.281 305.357C257.457 305.361 259.22 307.148 259.224 309.352H260.562C260.561 306.397 258.197 304 255.281 304C252.364 304 250 306.397 250 309.352C250 312.31 252.364 314.705 255.281 314.706C258.197 314.705 260.562 312.31 260.562 309.352H259.893Z" fill="#3D5C9A"/>
<path fill-rule="evenodd" clip-rule="evenodd" d="M262.75 315.676L259.333 312.597C259.029 312.324 258.569 312.357 258.304 312.671C258.04 312.985 258.072 313.461 258.375 313.734L261.792 316.814C262.095 317.088 262.556 317.055 262.82 316.741C263.085 316.428 263.053 315.951 262.75 315.676Z" fill="#3D5C9A"/>
<path d="M209.5 249C205.91 249 203 251.91 203 255.5C203 259.09 205.91 262 209.5 262C213.09 262 216 259.09 216 255.5C216 251.91 213.09 249 209.5 249ZM208.308 258.839L205.446 255.977L206.399 255.023L208.308 256.931L212.601 252.638L213.554 253.592L208.308 258.839Z" fill="#9BB88D"/>
<path d="M258 252H224C222.343 252 221 253.343 221 255C221 256.657 222.343 258 224 258H258C259.657 258 261 256.657 261 255C261 253.343 259.657 252 258 252Z" fill="#D7D7D7"/>
<path d="M259.5 238H204.5C203.672 238 203 238.672 203 239.5C203 240.328 203.672 241 204.5 241H259.5C260.328 241 261 240.328 261 239.5C261 238.672 260.328 238 259.5 238Z" fill="#D7D7D7"/>
<path d="M209.5 269C205.91 269 203 271.91 203 275.5C203 279.09 205.91 282 209.5 282C213.09 282 216 279.09 216 275.5C216 271.91 213.09 269 209.5 269ZM208.308 278.839L205.446 275.977L206.399 275.023L208.308 276.931L212.601 272.638L213.554 273.592L208.308 278.839Z" fill="#9BB88D"/>
<path d="M258 272H224C222.343 272 221 273.343 221 275C221 276.657 222.343 278 224 278H258C259.657 278 261 276.657 261 275C261 273.343 259.657 272 258 272Z" fill="#D7D7D7"/>
<path d="M209.5 302C213.09 302 216 299.09 216 295.5C216 291.91 213.09 289 209.5 289C205.91 289 203 291.91 203 295.5C203 299.09 205.91 302 209.5 302Z" fill="#DA8585"/>
<path d="M209.839 295.5L211.93 293.409C212.023 293.316 212.023 293.164 211.93 293.07C211.836 292.977 211.684 292.977 211.591 293.07L209.5 295.161L207.409 293.071C207.316 292.977 207.164 292.977 207.07 293.071C206.977 293.164 206.977 293.316 207.07 293.41L209.161 295.5L207.071 297.591C206.977 297.684 206.977 297.836 207.071 297.93C207.118 297.976 207.179 298 207.24 298C207.301 298 207.363 297.977 207.409 297.93L209.5 295.839L211.591 297.93C211.638 297.976 211.699 298 211.76 298C211.821 298 211.883 297.977 211.929 297.93C212.023 297.836 212.023 297.684 211.929 297.591L209.839 295.5Z" fill="white" stroke="white" stroke-width="0.5"/>
<defs>
<filter id="filter0_d_33_4349" x="191" y="236" width="83" height="94" filterUnits="userSpaceOnUse" color-interpolation-filters="sRGB">
<feFlood flood-opacity="0" result="BackgroundImageFix"/>
<feColorMatrix in="SourceAlpha" type="matrix" values="0 0 0 0 0 0 0 0 0 0 0 0 0 0 0 0 0 0 127 0" result="hardAlpha"/>
<feOffset dy="2"/>
<feGaussianBlur stdDeviation="2"/>
<feColorMatrix type="matrix" values="0 0 0 0 0 0 0 0 0 0 0 0 0 0 0 0 0 0 0.122405 0"/>
<feBlend mode="normal" in2="BackgroundImageFix" result="effect1_dropShadow_33_4349"/>
<feBlend mode="normal" in="SourceGraphic" in2="effect1_dropShadow_33_4349" result="shape"/>
</filter>
</defs>
</svg>
