<svg width="445" height="362" viewBox="0 0 445 362" fill="none" xmlns="http://www.w3.org/2000/svg">
<path fill-rule="evenodd" clip-rule="evenodd" d="M209.026 41.0383C237.605 27.4693 270.885 21.1403 301.161 30.3193C338.041 41.5013 364.455 73.1103 388.387 103.317C405.33 124.703 422.451 146.692 431.46 172.446C440.47 198.2 440.088 228.827 423.726 250.661C411.693 266.718 392.946 275.964 376.233 287.068C347.456 306.187 323.157 332.155 292.09 347.272C262.587 361.63 227.948 365.13 196.169 356.966C166.915 349.451 141.036 332.768 114.513 318.32C90.2486 305.103 64.6186 293.286 44.7756 274.059C25.1356 255.029 12.1256 228.786 10.9456 201.464C9.76462 174.143 21.0166 146.117 42.0956 128.693C51.6076 120.83 62.8436 114.641 74.4806 110.541C85.4746 106.666 180.424 54.6193 209.026 41.0383Z" fill="#F6F6F6"/>
<path fill-rule="evenodd" clip-rule="evenodd" d="M49.7896 243.451C44.3026 238.601 38.7496 233.676 34.6936 227.579C31.1626 222.267 28.8826 216.235 25.8006 210.65C23.8066 207.036 21.4526 203.554 20.2976 199.59C19.1426 195.627 19.4196 190.935 22.2356 187.916C25.1726 184.768 30.2246 184.285 34.2126 185.908C38.2006 187.53 41.2496 190.883 43.5776 194.504C46.6696 199.314 48.7346 204.78 49.5956 210.433C50.3766 215.555 50.1766 220.789 50.9726 225.909C51.7136 230.679 53.3176 235.259 55.3386 239.629C57.1716 243.593 61.8156 250.661 62.9996 254.724C59.7176 256.367 52.1296 245.519 49.7896 243.451Z" fill="#13A391"/>
<path fill-rule="evenodd" clip-rule="evenodd" d="M46.8137 234.858C45.2807 232.091 43.7977 229.259 42.4187 226.523C39.4317 220.572 39.7257 213.632 38.4927 207.35C37.9537 204.579 37.1697 201.666 35.8967 199.194C34.6207 196.717 32.8747 194.697 30.4007 193.614C30.1477 193.503 30.0327 193.208 30.1427 192.955C30.2247 192.768 30.4087 192.656 30.6017 192.656C30.6677 192.656 30.7357 192.669 30.8017 192.698C33.5457 193.899 35.4467 196.132 36.7857 198.736C38.1267 201.344 38.9237 204.339 39.4737 207.159C40.7177 213.603 40.4627 220.445 43.3117 226.072C44.4197 228.272 45.5957 230.533 46.8097 232.77L46.8137 234.858Z" fill="#146C5A"/>
<path fill-rule="evenodd" clip-rule="evenodd" d="M22.7806 228.531C18.2256 226.732 12.1446 225.994 9.22364 229.924C6.77964 233.214 8.04564 237.879 9.73364 241.615C11.1596 244.769 12.9706 247.975 15.9776 249.69C18.0306 250.861 20.4376 251.212 22.7856 251.492C29.3336 252.271 35.9286 252.653 42.5236 252.634C50.1666 252.612 59.4246 255.734 65.7486 260.5C57.6336 245.415 38.1086 234.584 22.7806 228.531Z" fill="#3A5796"/>
<path fill-rule="evenodd" clip-rule="evenodd" d="M14.7686 238.836C20.5576 239.082 26.3656 239.49 31.8586 241.116C34.6356 241.935 41.5426 244.868 48.1306 248.114C51.4266 249.738 54.6526 251.442 57.2566 253.001C58.5586 253.78 59.7046 254.523 60.6236 255.196C61.5416 255.868 62.2326 256.478 62.6096 256.952C62.7816 257.167 63.0966 257.202 63.3126 257.03C63.5276 256.857 63.5626 256.542 63.3906 256.327C62.9116 255.731 62.1706 255.092 61.2146 254.39C57.8766 251.944 51.8856 248.775 46.0816 246.012C40.2756 243.25 34.6946 240.913 32.1426 240.157C26.5076 238.491 20.6176 238.085 14.8106 237.837C14.5356 237.825 14.3016 238.039 14.2901 238.315C14.2786 238.591 14.4926 238.824 14.7686 238.836Z" fill="#1E3F86"/>
<path fill-rule="evenodd" clip-rule="evenodd" d="M53.4757 246.054C51.6947 244.555 49.8217 243.125 47.8887 241.766C47.5337 241.45 47.1797 241.133 46.8267 240.816L46.8137 234.858C48.3417 237.615 49.9197 240.308 51.4937 242.78C52.1567 243.82 52.8187 244.82 53.4757 245.77V246.054ZM53.4716 243.987C53.0936 243.42 52.7157 242.838 52.3377 242.243C50.4737 239.318 48.6007 236.07 46.8097 232.77L46.7437 200.467C48.1097 203.651 49.0736 207.008 49.5956 210.433C50.3766 215.555 50.1767 220.789 50.9727 225.909C51.4637 229.071 52.3337 232.15 53.4537 235.139L53.4716 243.987Z" fill="#169186"/>
<path fill-rule="evenodd" clip-rule="evenodd" d="M53.4757 245.77C52.8187 244.82 52.1567 243.82 51.4937 242.78C49.9197 240.308 48.3417 237.615 46.8137 234.858L46.8097 232.77C48.6007 236.07 50.4737 239.318 52.3377 242.243C52.7157 242.838 53.0937 243.42 53.4717 243.987L53.4757 245.77Z" fill="#135F52"/>
<path d="M409.461 58H295.261C291.727 58 288.861 60.8654 288.861 64.4V281.6C288.861 285.135 291.727 288 295.261 288H409.461C412.996 288 415.861 285.135 415.861 281.6V64.4C415.861 60.8654 412.996 58 409.461 58Z" fill="#E3E9EF"/>
<path d="M403.623 170.305H300.205C298.879 170.305 297.805 171.379 297.805 172.705V258.647C297.805 259.972 298.879 261.047 300.205 261.047H403.623C404.949 261.047 406.023 259.972 406.023 258.647V172.705C406.023 171.379 404.949 170.305 403.623 170.305Z" fill="white"/>
<path d="M398.257 175.695H304.677C303.351 175.695 302.277 176.77 302.277 178.095V253.256C302.277 254.582 303.351 255.656 304.677 255.656H398.257C399.583 255.656 400.657 254.582 400.657 253.256V178.095C400.657 176.77 399.583 175.695 398.257 175.695Z" fill="#E2E7ED"/>
<path d="M403.537 78.6641H300.45C299.124 78.6641 298.05 79.7386 298.05 81.0641V116.85C298.05 118.176 299.124 119.25 300.45 119.25H403.537C404.863 119.25 405.937 118.176 405.937 116.85V81.0641C405.937 79.7386 404.863 78.6641 403.537 78.6641Z" fill="white"/>
<path d="M379.984 89.1863H326.205C325.653 89.1863 325.205 89.634 325.205 90.1863V95.7022C325.205 96.2545 325.653 96.7022 326.205 96.7022H379.984C380.536 96.7022 380.984 96.2545 380.984 95.7022V90.1863C380.984 89.634 380.536 89.1863 379.984 89.1863Z" fill="#E2E7ED"/>
<path d="M379.984 101.963H326.205C325.653 101.963 325.205 102.411 325.205 102.963V108.479C325.205 109.032 325.653 109.479 326.205 109.479H379.984C380.536 109.479 380.984 109.032 380.984 108.479V102.963C380.984 102.411 380.536 101.963 379.984 101.963Z" fill="#E2E7ED"/>
<path d="M393.216 105.325C397.269 105.325 400.555 101.96 400.555 97.8087C400.555 93.6577 397.269 90.2927 393.216 90.2927C389.162 90.2927 385.876 93.6577 385.876 97.8087C385.876 101.96 389.162 105.325 393.216 105.325Z" fill="#E2E7ED"/>
<path d="M403.537 124.484H300.45C299.124 124.484 298.05 125.559 298.05 126.884V162.67C298.05 163.996 299.124 165.07 300.45 165.07H403.537C404.863 165.07 405.937 163.996 405.937 162.67V126.884C405.937 125.559 404.863 124.484 403.537 124.484Z" fill="white"/>
<path d="M379.984 135.007H326.205C325.653 135.007 325.205 135.454 325.205 136.007V141.523C325.205 142.075 325.653 142.523 326.205 142.523H379.984C380.536 142.523 380.984 142.075 380.984 141.523V136.007C380.984 135.454 380.536 135.007 379.984 135.007Z" fill="#E2E7ED"/>
<path d="M379.984 147.784H326.205C325.653 147.784 325.205 148.231 325.205 148.784V154.3C325.205 154.852 325.653 155.3 326.205 155.3H379.984C380.536 155.3 380.984 154.852 380.984 154.3V148.784C380.984 148.231 380.536 147.784 379.984 147.784Z" fill="#E2E7ED"/>
<path d="M393.216 151.145C397.269 151.145 400.555 147.78 400.555 143.629C400.555 139.478 397.269 136.113 393.216 136.113C389.162 136.113 385.876 139.478 385.876 143.629C385.876 147.78 389.162 151.145 393.216 151.145Z" fill="#E2E7ED"/>
<path d="M347.763 277.137C350.775 277.137 353.217 274.613 353.217 271.5C353.217 268.387 350.775 265.863 347.763 265.863C344.75 265.863 342.308 268.387 342.308 271.5C342.308 274.613 344.75 277.137 347.763 277.137Z" fill="white"/>
<path d="M336.792 71.1867C338.399 71.1867 339.701 69.8438 339.701 68.1871C339.701 66.5305 338.399 65.1875 336.792 65.1875C335.185 65.1875 333.883 66.5305 333.883 68.1871C333.883 69.8438 335.185 71.1867 336.792 71.1867Z" fill="white"/>
<path d="M365.158 66.6907H345.641C344.603 66.6907 343.762 67.5319 343.762 68.5697C343.762 69.6074 344.603 70.4486 345.641 70.4486H365.158C366.195 70.4486 367.037 69.6074 367.037 68.5697C367.037 67.5319 366.195 66.6907 365.158 66.6907Z" fill="white"/>
<path fill-rule="evenodd" clip-rule="evenodd" d="M392.487 282.916C392.3 286.589 391.597 290.353 389.621 293.722C388.254 296.045 386.342 298.09 384.151 299.914C383.024 300.861 381.81 301.745 380.572 302.574C375.759 305.786 370.344 308.276 364.666 309.891C361.871 310.683 358.995 311.273 356.125 311.862C350.498 313.016 344.887 314.166 339.922 316.833C336.48 318.678 333.517 321.215 331.297 324.148C329.904 325.972 328.81 327.951 328.068 330.01L327.685 323.832C328.119 316.975 328.565 309.993 331.298 303.398C333.058 299.126 335.729 295.124 338.682 291.32C343.397 285.232 348.892 279.539 355.336 274.772C360.545 270.918 366.574 267.617 373.158 266.687C379.732 265.752 386.893 267.639 390.2 272.377C392.322 275.421 392.681 279.233 392.487 282.916Z" fill="#5E82B5"/>
<path fill-rule="evenodd" clip-rule="evenodd" d="M332.419 318.089C336.583 308.903 344.221 300.733 353.785 295.236C359.745 291.806 366.407 289.401 372.601 286.133C378.796 282.861 384.742 278.444 387.449 272.548C387.539 272.351 387.434 272.139 387.213 272.075C386.992 272.01 386.74 272.118 386.651 272.316C384.07 277.953 378.304 282.276 372.195 285.499C366.084 288.727 359.411 291.134 353.348 294.619C343.617 300.214 335.857 308.513 331.618 317.86C331.529 318.058 331.636 318.269 331.856 318.332C332.077 318.396 332.329 318.287 332.419 318.089Z" fill="#1E3F86"/>
<path fill-rule="evenodd" clip-rule="evenodd" d="M382.462 301.244C381.949 301.005 381.413 300.803 380.864 300.641C377.363 299.607 373.418 299.933 369.659 300.604C368.338 300.839 367.025 301.12 365.721 301.445C359.395 303.022 353.322 305.631 347.918 309.06L347.192 306.182C352.596 302.753 358.667 300.144 364.991 298.567C366.299 298.241 367.616 297.959 368.941 297.723C372.703 297.053 376.648 296.727 380.144 297.761C381.644 298.205 383.05 298.949 384.151 299.914C383.606 300.371 383.04 300.814 382.462 301.244Z" fill="#5274AB"/>
<path fill-rule="evenodd" clip-rule="evenodd" d="M369.659 300.604C373.418 299.933 377.363 299.607 380.864 300.641C384.365 301.674 387.311 304.343 387.373 307.625C387.446 311.447 383.649 314.893 379.473 316.406C375.297 317.919 370.763 317.982 366.347 318.293C356.577 318.982 346.819 321.016 337.548 324.292C335.236 325.11 333.089 326.071 331.272 327.621C329.403 322.966 341.928 313.174 345.801 310.47C352.789 305.592 361.073 302.135 369.659 300.604Z" fill="#62BDA8"/>
<path fill-rule="evenodd" clip-rule="evenodd" d="M343.487 312.173L342.762 309.295C343.683 308.588 344.483 308.005 345.079 307.59C345.771 307.106 346.476 306.637 347.193 306.182L347.918 309.06C347.2 309.516 346.494 309.986 345.801 310.47C345.206 310.886 344.407 311.468 343.487 312.173Z" fill="#4968A3"/>
<path d="M337.819 96H53.2612C49.7266 96 46.8612 98.8654 46.8612 102.4V319.074C46.8612 322.608 49.7266 325.474 53.2612 325.474H337.819C341.353 325.474 344.219 322.608 344.219 319.074V102.4C344.219 98.8654 341.353 96 337.819 96Z" fill="#CFD7DD"/>
<path d="M56.3698 105.749C58.2794 105.749 59.8274 104.406 59.8274 102.749C59.8274 101.093 58.2794 99.7495 56.3698 99.7495C54.4601 99.7495 52.9121 101.093 52.9121 102.749C52.9121 104.406 54.4601 105.749 56.3698 105.749Z" fill="white"/>
<path d="M66.7427 105.749C68.6523 105.749 70.2003 104.406 70.2003 102.749C70.2003 101.093 68.6523 99.7495 66.7427 99.7495C64.8331 99.7495 63.285 101.093 63.285 102.749C63.285 104.406 64.8331 105.749 66.7427 105.749Z" fill="white"/>
<path d="M76.2512 105.749C78.1608 105.749 79.7089 104.406 79.7089 102.749C79.7089 101.093 78.1608 99.7495 76.2512 99.7495C74.3416 99.7495 72.7936 101.093 72.7936 102.749C72.7936 104.406 74.3416 105.749 76.2512 105.749Z" fill="white"/>
<path d="M46.8612 108.749H344.219V337.821C344.219 341.356 341.353 344.221 337.819 344.221H53.2612C49.7266 344.221 46.8612 341.356 46.8612 337.821V108.749Z" fill="#EDEDED"/>
<path d="M324.659 221.986H253.133C250.924 221.986 249.133 223.776 249.133 225.986V329.606C249.133 331.815 250.924 333.606 253.133 333.606H324.659C326.868 333.606 328.659 331.815 328.659 329.606V225.986C328.659 223.776 326.868 221.986 324.659 221.986Z" fill="white"/>
<path d="M321.073 228.735H257.584C256.259 228.735 255.184 229.809 255.184 231.135V245.068C255.184 246.394 256.259 247.468 257.584 247.468H321.073C322.398 247.468 323.473 246.394 323.473 245.068V231.135C323.473 229.809 322.398 228.735 321.073 228.735Z" fill="#E2E7ED"/>
<path d="M321.073 253.645H257.584C256.259 253.645 255.184 254.72 255.184 256.045V270.759C255.184 272.085 256.259 273.159 257.584 273.159H321.073C322.398 273.159 323.473 272.085 323.473 270.759V256.045C323.473 254.72 322.398 253.645 321.073 253.645Z" fill="#E2E7ED"/>
<path d="M321.073 278.624H257.584C256.259 278.624 255.184 279.698 255.184 281.024V295.738C255.184 297.063 256.259 298.138 257.584 298.138H321.073C322.398 298.138 323.473 297.063 323.473 295.738V281.024C323.473 279.698 322.398 278.624 321.073 278.624Z" fill="#E2E7ED"/>
<path d="M321.073 304.382H257.584C256.259 304.382 255.184 305.457 255.184 306.782V323.838C255.184 325.163 256.259 326.238 257.584 326.238H321.073C322.398 326.238 323.473 325.163 323.473 323.838V306.782C323.473 305.457 322.398 304.382 321.073 304.382Z" fill="#E2E7ED"/>
<path d="M324.659 119.997H253.133C250.924 119.997 249.133 121.788 249.133 123.997V163.242C249.133 165.451 250.924 167.242 253.133 167.242H324.659C326.868 167.242 328.659 165.451 328.659 163.242V123.997C328.659 121.788 326.868 119.997 324.659 119.997Z" fill="white" fill-opacity="0.75"/>
<path d="M318.63 146.994H258.298C257.056 146.994 256.049 148.001 256.049 149.244C256.049 150.486 257.056 151.494 258.298 151.494H318.63C319.872 151.494 320.879 150.486 320.879 149.244C320.879 148.001 319.872 146.994 318.63 146.994Z" fill="#E2E7ED"/>
<path d="M308.257 157.493H269.536C268.293 157.493 267.286 158.5 267.286 159.743C267.286 160.985 268.293 161.992 269.536 161.992H308.257C309.499 161.992 310.506 160.985 310.506 159.743C310.506 158.5 309.499 157.493 308.257 157.493Z" fill="#E2E7ED"/>
<path d="M289.329 143.245C295.296 143.245 300.134 139.048 300.134 133.871C300.134 128.694 295.296 124.497 289.329 124.497C283.361 124.497 278.523 128.694 278.523 133.871C278.523 139.048 283.361 143.245 289.329 143.245Z" fill="#E2E7ED"/>
<path d="M325.524 176.241H253.998C251.789 176.241 249.998 178.032 249.998 180.241V212.736C249.998 214.945 251.789 216.736 253.998 216.736H325.524C327.733 216.736 329.524 214.945 329.524 212.736V180.241C329.524 178.032 327.733 176.241 325.524 176.241Z" fill="white" fill-opacity="0.75"/>
<path d="M320.744 183.74H258.778C258.225 183.74 257.778 184.188 257.778 184.74V188.525C257.778 189.077 258.225 189.525 258.778 189.525H320.744C321.296 189.525 321.744 189.077 321.744 188.525V184.74C321.744 184.188 321.296 183.74 320.744 183.74Z" fill="#E2E7ED"/>
<path d="M321.023 193.542H259.057C258.505 193.542 258.057 193.99 258.057 194.542V198.327C258.057 198.879 258.505 199.327 259.057 199.327H321.023C321.576 199.327 322.023 198.879 322.023 198.327V194.542C322.023 193.99 321.576 193.542 321.023 193.542Z" fill="#E2E7ED"/>
<path d="M321.023 204.47H259.057C258.505 204.47 258.057 204.918 258.057 205.47V209.255C258.057 209.807 258.505 210.255 259.057 210.255H321.023C321.576 210.255 322.023 209.807 322.023 209.255V205.47C322.023 204.918 321.576 204.47 321.023 204.47Z" fill="#E2E7ED"/>
<path d="M232.76 119.997H64.0985C60.7848 119.997 58.0985 122.684 58.0985 125.997V151.493C58.0985 154.807 60.7848 157.493 64.0985 157.493H232.76C236.074 157.493 238.76 154.807 238.76 151.493V125.997C238.76 122.684 236.074 119.997 232.76 119.997Z" fill="white" fill-opacity="0.75"/>
<path d="M196.748 131.996H67.2635C66.021 131.996 65.0138 133.003 65.0138 134.246C65.0138 135.488 66.021 136.495 67.2635 136.495H196.748C197.99 136.495 198.997 135.488 198.997 134.246C198.997 133.003 197.99 131.996 196.748 131.996Z" fill="#E2E7ED"/>
<path d="M162.171 142.495H67.2635C66.021 142.495 65.0138 143.502 65.0138 144.744C65.0138 145.987 66.021 146.994 67.2635 146.994H162.171C163.414 146.994 164.421 145.987 164.421 144.744C164.421 143.502 163.414 142.495 162.171 142.495Z" fill="#E2E7ED"/>
<path d="M221.04 143.245C224.62 143.245 227.523 140.726 227.523 137.62C227.523 134.514 224.62 131.996 221.04 131.996C217.459 131.996 214.557 134.514 214.557 137.62C214.557 140.726 217.459 143.245 221.04 143.245Z" fill="#E2E7ED"/>
<path d="M232.76 163.492H64.0985C60.7848 163.492 58.0985 166.178 58.0985 169.492V194.988C58.0985 198.302 60.7848 200.988 64.0985 200.988H232.76C236.074 200.988 238.76 198.302 238.76 194.988V169.492C238.76 166.178 236.074 163.492 232.76 163.492Z" fill="white" fill-opacity="0.75"/>
<path d="M196.748 175.491H67.2635C66.021 175.491 65.0138 176.498 65.0138 177.74C65.0138 178.983 66.021 179.99 67.2635 179.99H196.748C197.99 179.99 198.997 178.983 198.997 177.74C198.997 176.498 197.99 175.491 196.748 175.491Z" fill="#E2E7ED"/>
<path d="M162.171 185.99H67.2635C66.021 185.99 65.0138 186.997 65.0138 188.239C65.0138 189.482 66.021 190.489 67.2635 190.489H162.171C163.414 190.489 164.421 189.482 164.421 188.239C164.421 186.997 163.414 185.99 162.171 185.99Z" fill="#E2E7ED"/>
<path d="M221.04 186.739C224.62 186.739 227.523 184.221 227.523 181.115C227.523 178.009 224.62 175.491 221.04 175.491C217.459 175.491 214.557 178.009 214.557 181.115C214.557 184.221 217.459 186.739 221.04 186.739Z" fill="#E2E7ED"/>
<path d="M232.76 206.987H64.0985C60.7848 206.987 58.0985 209.674 58.0985 212.987V238.483C58.0985 241.797 60.7848 244.483 64.0985 244.483H232.76C236.074 244.483 238.76 241.797 238.76 238.483V212.987C238.76 209.674 236.074 206.987 232.76 206.987Z" fill="white" fill-opacity="0.75"/>
<path d="M196.748 218.986H67.2635C66.021 218.986 65.0138 219.993 65.0138 221.236C65.0138 222.478 66.021 223.485 67.2635 223.485H196.748C197.99 223.485 198.997 222.478 198.997 221.236C198.997 219.993 197.99 218.986 196.748 218.986Z" fill="#E2E7ED"/>
<path d="M162.171 229.485H67.2635C66.021 229.485 65.0138 230.492 65.0138 231.734C65.0138 232.977 66.021 233.984 67.2635 233.984H162.171C163.414 233.984 164.421 232.977 164.421 231.734C164.421 230.492 163.414 229.485 162.171 229.485Z" fill="#E2E7ED"/>
<path d="M221.04 230.235C224.62 230.235 227.523 227.716 227.523 224.61C227.523 221.504 224.62 218.986 221.04 218.986C217.459 218.986 214.557 221.504 214.557 224.61C214.557 227.716 217.459 230.235 221.04 230.235Z" fill="#E2E7ED"/>
<path d="M232.76 250.482H64.0985C60.7848 250.482 58.0985 253.168 58.0985 256.482V281.978C58.0985 285.292 60.7848 287.978 64.0985 287.978H232.76C236.074 287.978 238.76 285.292 238.76 281.978V256.482C238.76 253.168 236.074 250.482 232.76 250.482Z" fill="white" fill-opacity="0.75"/>
<path d="M196.748 262.481H67.2635C66.021 262.481 65.0138 263.488 65.0138 264.73C65.0138 265.973 66.021 266.98 67.2635 266.98H196.748C197.99 266.98 198.997 265.973 198.997 264.73C198.997 263.488 197.99 262.481 196.748 262.481Z" fill="#E2E7ED"/>
<path d="M162.171 272.979H67.2635C66.021 272.979 65.0138 273.987 65.0138 275.229C65.0138 276.472 66.021 277.479 67.2635 277.479H162.171C163.414 277.479 164.421 276.472 164.421 275.229C164.421 273.987 163.414 272.979 162.171 272.979Z" fill="#E2E7ED"/>
<path d="M221.04 273.729C224.62 273.729 227.523 271.211 227.523 268.105C227.523 264.999 224.62 262.481 221.04 262.481C217.459 262.481 214.557 264.999 214.557 268.105C214.557 271.211 217.459 273.729 221.04 273.729Z" fill="#E2E7ED"/>
<path d="M232.76 295.477H64.0985C60.7848 295.477 58.0985 298.163 58.0985 301.477V326.973C58.0985 330.286 60.7848 332.973 64.0985 332.973H232.76C236.074 332.973 238.76 330.286 238.76 326.973V301.477C238.76 298.163 236.074 295.477 232.76 295.477Z" fill="white" fill-opacity="0.75"/>
<path d="M196.748 307.476H67.2635C66.021 307.476 65.0138 308.483 65.0138 309.725C65.0138 310.968 66.021 311.975 67.2635 311.975H196.748C197.99 311.975 198.997 310.968 198.997 309.725C198.997 308.483 197.99 307.476 196.748 307.476Z" fill="#E2E7ED"/>
<path d="M162.171 317.974H67.2635C66.021 317.974 65.0138 318.982 65.0138 320.224C65.0138 321.467 66.021 322.474 67.2635 322.474H162.171C163.414 322.474 164.421 321.467 164.421 320.224C164.421 318.982 163.414 317.974 162.171 317.974Z" fill="#E2E7ED"/>
<path d="M221.04 318.724C224.62 318.724 227.523 316.206 227.523 313.1C227.523 309.994 224.62 307.476 221.04 307.476C217.459 307.476 214.557 309.994 214.557 313.1C214.557 316.206 217.459 318.724 221.04 318.724Z" fill="#E2E7ED"/>
<path fill-rule="evenodd" clip-rule="evenodd" d="M7.36122 270L14.7224 274.25V282.75L7.36122 287L0 282.75V274.25L7.36122 270Z" fill="#FFB461"/>
<path fill-rule="evenodd" clip-rule="evenodd" d="M437.361 185L444.722 189.25V197.75L437.361 202L430 197.75V189.25L437.361 185Z" fill="#91CFC0"/>
<path fill-rule="evenodd" clip-rule="evenodd" d="M102.361 50L109.722 54.25V62.75L102.361 67L95 62.75V54.25L102.361 50Z" fill="#00CAC5"/>
<path fill-rule="evenodd" clip-rule="evenodd" d="M290.444 26.1805L336.861 0L304.55 32.8409L290.444 26.1805Z" fill="#5E82B5"/>
<path fill-rule="evenodd" clip-rule="evenodd" d="M270.136 14.777L336.861 0L282.563 20.2841L270.136 14.777Z" fill="#5E82B5"/>
<path fill-rule="evenodd" clip-rule="evenodd" d="M290.415 26.0796L287.543 34.7728L296.246 28.768L290.415 26.0796Z" fill="#3A5796"/>
<path fill-rule="evenodd" clip-rule="evenodd" d="M281.732 31.7661C280.638 31.5983 279.517 31.5176 278.39 31.5176C276.257 31.5176 274.089 31.8043 271.966 32.3288C271.344 32.4817 270.974 33.0658 271.145 33.6307C271.313 34.1977 271.956 34.5311 272.581 34.3782C274.52 33.8982 276.489 33.6413 278.39 33.6413C279.396 33.6413 280.385 33.7135 281.341 33.86C281.98 33.9577 282.583 33.5691 282.691 32.9893C282.799 32.4117 282.371 31.8637 281.732 31.7661ZM262.513 35.6061C259.789 37.6583 257.443 40.2137 255.798 43.1394C255.467 43.7301 255.641 44.4984 256.188 44.8588C256.734 45.2167 257.448 45.029 257.779 44.4384C259.224 41.8655 261.341 39.5379 263.838 37.6583C264.364 37.2629 264.491 36.4845 264.125 35.9164C263.759 35.3508 263.039 35.2106 262.513 35.6061ZM252.734 53.109C252.918 55.3248 253.611 57.5938 254.878 59.8386C255.522 60.9755 256.571 61.7768 257.755 62.3151C258.372 62.5951 259.101 62.3296 259.386 61.7261C259.669 61.1203 259.401 60.4034 258.784 60.1234C257.929 59.7348 257.347 59.2375 257.028 58.6679C255.915 56.6959 255.34 54.7721 255.181 52.9111C255.127 52.2449 254.532 51.7525 253.856 51.8056C253.181 51.8611 252.677 52.4452 252.734 53.109ZM268.729 63.3358C270.104 62.8687 271.353 62.2082 272.325 61.2891C273.292 60.3826 274.006 59.1119 274.004 57.6227C274.004 57.3415 273.979 57.0552 273.928 56.7689C273.744 55.7042 273.251 54.7901 272.608 54.097C272.157 53.6098 271.427 53.6123 270.98 54.1045C270.53 54.5967 270.533 55.3928 270.984 55.88C271.344 56.2717 271.569 56.7011 271.666 57.2436L271.701 57.6227C271.698 58.2204 271.445 58.7804 270.811 59.3957C270.185 59.9958 269.201 60.5508 268.047 60.9376C267.439 61.1435 267.098 61.8466 267.287 62.5096C267.476 63.17 268.121 63.5417 268.729 63.3358ZM261.852 52.8061C257.929 53.7876 255.059 55.5479 253.048 57.6202C252.597 58.0825 252.628 58.8021 253.12 59.2279C253.609 59.6538 254.37 59.6242 254.821 59.1619C256.532 57.4084 258.951 55.8941 262.471 55.0059C263.114 54.8442 263.497 54.2203 263.326 53.6123C263.155 53.0065 262.495 52.6444 261.852 52.8061ZM249.066 67.3187C248.922 68.2486 248.861 69.1161 248.861 69.883C248.861 70.8201 248.948 71.6062 249.085 72.2149C249.527 74.1514 250.268 75.8506 251.265 77.3149C251.646 77.8757 252.456 78.0506 253.074 77.7007C253.692 77.3532 253.881 76.6151 253.5 76.0519C252.674 74.8392 252.046 73.4156 251.659 71.7284C251.57 71.3354 251.491 70.6811 251.491 69.883C251.491 69.2288 251.541 68.4714 251.67 67.659C251.775 67.0047 251.275 66.396 250.557 66.3025C249.837 66.2091 249.172 66.662 249.066 67.3187ZM259.303 83.0361C262.268 84.1092 265.579 84.5608 268.93 84.6423C269.58 84.6563 270.119 84.1488 270.136 83.5063C270.152 82.8639 269.636 82.3308 268.986 82.3145C265.812 82.24 262.744 81.8047 260.116 80.8504C259.503 80.6292 258.828 80.9388 258.604 81.5417C258.38 82.1446 258.693 82.8127 259.303 83.0361ZM279.216 83.6662C282.828 83.1961 286.107 82.5244 288.589 81.946C289.219 81.7987 289.6 81.2094 289.44 80.6287C289.28 80.0503 288.639 79.6993 288.007 79.8466C285.588 80.4121 282.384 81.0664 278.886 81.5213C278.243 81.6037 277.792 82.1518 277.884 82.7454C277.976 83.3369 278.573 83.7485 279.216 83.6662Z" fill="#C8D7E5"/>
</svg>
